<svg width="24" height="24" viewBox="0 0 24 24" fill="none" xmlns="http://www.w3.org/2000/svg">
<path fill-rule="evenodd" clip-rule="evenodd" d="M12 23.3745C18.6274 23.3745 24 18.1419 24 11.6873C24 5.23256 18.6274 0 12 0C5.37258 0 0 5.23256 0 11.6873C0 18.1419 5.37258 23.3745 12 23.3745ZM14.3906 5.87799C13.7578 5.85516 12.9414 5.84375 11.9414 5.84375C10.9414 5.84375 10.125 5.85516 9.49219 5.87799C8.95312 5.90082 8.47266 5.99213 8.05078 6.15192C7.64453 6.3041 7.29297 6.52476 6.99609 6.8139C6.69922 7.10305 6.47266 7.44546 6.31641 7.84113C6.15234 8.25201 6.05859 8.71997 6.03516 9.245C6.01172 9.86133 6 10.6565 6 11.6304C6 12.6044 6.01172 13.3995 6.03516 14.0159C6.05859 14.5409 6.15234 15.0089 6.31641 15.4197C6.47266 15.8154 6.69922 16.1578 6.99609 16.447C7.29297 16.7361 7.64453 16.9568 8.05078 17.1089C8.47266 17.2687 8.95312 17.36 9.49219 17.3829C10.125 17.4057 10.9414 17.4171 11.9414 17.4171C12.9414 17.4171 13.7578 17.4057 14.3906 17.3829C14.9297 17.36 15.4102 17.2687 15.832 17.1089C16.2383 16.9568 16.5898 16.7361 16.8867 16.447C17.1836 16.1578 17.4102 15.8154 17.5664 15.4197C17.7305 15.0089 17.8242 14.5409 17.8477 14.0159C17.8711 13.3995 17.8828 12.6044 17.8828 11.6304C17.8828 10.6565 17.8711 9.86133 17.8477 9.245C17.8242 8.71997 17.7305 8.25201 17.5664 7.84113C17.4102 7.44546 17.1836 7.10305 16.8867 6.8139C16.5898 6.52476 16.2383 6.3041 15.832 6.15192C15.4102 5.99213 14.9297 5.90082 14.3906 5.87799ZM9.39844 6.63129C10.0547 6.60846 10.9023 6.59705 11.9414 6.59705C12.9805 6.59705 13.8281 6.60846 14.4844 6.63129C14.9062 6.6465 15.2969 6.71879 15.6562 6.84814C16.2188 7.07642 16.6172 7.46448 16.8516 8.01233C16.9844 8.36235 17.0586 8.7428 17.0742 9.15369C17.0977 9.79285 17.1094 10.6184 17.1094 11.6304C17.1094 12.6424 17.0977 13.468 17.0742 14.1072C17.0586 14.5181 16.9844 14.8985 16.8516 15.2485C16.6172 15.7964 16.2188 16.1844 15.6562 16.4127C15.2969 16.5421 14.9062 16.6144 14.4844 16.6296C13.8281 16.6524 12.9805 16.6638 11.9414 16.6638C10.9023 16.6638 10.0547 16.6524 9.39844 16.6296C8.97656 16.6144 8.58594 16.5421 8.22656 16.4127C7.66406 16.1844 7.26562 15.7964 7.03125 15.2485C6.89844 14.8985 6.82422 14.5181 6.80859 14.1072C6.78516 13.468 6.77344 12.6424 6.77344 11.6304C6.77344 10.6184 6.78516 9.79285 6.80859 9.15369C6.82422 8.7428 6.89844 8.36235 7.03125 8.01233C7.26562 7.46448 7.66406 7.07642 8.22656 6.84814C8.58594 6.71879 8.97656 6.6465 9.39844 6.63129ZM13.623 13.2683C13.1582 13.721 12.5977 13.9474 11.9414 13.9474C11.2852 13.9474 10.7246 13.721 10.2598 13.2683C9.79492 12.8155 9.5625 12.2696 9.5625 11.6304C9.5625 10.9913 9.79492 10.4453 10.2598 9.99258C10.7246 9.53985 11.2852 9.31348 11.9414 9.31348C12.5977 9.31348 13.1582 9.53985 13.623 9.99258C14.0879 10.4453 14.3203 10.9913 14.3203 11.6304C14.3203 12.2696 14.0879 12.8155 13.623 13.2683ZM14.0977 9.53033C13.5039 8.95205 12.7852 8.6629 11.9414 8.6629C11.0977 8.6629 10.3789 8.95205 9.78516 9.53033C9.19141 10.1086 8.89453 10.8087 8.89453 11.6304C8.89453 12.4522 9.19141 13.1522 9.78516 13.7305C10.3789 14.3088 11.0977 14.598 11.9414 14.598C12.7852 14.598 13.5039 14.3088 14.0977 13.7305C14.6914 13.1522 14.9883 12.4522 14.9883 11.6304C14.9883 10.8087 14.6914 10.1086 14.0977 9.53033ZM15.6211 9.03384C15.7617 8.90069 15.832 8.73899 15.832 8.54877C15.832 8.35854 15.7598 8.19304 15.6152 8.05228C15.4707 7.91151 15.3008 7.84113 15.1055 7.84113C14.9102 7.84113 14.7441 7.90961 14.6074 8.04657C14.4707 8.18353 14.4023 8.35093 14.4023 8.54877C14.4023 8.73899 14.4707 8.90069 14.6074 9.03384C14.7441 9.167 14.9102 9.23358 15.1055 9.23358C15.3086 9.23358 15.4805 9.167 15.6211 9.03384Z" fill="#70FFD4"/>
</svg>
