<svg id="Lager_1" data-name="Lager 1" xmlns="http://www.w3.org/2000/svg" viewBox="0 0 750 500"><defs><style>.cls-1{fill:#fff;}</style></defs><polygon class="cls-1" points="579.89 312.87 487.18 272 361.46 272 361.46 269 487.82 269 488.11 269.13 581.11 310.13 579.89 312.87"/><path class="cls-1" d="M369.61,258.19a5.72,5.72,0,0,1-.29,1.91,3.74,3.74,0,0,1-.85,1.45,3.28,3.28,0,0,1-1.41.86l2,2.12h-1.43L366,262.59h-.31a4.39,4.39,0,0,1-1.74-.32,3.12,3.12,0,0,1-1.23-.9A3.81,3.81,0,0,1,362,260a6.09,6.09,0,0,1-.25-1.81,5.68,5.68,0,0,1,.44-2.3,3.29,3.29,0,0,1,1.31-1.54,4.09,4.09,0,0,1,2.21-.55,4,4,0,0,1,2.14.54,3.49,3.49,0,0,1,1.32,1.54A5.52,5.52,0,0,1,369.61,258.19Zm-6.82,0a5.13,5.13,0,0,0,.31,1.89,2.63,2.63,0,0,0,.95,1.23,2.88,2.88,0,0,0,1.64.44,2.85,2.85,0,0,0,1.63-.44,2.61,2.61,0,0,0,.94-1.23,5.35,5.35,0,0,0,.3-1.89,4.28,4.28,0,0,0-.69-2.59,2.53,2.53,0,0,0-2.17-.93,3,3,0,0,0-1.64.42,2.61,2.61,0,0,0-1,1.22A5.29,5.29,0,0,0,362.79,258.19Z"/><path class="cls-1" d="M376.67,256.07v6.42h-.79l-.15-.9h-.05a1.82,1.82,0,0,1-.51.56,2.17,2.17,0,0,1-.72.34,2.84,2.84,0,0,1-.84.12,3,3,0,0,1-1.27-.25,1.6,1.6,0,0,1-.78-.76,3,3,0,0,1-.26-1.33v-4.2h1v4.13a1.68,1.68,0,0,0,.37,1.2,1.4,1.4,0,0,0,1.1.4,2.09,2.09,0,0,0,1.14-.27,1.52,1.52,0,0,0,.62-.8,4,4,0,0,0,.18-1.28v-3.38Z"/><path class="cls-1" d="M381.13,256a2.43,2.43,0,0,1,1.71.52,2.14,2.14,0,0,1,.55,1.64v4.37h-.71l-.18-.95h-.05a4,4,0,0,1-.56.59,2,2,0,0,1-.68.36,3.21,3.21,0,0,1-.94.12,2.44,2.44,0,0,1-1-.21,1.67,1.67,0,0,1-.72-.62,2,2,0,0,1-.26-1,1.67,1.67,0,0,1,.77-1.48,4.43,4.43,0,0,1,2.32-.56l1.1-.05v-.39a1.59,1.59,0,0,0-.35-1.17,1.45,1.45,0,0,0-1-.33,3.32,3.32,0,0,0-1,.14,6.86,6.86,0,0,0-.87.35l-.3-.74a5.5,5.5,0,0,1,1-.38A4.15,4.15,0,0,1,381.13,256Zm1.3,3.37-1,0a3.29,3.29,0,0,0-1.69.39,1.12,1.12,0,0,0-.49,1,1,1,0,0,0,.33.81,1.37,1.37,0,0,0,.89.27,2.05,2.05,0,0,0,1.4-.48,1.8,1.8,0,0,0,.54-1.42Z"/><path class="cls-1" d="M387.68,262.61a2.41,2.41,0,0,1-1.93-.84,4.65,4.65,0,0,1,0-5,2.39,2.39,0,0,1,1.93-.85,2.93,2.93,0,0,1,.89.13,2.13,2.13,0,0,1,.66.37,2.47,2.47,0,0,1,.46.51h.07c0-.12,0-.29,0-.5s0-.38,0-.52v-2.57h1v9.12h-.78l-.15-.91h0a2.49,2.49,0,0,1-.46.52,2.35,2.35,0,0,1-.66.37A2.76,2.76,0,0,1,387.68,262.61Zm.15-.81a1.68,1.68,0,0,0,1.46-.59,2.9,2.9,0,0,0,.43-1.74v-.17a3.57,3.57,0,0,0-.41-1.88,1.59,1.59,0,0,0-1.48-.66,1.5,1.5,0,0,0-1.34.69,3.49,3.49,0,0,0-.44,1.88,3.16,3.16,0,0,0,.44,1.82A1.51,1.51,0,0,0,387.83,261.8Z"/><path class="cls-1" d="M396,262.49v-8.57h1v7.68h3.8v.89Z"/><path class="cls-1" d="M407,262.49h-4.77v-8.57H407v.88h-3.78v2.77h3.56v.87h-3.56v3.17H407Z"/><path class="cls-1" d="M415.74,258.12a5,5,0,0,1-.53,2.42,3.38,3.38,0,0,1-1.53,1.46,5.38,5.38,0,0,1-2.42.49h-2.33v-8.57h2.59a4.91,4.91,0,0,1,2.25.48,3.35,3.35,0,0,1,1.45,1.41A4.7,4.7,0,0,1,415.74,258.12Zm-1.05,0a4.13,4.13,0,0,0-.39-1.91,2.41,2.41,0,0,0-1.12-1.11,4,4,0,0,0-1.81-.37h-1.44v6.86h1.21a3.66,3.66,0,0,0,2.66-.87A3.5,3.5,0,0,0,414.69,258.16Z"/><path class="cls-1" d="M423.36,262.49h-1.13l-2.32-3.77-2.35,3.77H416.5l2.86-4.47-2.66-4.1h1.11l2.14,3.42,2.15-3.42h1L420.51,258Z"/><path class="cls-1" d="M428.52,253.37v2.73c0,.15,0,.31,0,.47a2.74,2.74,0,0,1,0,.43h.07a2.1,2.1,0,0,1,.5-.57,2.42,2.42,0,0,1,.7-.35,2.89,2.89,0,0,1,.84-.12,2.94,2.94,0,0,1,1.29.25,1.69,1.69,0,0,1,.78.76,3,3,0,0,1,.26,1.34v4.18h-1v-4.12a1.68,1.68,0,0,0-.37-1.2,1.43,1.43,0,0,0-1.12-.4,2.09,2.09,0,0,0-1.14.27,1.51,1.51,0,0,0-.61.8,4,4,0,0,0-.18,1.29v3.36h-1v-9.12Z"/><path class="cls-1" d="M437.38,256a2.63,2.63,0,0,1,1.4.36,2.41,2.41,0,0,1,.9,1,3.63,3.63,0,0,1,.31,1.53v.6h-4.44a2.47,2.47,0,0,0,.57,1.72,2,2,0,0,0,1.53.59,4.38,4.38,0,0,0,1.08-.11,5.06,5.06,0,0,0,1-.33v.86a5.15,5.15,0,0,1-1,.32,6.16,6.16,0,0,1-1.13.1,3.28,3.28,0,0,1-1.61-.38,2.55,2.55,0,0,1-1.07-1.11,3.79,3.79,0,0,1-.39-1.79,4.31,4.31,0,0,1,.35-1.8,2.66,2.66,0,0,1,1-1.17A2.72,2.72,0,0,1,437.38,256Zm0,.8a1.59,1.59,0,0,0-1.24.51,2.39,2.39,0,0,0-.55,1.42H439a2.84,2.84,0,0,0-.18-1,1.5,1.5,0,0,0-.52-.68A1.6,1.6,0,0,0,437.36,256.75Z"/><path class="cls-1" d="M444,256a2.41,2.41,0,0,1,1.71.52,2.14,2.14,0,0,1,.55,1.64v4.37h-.7l-.19-.95h-.05a4,4,0,0,1-.56.59,2,2,0,0,1-.68.36,3.16,3.16,0,0,1-.94.12,2.44,2.44,0,0,1-1-.21,1.59,1.59,0,0,1-.71-.62,1.9,1.9,0,0,1-.26-1,1.66,1.66,0,0,1,.76-1.48,4.46,4.46,0,0,1,2.32-.56l1.11-.05v-.39a1.54,1.54,0,0,0-.36-1.17,1.45,1.45,0,0,0-1-.33,3.32,3.32,0,0,0-1,.14,7.52,7.52,0,0,0-.87.35l-.3-.74a5.5,5.5,0,0,1,1-.38A4.15,4.15,0,0,1,444,256Zm1.3,3.37-1,0a3.3,3.3,0,0,0-1.7.39,1.12,1.12,0,0,0-.49,1,1,1,0,0,0,.33.81,1.39,1.39,0,0,0,.89.27,2,2,0,0,0,1.4-.48,1.8,1.8,0,0,0,.54-1.42Z"/><path class="cls-1" d="M450.59,262.61a2.41,2.41,0,0,1-1.93-.84,4.65,4.65,0,0,1,0-5,2.4,2.4,0,0,1,1.93-.85,2.93,2.93,0,0,1,.89.13,2,2,0,0,1,.66.37,2.22,2.22,0,0,1,.46.51h.07c0-.12,0-.29-.05-.5s0-.38,0-.52v-2.57h1v9.12h-.78l-.15-.91h0a2.17,2.17,0,0,1-1.12.89A2.76,2.76,0,0,1,450.59,262.61Zm.16-.81a1.71,1.71,0,0,0,1.46-.59,3,3,0,0,0,.42-1.74v-.17a3.58,3.58,0,0,0-.4-1.88,1.61,1.61,0,0,0-1.48-.66,1.5,1.5,0,0,0-1.35.69,3.49,3.49,0,0,0-.44,1.88,3.24,3.24,0,0,0,.44,1.82A1.53,1.53,0,0,0,450.75,261.8Z"/><path class="cls-1" d="M456.63,262.49h-1v-9.12h1Z"/><path class="cls-1" d="M459.18,253.67a.67.67,0,0,1,.41,1.11.56.56,0,0,1-.41.16.57.57,0,0,1-.42-.16.76.76,0,0,1,0-1A.6.6,0,0,1,459.18,253.67Zm.47,2.4v6.42h-1v-6.42Z"/><path class="cls-1" d="M463.5,265.37a3.47,3.47,0,0,1-1.95-.47,1.49,1.49,0,0,1-.68-1.32,1.46,1.46,0,0,1,.38-1,1.83,1.83,0,0,1,1.06-.57,1.21,1.21,0,0,1-.43-.35.88.88,0,0,1-.18-.54,1,1,0,0,1,.2-.62,2,2,0,0,1,.6-.51,1.74,1.74,0,0,1-.82-.7,2,2,0,0,1-.31-1.14,2.22,2.22,0,0,1,.29-1.18,1.82,1.82,0,0,1,.83-.74,2.93,2.93,0,0,1,1.32-.26h.34l.33,0a1.63,1.63,0,0,1,.28.07H467v.62l-1.18.15a2.37,2.37,0,0,1,.29.55,2,2,0,0,1,.12.71,1.93,1.93,0,0,1-.65,1.53,2.63,2.63,0,0,1-1.79.57,3.41,3.41,0,0,1-.55-.05,1.47,1.47,0,0,0-.44.35.72.72,0,0,0-.15.45.41.41,0,0,0,.12.3.73.73,0,0,0,.33.16,2.54,2.54,0,0,0,.52.05h1.13a2.53,2.53,0,0,1,1.61.44,1.54,1.54,0,0,1,.56,1.28,1.83,1.83,0,0,1-.87,1.63A4.57,4.57,0,0,1,463.5,265.37Zm0-.76a4.49,4.49,0,0,0,1.32-.16,1.72,1.72,0,0,0,.79-.46,1.08,1.08,0,0,0,.26-.72.82.82,0,0,0-.18-.58.87.87,0,0,0-.51-.27,4.86,4.86,0,0,0-.83-.07h-1.12a1.89,1.89,0,0,0-.75.14,1.05,1.05,0,0,0-.5.4,1.18,1.18,0,0,0-.17.65.87.87,0,0,0,.44.8A2.39,2.39,0,0,0,463.53,264.61Zm.25-5.13a1.43,1.43,0,0,0,1.05-.35,1.38,1.38,0,0,0,.35-1,1.51,1.51,0,0,0-.35-1.08,1.43,1.43,0,0,0-1.06-.36,1.37,1.37,0,0,0-1,.37,1.51,1.51,0,0,0-.36,1.09,1.32,1.32,0,0,0,.37,1A1.43,1.43,0,0,0,463.78,259.48Z"/><path class="cls-1" d="M469.2,253.37v2.73c0,.15,0,.31,0,.47s0,.3-.05.43h.07a2,2,0,0,1,.51-.57,2.19,2.19,0,0,1,.7-.35,2.82,2.82,0,0,1,.83-.12,2.94,2.94,0,0,1,1.29.25,1.6,1.6,0,0,1,.78.76,3,3,0,0,1,.26,1.34v4.18h-1v-4.12a1.68,1.68,0,0,0-.37-1.2,1.43,1.43,0,0,0-1.12-.4A2.09,2.09,0,0,0,470,257a1.51,1.51,0,0,0-.61.8,4,4,0,0,0-.18,1.29v3.36h-1v-9.12Z"/><path class="cls-1" d="M477.66,261.81a2.77,2.77,0,0,0,.49,0,2.23,2.23,0,0,0,.41-.1v.75a1.49,1.49,0,0,1-.47.13,3,3,0,0,1-.59.06,2.34,2.34,0,0,1-.93-.18,1.43,1.43,0,0,1-.66-.61,2.3,2.3,0,0,1-.25-1.18v-3.81h-.91v-.48l.92-.38.38-1.39h.59v1.49h1.88v.76h-1.88v3.78a1.26,1.26,0,0,0,.28.9A1,1,0,0,0,477.66,261.81Z"/><path class="cls-1" d="M484,260.73a1.76,1.76,0,0,1-.31,1,2,2,0,0,1-.88.63,4,4,0,0,1-1.36.21,5.67,5.67,0,0,1-1.17-.11,3.34,3.34,0,0,1-.86-.3v-.89a7,7,0,0,0,.94.35,4.14,4.14,0,0,0,1.11.16,2.12,2.12,0,0,0,1.21-.27.86.86,0,0,0,.37-.74.75.75,0,0,0-.15-.46,1.32,1.32,0,0,0-.5-.39,6.91,6.91,0,0,0-1-.42,11.29,11.29,0,0,1-1.06-.47,1.91,1.91,0,0,1-.7-.57,1.43,1.43,0,0,1-.24-.86,1.4,1.4,0,0,1,.66-1.25,3.1,3.1,0,0,1,1.73-.44,5.37,5.37,0,0,1,1.09.11,5.56,5.56,0,0,1,.95.31l-.33.78a7.07,7.07,0,0,0-.85-.29,4.06,4.06,0,0,0-.92-.11,2,2,0,0,0-1,.22.69.69,0,0,0-.36.61.73.73,0,0,0,.17.49,1.49,1.49,0,0,0,.54.36c.24.12.57.25,1,.4a8,8,0,0,1,1,.46,2,2,0,0,1,.68.58A1.43,1.43,0,0,1,484,260.73Z"/><path class="cls-1" d="M486,258.15v-3.62h-1.22v-.61h3.17v.61h-1.24v3.62Zm2.45,0v-4.23h1l1.16,3.31,1.19-3.31h1v4.23h-.71v-2.43c0-.09,0-.23,0-.42s0-.34,0-.46h0l-1.24,3.31h-.6l-1.17-3.31h-.05c0,.14,0,.29,0,.46s0,.28,0,.36v2.49Z"/></svg>