<svg id="Lager_1" data-name="Lager 1" xmlns="http://www.w3.org/2000/svg" viewBox="0 0 750 500"><defs><style>.cls-1{fill:#fff;}</style></defs><polygon class="cls-1" points="327.04 312.15 254.06 251.5 116 251.5 116 248.5 255.14 248.5 328.96 309.85 327.04 312.15"/><path class="cls-1" d="M126.56,241.46l-1.06-2.72h-3.43l-1,2.72h-1l3.35-8.6h.9l3.33,8.6Zm-1.36-3.6-1-2.7-.11-.35c-.06-.16-.11-.32-.17-.5s-.09-.31-.13-.41c0,.16-.08.32-.13.48s-.08.3-.13.44l-.11.34-1,2.7Z"/><path class="cls-1" d="M131.67,234.92a2,2,0,0,1,2.31,2.36v4.18h-1v-4.12a1.71,1.71,0,0,0-.37-1.2,1.47,1.47,0,0,0-1.12-.4,1.73,1.73,0,0,0-1.5.61,3,3,0,0,0-.43,1.75v3.36h-1V235h.79l.15.93h.05a1.9,1.9,0,0,1,.52-.57,2.27,2.27,0,0,1,.71-.36A2.82,2.82,0,0,1,131.67,234.92Z"/><path class="cls-1" d="M138.06,240.78a2.77,2.77,0,0,0,.49,0,1.75,1.75,0,0,0,.41-.1v.76a2.32,2.32,0,0,1-.47.13,4,4,0,0,1-.59.05,2.34,2.34,0,0,1-.93-.18,1.41,1.41,0,0,1-.66-.6,2.34,2.34,0,0,1-.25-1.19V235.8h-.91v-.47l.92-.38.38-1.4H137V235h1.88v.76H137v3.78a1.25,1.25,0,0,0,.28.9A1,1,0,0,0,138.06,240.78Z"/><path class="cls-1" d="M140.76,232.64a.59.59,0,0,1,.41.15.62.62,0,0,1,.17.49.61.61,0,0,1-.17.48.6.6,0,0,1-.41.16.61.61,0,0,1-.42-.16.65.65,0,0,1-.17-.48.66.66,0,0,1,.17-.49A.6.6,0,0,1,140.76,232.64Zm.47,2.4v6.42h-1V235Z"/><path class="cls-1" d="M145.08,244.35a3.38,3.38,0,0,1-2-.48,1.61,1.61,0,0,1-.3-2.35,2,2,0,0,1,1.06-.57,1.09,1.09,0,0,1-.43-.35.84.84,0,0,1-.18-.54,1,1,0,0,1,.2-.62,2.27,2.27,0,0,1,.6-.51,1.76,1.76,0,0,1-.82-.69,2.07,2.07,0,0,1-.31-1.14,2.29,2.29,0,0,1,.29-1.18,1.84,1.84,0,0,1,.83-.75,3.07,3.07,0,0,1,1.32-.26l.34,0,.33,0,.28.06h2.2v.63l-1.18.14a2.59,2.59,0,0,1,.29.55,2.09,2.09,0,0,1,.12.72,1.94,1.94,0,0,1-.65,1.53,2.68,2.68,0,0,1-1.79.56,2.62,2.62,0,0,1-.55,0,1.49,1.49,0,0,0-.44.36.67.67,0,0,0-.15.44.38.38,0,0,0,.12.3.64.64,0,0,0,.33.16,2.54,2.54,0,0,0,.52,0h1.13a2.57,2.57,0,0,1,1.61.44,1.54,1.54,0,0,1,.56,1.28,1.85,1.85,0,0,1-.87,1.64A4.57,4.57,0,0,1,145.08,244.35Zm0-.77a4.49,4.49,0,0,0,1.32-.16,1.64,1.64,0,0,0,.79-.46,1.08,1.08,0,0,0,.26-.72.82.82,0,0,0-.18-.58.86.86,0,0,0-.51-.26,4,4,0,0,0-.83-.07h-1.12a1.9,1.9,0,0,0-.75.13,1.12,1.12,0,0,0-.5.4,1.24,1.24,0,0,0-.17.66.87.87,0,0,0,.44.79A2.39,2.39,0,0,0,145.11,243.58Zm.25-5.13a1.43,1.43,0,0,0,1-.35,1.37,1.37,0,0,0,.35-1,1.46,1.46,0,0,0-.35-1.08,1.43,1.43,0,0,0-1.06-.36,1.37,1.37,0,0,0-1,.38,1.48,1.48,0,0,0-.36,1.08,1.31,1.31,0,0,0,.37,1A1.44,1.44,0,0,0,145.36,238.45Z"/><path class="cls-1" d="M150.78,241.46h-1v-9.11h1Z"/><path class="cls-1" d="M155.24,234.94a2.45,2.45,0,0,1,1.7.51,2.16,2.16,0,0,1,.56,1.65v4.36h-.71l-.19-1h0a3.21,3.21,0,0,1-.57.59,2,2,0,0,1-.67.36,3.21,3.21,0,0,1-.94.12,2.61,2.61,0,0,1-1-.2,1.58,1.58,0,0,1-.72-.63,1.94,1.94,0,0,1-.26-1.05,1.68,1.68,0,0,1,.76-1.48,4.46,4.46,0,0,1,2.32-.56l1.11,0v-.39a1.53,1.53,0,0,0-.36-1.16,1.39,1.39,0,0,0-1-.34,3.11,3.11,0,0,0-1,.15,7.33,7.33,0,0,0-.86.34l-.3-.73a5.67,5.67,0,0,1,1-.39A4.62,4.62,0,0,1,155.24,234.94Zm1.3,3.36-1,0a3.26,3.26,0,0,0-1.69.39,1.13,1.13,0,0,0-.5,1,1,1,0,0,0,.34.82,1.42,1.42,0,0,0,.88.26,2,2,0,0,0,1.4-.48,1.75,1.75,0,0,0,.55-1.42Z"/><path class="cls-1" d="M162.42,234.92l.41,0,.37.06-.12.9c-.11,0-.23-.05-.35-.06l-.37,0a1.81,1.81,0,0,0-.73.16,1.64,1.64,0,0,0-.6.45,2.12,2.12,0,0,0-.4.69,2.63,2.63,0,0,0-.15.91v3.44h-1V235h.81l.11,1.19h0a3.09,3.09,0,0,1,.48-.66,2.16,2.16,0,0,1,.65-.47A1.9,1.9,0,0,1,162.42,234.92Z"/><path class="cls-1" d="M166.88,234.92a2.64,2.64,0,0,1,1.41.37,2.3,2.3,0,0,1,.89,1,3.51,3.51,0,0,1,.31,1.53v.6h-4.43a2.54,2.54,0,0,0,.56,1.73,2,2,0,0,0,1.54.59,4.89,4.89,0,0,0,1.07-.11,7.06,7.06,0,0,0,1-.33v.85a4.79,4.79,0,0,1-1,.32,5.33,5.33,0,0,1-1.13.1,3.33,3.33,0,0,1-1.61-.38,2.55,2.55,0,0,1-1.07-1.11,3.88,3.88,0,0,1-.38-1.79,4.35,4.35,0,0,1,.35-1.8,2.58,2.58,0,0,1,2.48-1.58Zm0,.8a1.58,1.58,0,0,0-1.24.51,2.35,2.35,0,0,0-.55,1.42h3.39a2.67,2.67,0,0,0-.18-1,1.48,1.48,0,0,0-.52-.68A1.54,1.54,0,0,0,166.87,235.72Z"/><path class="cls-1" d="M171.53,237.12v-3.61H170.3v-.61h3.17v.61h-1.23v3.61Zm2.45,0V232.9h1l1.16,3.3,1.2-3.3h1v4.22h-.72V234.7c0-.09,0-.23,0-.43s0-.34,0-.45h0l-1.23,3.3h-.6l-1.18-3.3h0c0,.13,0,.28,0,.45s0,.29,0,.37v2.48Z"/><path class="cls-1" d="M184.4,232.35v2.72c0,.16,0,.31,0,.47s0,.31,0,.44h.06a1.75,1.75,0,0,1,.51-.57,2.09,2.09,0,0,1,.7-.35,2.82,2.82,0,0,1,.83-.12,3,3,0,0,1,1.29.24,1.64,1.64,0,0,1,.78.76,2.91,2.91,0,0,1,.26,1.34v4.18h-1v-4.12a1.76,1.76,0,0,0-.36-1.2,1.49,1.49,0,0,0-1.13-.4,2.14,2.14,0,0,0-1.14.28,1.56,1.56,0,0,0-.61.8,4,4,0,0,0-.18,1.29v3.35h-1v-9.11Z"/><path class="cls-1" d="M193.26,234.92a2.67,2.67,0,0,1,1.41.37,2.37,2.37,0,0,1,.89,1,3.51,3.51,0,0,1,.31,1.53v.6h-4.43a2.54,2.54,0,0,0,.56,1.73,2,2,0,0,0,1.53.59,4.92,4.92,0,0,0,1.08-.11,7,7,0,0,0,1-.33v.85a4.51,4.51,0,0,1-1,.32,5.33,5.33,0,0,1-1.13.1,3.33,3.33,0,0,1-1.61-.38,2.55,2.55,0,0,1-1.07-1.11,3.88,3.88,0,0,1-.38-1.79,4.19,4.19,0,0,1,.35-1.8,2.58,2.58,0,0,1,2.48-1.58Zm0,.8a1.61,1.61,0,0,0-1.25.51,2.48,2.48,0,0,0-.55,1.42h3.4a2.67,2.67,0,0,0-.18-1,1.48,1.48,0,0,0-.52-.68A1.57,1.57,0,0,0,193.25,235.72Z"/><path class="cls-1" d="M199.93,234.94a2.45,2.45,0,0,1,1.7.51,2.16,2.16,0,0,1,.56,1.65v4.36h-.71l-.19-1h0a3.21,3.21,0,0,1-.57.59,2,2,0,0,1-.67.36,3.21,3.21,0,0,1-.94.12,2.57,2.57,0,0,1-1-.2,1.58,1.58,0,0,1-.72-.63,1.94,1.94,0,0,1-.26-1.05,1.68,1.68,0,0,1,.76-1.48,4.46,4.46,0,0,1,2.32-.56l1.11,0v-.39a1.53,1.53,0,0,0-.36-1.16,1.39,1.39,0,0,0-1-.34,3.11,3.11,0,0,0-1,.15,7.33,7.33,0,0,0-.86.34l-.3-.73a5.67,5.67,0,0,1,1-.39A4.62,4.62,0,0,1,199.93,234.94Zm1.3,3.36-1,0a3.26,3.26,0,0,0-1.69.39,1.13,1.13,0,0,0-.5,1,1,1,0,0,0,.34.82,1.42,1.42,0,0,0,.88.26,2,2,0,0,0,1.4-.48,1.75,1.75,0,0,0,.55-1.42Z"/><path class="cls-1" d="M206.48,241.58a2.42,2.42,0,0,1-1.93-.83,3.7,3.7,0,0,1-.72-2.47,3.8,3.8,0,0,1,.73-2.51,2.45,2.45,0,0,1,1.94-.85,2.72,2.72,0,0,1,.89.14,2.14,2.14,0,0,1,.65.36,2,2,0,0,1,.46.51h.08a4.14,4.14,0,0,1-.05-.5q0-.31,0-.51v-2.57h1v9.11h-.79l-.14-.91h-.05a2.23,2.23,0,0,1-.46.52,1.92,1.92,0,0,1-.66.37A2.66,2.66,0,0,1,206.48,241.58Zm.15-.81a1.69,1.69,0,0,0,1.46-.58,3,3,0,0,0,.43-1.74v-.18a3.59,3.59,0,0,0-.41-1.88,1.6,1.6,0,0,0-1.48-.66,1.48,1.48,0,0,0-1.34.69,3.42,3.42,0,0,0-.45,1.88,3.17,3.17,0,0,0,.45,1.83A1.5,1.5,0,0,0,206.63,240.77Z"/><path class="cls-1" d="M212.51,241.46h-1v-9.11h1Z"/><path class="cls-1" d="M215.06,232.64a.59.59,0,0,1,.41.15.63.63,0,0,1,.18.49.62.62,0,0,1-.18.48.6.6,0,0,1-.41.16.61.61,0,0,1-.42-.16.65.65,0,0,1-.16-.48.66.66,0,0,1,.16-.49A.6.6,0,0,1,215.06,232.64Zm.48,2.4v6.42h-1V235Z"/><path class="cls-1" d="M219.39,244.35a3.4,3.4,0,0,1-2-.48,1.61,1.61,0,0,1-.3-2.35,2,2,0,0,1,1.07-.57,1,1,0,0,1-.43-.35.84.84,0,0,1-.18-.54,1,1,0,0,1,.19-.62,2.27,2.27,0,0,1,.6-.51,1.74,1.74,0,0,1-.81-.69,2.08,2.08,0,0,1-.32-1.14,2.29,2.29,0,0,1,.29-1.18,1.84,1.84,0,0,1,.83-.75,3.11,3.11,0,0,1,1.32-.26l.34,0,.33,0,.28.06h2.2v.63l-1.18.14a2.2,2.2,0,0,1,.29.55,2.09,2.09,0,0,1,.12.72,1.94,1.94,0,0,1-.65,1.53,2.66,2.66,0,0,1-1.79.56,2.62,2.62,0,0,1-.55,0,1.49,1.49,0,0,0-.44.36.66.66,0,0,0-.14.44.37.37,0,0,0,.11.3.73.73,0,0,0,.33.16,2.54,2.54,0,0,0,.52,0h1.13a2.57,2.57,0,0,1,1.61.44,1.54,1.54,0,0,1,.56,1.28,1.85,1.85,0,0,1-.87,1.64A4.53,4.53,0,0,1,219.39,244.35Zm0-.77a4.49,4.49,0,0,0,1.32-.16,1.56,1.56,0,0,0,.78-.46,1,1,0,0,0,.26-.72.87.87,0,0,0-.17-.58.89.89,0,0,0-.52-.26,4,4,0,0,0-.83-.07h-1.11a2,2,0,0,0-.76.13,1.12,1.12,0,0,0-.5.4,1.24,1.24,0,0,0-.17.66.87.87,0,0,0,.44.79A2.41,2.41,0,0,0,219.42,243.58Zm.25-5.13a1.46,1.46,0,0,0,1.05-.35,1.41,1.41,0,0,0,.35-1,1.47,1.47,0,0,0-.36-1.08,1.42,1.42,0,0,0-1.05-.36,1.36,1.36,0,0,0-1,.38,1.48,1.48,0,0,0-.36,1.08,1.34,1.34,0,0,0,.36,1A1.45,1.45,0,0,0,219.67,238.45Z"/><path class="cls-1" d="M225.08,232.35v2.72c0,.16,0,.31,0,.47s0,.31,0,.44h.06a1.87,1.87,0,0,1,.51-.57,2.09,2.09,0,0,1,.7-.35,2.82,2.82,0,0,1,.83-.12,3,3,0,0,1,1.29.24,1.64,1.64,0,0,1,.78.76,2.91,2.91,0,0,1,.26,1.34v4.18h-1v-4.12a1.76,1.76,0,0,0-.36-1.2,1.49,1.49,0,0,0-1.13-.4,2.07,2.07,0,0,0-1.13.28,1.46,1.46,0,0,0-.61.8,3.74,3.74,0,0,0-.19,1.29v3.35h-1v-9.11Z"/><path class="cls-1" d="M233.54,240.78a2.7,2.7,0,0,0,.49,0,1.63,1.63,0,0,0,.41-.1v.76a2.32,2.32,0,0,1-.47.13,3.92,3.92,0,0,1-.59.05,2.29,2.29,0,0,1-.92-.18,1.44,1.44,0,0,1-.67-.6,2.45,2.45,0,0,1-.25-1.19V235.8h-.91v-.47l.92-.38.39-1.4h.58V235h1.88v.76h-1.88v3.78a1.29,1.29,0,0,0,.28.9A1,1,0,0,0,233.54,240.78Z"/><path class="cls-1" d="M239.9,239.71a1.66,1.66,0,0,1-.31,1,1.82,1.82,0,0,1-.88.63,3.93,3.93,0,0,1-1.36.21,5.73,5.73,0,0,1-1.17-.1,3.94,3.94,0,0,1-.86-.3v-.9a5.31,5.31,0,0,0,.94.35,3.82,3.82,0,0,0,1.11.16,2.1,2.1,0,0,0,1.21-.27.85.85,0,0,0,.38-.73.78.78,0,0,0-.15-.47,1.67,1.67,0,0,0-.5-.39,7.12,7.12,0,0,0-1-.42,10,10,0,0,1-1.06-.47,1.87,1.87,0,0,1-.69-.56,1.45,1.45,0,0,1-.25-.87,1.41,1.41,0,0,1,.66-1.25,3.11,3.11,0,0,1,1.74-.44,4.7,4.7,0,0,1,1.08.12,4.6,4.6,0,0,1,.95.31l-.33.78a5.3,5.3,0,0,0-.85-.29,3.57,3.57,0,0,0-.92-.12,2,2,0,0,0-1,.22.7.7,0,0,0-.36.61.75.75,0,0,0,.16.5,1.62,1.62,0,0,0,.54.36l1,.4a8.87,8.87,0,0,1,1.05.46,2,2,0,0,1,.67.57A1.47,1.47,0,0,1,239.9,239.71Z"/></svg>