<svg id="Lager_1" data-name="Lager 1" xmlns="http://www.w3.org/2000/svg" viewBox="0 0 750 500"><defs><style>.cls-1{fill:#fff;}</style></defs><polygon class="cls-1" points="101.66 347.35 100.34 344.65 165.65 312.5 165.99 312.5 293.49 312 293.51 315 166.35 315.5 101.66 347.35"/><path class="cls-1" d="M176.93,304.32h-5.62v-.82l2.29-2.33c.43-.42.79-.81,1.08-1.14a4.31,4.31,0,0,0,.66-1,2.36,2.36,0,0,0,.23-1.07,1.38,1.38,0,0,0-.43-1.11,1.6,1.6,0,0,0-1.13-.39,2.68,2.68,0,0,0-1.09.21,4.92,4.92,0,0,0-1,.6l-.53-.65a3.82,3.82,0,0,1,.75-.51,3.89,3.89,0,0,1,.86-.36,3.81,3.81,0,0,1,1-.12,3.14,3.14,0,0,1,1.36.27,2,2,0,0,1,.89.79,2.25,2.25,0,0,1,.32,1.21,3,3,0,0,1-.27,1.26,5.25,5.25,0,0,1-.76,1.16c-.32.38-.7.78-1.14,1.21l-1.86,1.85v0h4.38Z"/><path class="cls-1" d="M183.83,300a10.3,10.3,0,0,1-.15,1.86,4.28,4.28,0,0,1-.5,1.39,2.37,2.37,0,0,1-.88.87,2.74,2.74,0,0,1-1.3.29,2.34,2.34,0,0,1-1.57-.52,3.13,3.13,0,0,1-.94-1.51,8.26,8.26,0,0,1-.3-2.38,9.07,9.07,0,0,1,.27-2.36,3.09,3.09,0,0,1,.9-1.52,2.49,2.49,0,0,1,1.64-.53,2.41,2.41,0,0,1,1.6.53,3.05,3.05,0,0,1,.93,1.51A8.23,8.23,0,0,1,183.83,300Zm-4.66,0a9.19,9.19,0,0,0,.18,2,2.34,2.34,0,0,0,.59,1.2,1.65,1.65,0,0,0,2.13,0,2.34,2.34,0,0,0,.6-1.19,9.29,9.29,0,0,0,.18-2,9.12,9.12,0,0,0-.18-2,2.42,2.42,0,0,0-.59-1.2,1.64,1.64,0,0,0-2.15,0,2.42,2.42,0,0,0-.59,1.2A9.19,9.19,0,0,0,179.17,300Z"/><path class="cls-1" d="M186.23,295.75l.08.13a8.18,8.18,0,0,1-.26.92c-.11.33-.23.65-.36,1s-.26.63-.39.91h-.7c.06-.22.11-.46.18-.71s.11-.51.17-.77.1-.52.14-.77.08-.47.11-.68Zm2.16,0,.09.13c-.07.29-.16.59-.27.92s-.23.65-.36,1-.26.63-.39.91h-.73c.08-.29.16-.61.25-1s.15-.7.22-1,.12-.65.16-.93Z"/><path class="cls-1" d="M195.24,297.78a2.64,2.64,0,0,1,1.41.36,2.36,2.36,0,0,1,.9,1,3.58,3.58,0,0,1,.31,1.52v.61h-4.44A2.53,2.53,0,0,0,194,303a2,2,0,0,0,1.54.59,5.05,5.05,0,0,0,1.08-.11,5.3,5.3,0,0,0,1-.33V304a4.65,4.65,0,0,1-1,.31,5.39,5.39,0,0,1-1.13.1,3.23,3.23,0,0,1-1.62-.38,2.61,2.61,0,0,1-1.07-1.11,3.85,3.85,0,0,1-.38-1.79,4.26,4.26,0,0,1,.35-1.79,2.6,2.6,0,0,1,2.48-1.58Zm0,.79a1.59,1.59,0,0,0-1.24.51,2.42,2.42,0,0,0-.55,1.43h3.4a3,3,0,0,0-.18-1,1.45,1.45,0,0,0-.53-.68A1.48,1.48,0,0,0,195.23,298.57Z"/><path class="cls-1" d="M202.08,304.43a3.26,3.26,0,0,1-1.53-.35,2.53,2.53,0,0,1-1-1.09,4.06,4.06,0,0,1-.37-1.85,4.11,4.11,0,0,1,.39-1.91,2.55,2.55,0,0,1,1.08-1.1,3.37,3.37,0,0,1,1.55-.35,4.66,4.66,0,0,1,.93.09,3.18,3.18,0,0,1,.74.25l-.29.81a5,5,0,0,0-.68-.21,3.22,3.22,0,0,0-.72-.09,2,2,0,0,0-1.11.28,1.79,1.79,0,0,0-.66.85,3.64,3.64,0,0,0-.22,1.37,3.75,3.75,0,0,0,.21,1.33,1.79,1.79,0,0,0,.64.84,1.87,1.87,0,0,0,1.07.29,3.74,3.74,0,0,0,.92-.11,5.82,5.82,0,0,0,.74-.25v.86a2.66,2.66,0,0,1-.72.25A4.28,4.28,0,0,1,202.08,304.43Z"/><path class="cls-1" d="M210.79,301.09a4.37,4.37,0,0,1-.2,1.41,3,3,0,0,1-.59,1.05,2.51,2.51,0,0,1-.94.66,3.23,3.23,0,0,1-1.24.22,3,3,0,0,1-1.18-.22,2.6,2.6,0,0,1-.92-.66,3,3,0,0,1-.61-1.05,4.36,4.36,0,0,1-.21-1.41,4.05,4.05,0,0,1,.36-1.79,2.55,2.55,0,0,1,1-1.13,3.06,3.06,0,0,1,1.58-.39,3,3,0,0,1,1.54.39,2.69,2.69,0,0,1,1,1.13A4.08,4.08,0,0,1,210.79,301.09Zm-4.88,0a4.07,4.07,0,0,0,.2,1.34,1.7,1.7,0,0,0,1.74,1.19,1.68,1.68,0,0,0,1.73-1.19,3.81,3.81,0,0,0,.21-1.34,3.73,3.73,0,0,0-.21-1.32,1.79,1.79,0,0,0-.63-.87,1.91,1.91,0,0,0-1.11-.3,1.67,1.67,0,0,0-1.47.66A3.14,3.14,0,0,0,205.91,301.09Z"/><path class="cls-1" d="M215.05,304.43a3.26,3.26,0,0,1-1.53-.35,2.47,2.47,0,0,1-1-1.09,4.06,4.06,0,0,1-.37-1.85,4.11,4.11,0,0,1,.39-1.91,2.58,2.58,0,0,1,1.07-1.1,3.44,3.44,0,0,1,1.56-.35,4.73,4.73,0,0,1,.93.09,3.35,3.35,0,0,1,.74.25l-.3.81a4.43,4.43,0,0,0-.67-.21,3.22,3.22,0,0,0-.72-.09,2,2,0,0,0-1.11.28,1.67,1.67,0,0,0-.66.85,3.64,3.64,0,0,0-.22,1.37,3.75,3.75,0,0,0,.21,1.33,1.72,1.72,0,0,0,.64.84,1.86,1.86,0,0,0,1.06.29,3.68,3.68,0,0,0,.92-.11,6,6,0,0,0,.75-.25v.86a2.79,2.79,0,0,1-.72.25A4.35,4.35,0,0,1,215.05,304.43Z"/><path class="cls-1" d="M220.63,297.79a2.45,2.45,0,0,1,1.7.51,2.18,2.18,0,0,1,.56,1.65v4.37h-.71l-.19-.95h-.05a3.53,3.53,0,0,1-.56.59,2.14,2.14,0,0,1-.67.35,3.23,3.23,0,0,1-1,.12,2.64,2.64,0,0,1-1-.2,1.65,1.65,0,0,1-.71-.62,2,2,0,0,1-.26-1.06,1.66,1.66,0,0,1,.76-1.47,4.35,4.35,0,0,1,2.32-.57l1.11,0v-.4a1.53,1.53,0,0,0-.36-1.16,1.39,1.39,0,0,0-1-.34,3.11,3.11,0,0,0-1,.15,6,6,0,0,0-.86.35l-.3-.74a5,5,0,0,1,1-.38A4.22,4.22,0,0,1,220.63,297.79Zm1.3,3.36-1,0a3.33,3.33,0,0,0-1.7.39,1.16,1.16,0,0,0-.49,1,1,1,0,0,0,.34.82,1.4,1.4,0,0,0,.88.26,2.08,2.08,0,0,0,1.4-.47,1.78,1.78,0,0,0,.55-1.43Z"/><path class="cls-1" d="M227.81,297.78a2.75,2.75,0,0,1,.4,0l.38.05-.12.9-.36-.06a2.23,2.23,0,0,0-.36,0,1.8,1.8,0,0,0-.73.15,1.76,1.76,0,0,0-.6.45,2,2,0,0,0-.4.69,2.67,2.67,0,0,0-.15.91v3.45h-1v-6.43h.81l.11,1.19h0a3.09,3.09,0,0,1,.48-.66A2.21,2.21,0,0,1,227,298,1.87,1.87,0,0,1,227.81,297.78Z"/><path class="cls-1" d="M230.77,295.2v2.28c0,.26,0,.51,0,.76s0,.44,0,.57h.05a2.14,2.14,0,0,1,.76-.73,2.44,2.44,0,0,1,1.27-.3,2.41,2.41,0,0,1,1.93.84,3.69,3.69,0,0,1,.71,2.48,4.72,4.72,0,0,1-.32,1.83,2.47,2.47,0,0,1-.93,1.12,2.52,2.52,0,0,1-1.41.38,2.44,2.44,0,0,1-1.25-.28,2.15,2.15,0,0,1-.76-.7h-.07l-.2.87h-.7V295.2Zm1.87,3.4a2,2,0,0,0-1.1.27,1.45,1.45,0,0,0-.59.82,4.51,4.51,0,0,0-.18,1.39v.05a3.48,3.48,0,0,0,.4,1.85,1.6,1.6,0,0,0,1.47.64A1.52,1.52,0,0,0,234,303a3.31,3.31,0,0,0,.45-1.88,3.2,3.2,0,0,0-.45-1.87A1.54,1.54,0,0,0,232.64,298.6Z"/><path class="cls-1" d="M242.67,301.09a4.37,4.37,0,0,1-.2,1.41,2.82,2.82,0,0,1-.59,1.05,2.51,2.51,0,0,1-.94.66,3.19,3.19,0,0,1-1.24.22,3,3,0,0,1-1.18-.22,2.6,2.6,0,0,1-.92-.66,3,3,0,0,1-.61-1.05,4.36,4.36,0,0,1-.21-1.41,4.05,4.05,0,0,1,.36-1.79,2.55,2.55,0,0,1,1-1.13,3.07,3.07,0,0,1,1.59-.39,3,3,0,0,1,1.53.39,2.69,2.69,0,0,1,1,1.13A4.08,4.08,0,0,1,242.67,301.09Zm-4.88,0a4.07,4.07,0,0,0,.2,1.34,1.7,1.7,0,0,0,1.74,1.19,1.83,1.83,0,0,0,1.1-.31,1.76,1.76,0,0,0,.63-.88,3.81,3.81,0,0,0,.21-1.34,3.73,3.73,0,0,0-.21-1.32,1.73,1.73,0,0,0-.63-.87,1.91,1.91,0,0,0-1.11-.3,1.67,1.67,0,0,0-1.47.66A3.14,3.14,0,0,0,237.79,301.09Z"/><path class="cls-1" d="M247.4,297.78a2,2,0,0,1,2.31,2.35v4.19h-1V300.2a1.68,1.68,0,0,0-.37-1.2,1.42,1.42,0,0,0-1.12-.4,1.73,1.73,0,0,0-1.5.6,3,3,0,0,0-.43,1.75v3.37h-1v-6.43h.78l.15.93h.05a1.9,1.9,0,0,1,.52-.57,2.24,2.24,0,0,1,.71-.35A2.82,2.82,0,0,1,247.4,297.78Z"/><path class="cls-1" d="M252.1,300v-3.61h-1.23v-.61H254v.61h-1.23V300Zm2.45,0v-4.22h1l1.16,3.3,1.2-3.3h1V300h-.72v-2.42c0-.09,0-.23,0-.42s0-.35,0-.46h0L257,300h-.6l-1.18-3.3h0l0,.45V300Z"/><path class="cls-1" d="M266.92,297.78a2.82,2.82,0,0,1,.4,0l.37.05-.12.9-.35-.06a2.3,2.3,0,0,0-.36,0,1.8,1.8,0,0,0-.73.15,1.76,1.76,0,0,0-.6.45,2,2,0,0,0-.41.69,2.67,2.67,0,0,0-.14.91v3.45h-1v-6.43h.81l.1,1.19h0a3.48,3.48,0,0,1,.48-.66,2.4,2.4,0,0,1,.66-.47A1.84,1.84,0,0,1,266.92,297.78Z"/><path class="cls-1" d="M269.4,295.49a.56.56,0,0,1,.41.16.59.59,0,0,1,.18.48.62.62,0,0,1-.18.48.56.56,0,0,1-.41.16.57.57,0,0,1-.42-.16.65.65,0,0,1-.17-.48.62.62,0,0,1,.17-.48A.57.57,0,0,1,269.4,295.49Zm.47,2.4v6.43h-1v-6.43Z"/><path class="cls-1" d="M278.9,297.78a2.13,2.13,0,0,1,1.6.55,2.48,2.48,0,0,1,.54,1.78v4.21h-1v-4.16a1.72,1.72,0,0,0-.34-1.17,1.22,1.22,0,0,0-1-.39,1.61,1.61,0,0,0-1.36.54,2.52,2.52,0,0,0-.42,1.58v3.6h-1v-4.16a2.19,2.19,0,0,0-.15-.87,1,1,0,0,0-.44-.52,1.44,1.44,0,0,0-.75-.17,1.74,1.74,0,0,0-1,.26,1.47,1.47,0,0,0-.56.78,4,4,0,0,0-.18,1.28v3.4h-1v-6.43h.79l.14.91h.06a1.86,1.86,0,0,1,.48-.56,2.32,2.32,0,0,1,.66-.35,2.76,2.76,0,0,1,.77-.11,2.54,2.54,0,0,1,1.23.27,1.59,1.59,0,0,1,.72.83h.05a2,2,0,0,1,.87-.83A2.68,2.68,0,0,1,278.9,297.78Z"/><path class="cls-1" d="M287.19,302.56a1.72,1.72,0,0,1-.3,1,1.87,1.87,0,0,1-.88.63,4,4,0,0,1-1.36.21,5.73,5.73,0,0,1-1.17-.1,3.21,3.21,0,0,1-.86-.3v-.9a5,5,0,0,0,.94.35,3.77,3.77,0,0,0,1.11.16,2.12,2.12,0,0,0,1.21-.27.85.85,0,0,0,.37-.73.78.78,0,0,0-.15-.47,1.67,1.67,0,0,0-.5-.39,6.91,6.91,0,0,0-1-.42,10.37,10.37,0,0,1-1.07-.46,2.19,2.19,0,0,1-.69-.57,1.45,1.45,0,0,1-.24-.87,1.41,1.41,0,0,1,.66-1.25,3.1,3.1,0,0,1,1.73-.43,4.74,4.74,0,0,1,1.09.11,5.18,5.18,0,0,1,.94.31l-.32.78a5.66,5.66,0,0,0-.85-.29,3.57,3.57,0,0,0-.92-.12,2,2,0,0,0-1,.23.67.67,0,0,0-.36.61.75.75,0,0,0,.17.49,1.53,1.53,0,0,0,.53.36c.25.11.57.25,1,.4a8,8,0,0,1,1,.46,2,2,0,0,1,.68.57A1.49,1.49,0,0,1,287.19,302.56Z"/></svg>