<svg id="Lager_1" data-name="Lager 1" xmlns="http://www.w3.org/2000/svg" viewBox="0 0 750 500"><defs><style>.cls-1{fill:#fff;}</style></defs><polygon class="cls-1" points="464.47 267.5 277.69 267.5 204.4 235.37 205.6 232.63 278.31 264.5 464.47 264.5 464.47 267.5"/><path class="cls-1" d="M293.87,255v-8.57h1V255Z"/><path class="cls-1" d="M300.12,248.49a2,2,0,0,1,2.31,2.35V255h-1v-4.12a1.72,1.72,0,0,0-.36-1.2,1.46,1.46,0,0,0-1.13-.4,1.73,1.73,0,0,0-1.5.6,3,3,0,0,0-.43,1.75V255h-1V248.6h.78l.15.93h.05a1.9,1.9,0,0,1,.52-.57,2.24,2.24,0,0,1,.71-.35A2.82,2.82,0,0,1,300.12,248.49Z"/><path class="cls-1" d="M306.72,255.14a2.4,2.4,0,0,1-1.93-.83,4.67,4.67,0,0,1,0-5,2.41,2.41,0,0,1,1.93-.84,2.65,2.65,0,0,1,.89.13,2.33,2.33,0,0,1,.66.36,2.29,2.29,0,0,1,.46.52h.07c0-.13,0-.29-.05-.5s0-.39,0-.52v-2.57h1V255h-.78l-.15-.92h0a2.26,2.26,0,0,1-.46.52,2.37,2.37,0,0,1-.66.38A2.77,2.77,0,0,1,306.72,255.14Zm.15-.81a1.68,1.68,0,0,0,1.46-.58,2.9,2.9,0,0,0,.43-1.74v-.18a3.62,3.62,0,0,0-.41-1.88,1.59,1.59,0,0,0-1.48-.65,1.51,1.51,0,0,0-1.34.68,3.51,3.51,0,0,0-.44,1.88,3.17,3.17,0,0,0,.44,1.83A1.5,1.5,0,0,0,306.87,254.33Z"/><path class="cls-1" d="M312.28,246.2a.57.57,0,0,1,.41.16.76.76,0,0,1,0,1,.57.57,0,0,1-.41.16.57.57,0,0,1-.42-.16.76.76,0,0,1,0-1A.57.57,0,0,1,312.28,246.2Zm.47,2.4V255h-1V248.6Z"/><path class="cls-1" d="M317.38,255.14a3.26,3.26,0,0,1-1.53-.35,2.53,2.53,0,0,1-1-1.09,4.06,4.06,0,0,1-.37-1.85,4.11,4.11,0,0,1,.39-1.91,2.55,2.55,0,0,1,1.08-1.1,3.37,3.37,0,0,1,1.55-.35,4.73,4.73,0,0,1,.93.09,3.18,3.18,0,0,1,.74.25l-.3.81a4.43,4.43,0,0,0-.67-.21,3.22,3.22,0,0,0-.72-.09,2,2,0,0,0-1.11.28,1.72,1.72,0,0,0-.66.85,3.68,3.68,0,0,0-.22,1.37,3.75,3.75,0,0,0,.21,1.33,1.72,1.72,0,0,0,.64.84,1.86,1.86,0,0,0,1.06.29,3.68,3.68,0,0,0,.92-.11,5.48,5.48,0,0,0,.75-.25v.86a3.23,3.23,0,0,1-.72.26A5.07,5.07,0,0,1,317.38,255.14Z"/><path class="cls-1" d="M323,248.5a2.45,2.45,0,0,1,1.7.51,2.18,2.18,0,0,1,.56,1.65V255h-.71l-.19-.95h0a3.57,3.57,0,0,1-.57.59,2.14,2.14,0,0,1-.67.35,3.21,3.21,0,0,1-.94.12,2.44,2.44,0,0,1-1-.2,1.68,1.68,0,0,1-.72-.62,2,2,0,0,1-.26-1.06,1.66,1.66,0,0,1,.76-1.47,4.35,4.35,0,0,1,2.32-.57l1.11,0v-.4a1.53,1.53,0,0,0-.36-1.16,1.42,1.42,0,0,0-1-.34,3.12,3.12,0,0,0-1,.15,6,6,0,0,0-.86.35l-.3-.74a5,5,0,0,1,1-.38A4.22,4.22,0,0,1,323,248.5Zm1.3,3.36-1,0a3.28,3.28,0,0,0-1.69.4,1.11,1.11,0,0,0-.5,1,1,1,0,0,0,.34.82,1.42,1.42,0,0,0,.88.26,2.08,2.08,0,0,0,1.4-.47,1.78,1.78,0,0,0,.55-1.43Z"/><path class="cls-1" d="M329.3,254.35a4.22,4.22,0,0,0,.49,0,2.46,2.46,0,0,0,.41-.1V255a1.81,1.81,0,0,1-.47.13,3,3,0,0,1-.59,0,2.34,2.34,0,0,1-.93-.18,1.36,1.36,0,0,1-.66-.6,2.34,2.34,0,0,1-.25-1.19v-3.8h-.91v-.48l.92-.38.38-1.39h.59v1.48h1.88v.77h-1.88v3.78a1.26,1.26,0,0,0,.28.9A1,1,0,0,0,329.3,254.35Z"/><path class="cls-1" d="M332,246.2a.56.56,0,0,1,.41.16.76.76,0,0,1,0,1,.56.56,0,0,1-.41.16.57.57,0,0,1-.42-.16.76.76,0,0,1,0-1A.57.57,0,0,1,332,246.2Zm.47,2.4V255h-1V248.6Z"/><path class="cls-1" d="M337.57,248.49a2,2,0,0,1,2.32,2.35V255h-1v-4.12a1.72,1.72,0,0,0-.36-1.2,1.45,1.45,0,0,0-1.12-.4,1.73,1.73,0,0,0-1.5.6,3,3,0,0,0-.44,1.75V255h-1V248.6h.79l.14.93h.05A1.93,1.93,0,0,1,336,249a2.14,2.14,0,0,1,.71-.35A2.76,2.76,0,0,1,337.57,248.49Z"/><path class="cls-1" d="M343.68,257.91a3.47,3.47,0,0,1-1.95-.47,1.51,1.51,0,0,1-.68-1.32,1.49,1.49,0,0,1,.38-1,1.91,1.91,0,0,1,1.06-.56,1.3,1.3,0,0,1-.43-.35.88.88,0,0,1-.18-.54,1,1,0,0,1,.2-.62,2,2,0,0,1,.6-.51,1.74,1.74,0,0,1-.82-.7,2.07,2.07,0,0,1-.31-1.14,2.32,2.32,0,0,1,.29-1.18,1.89,1.89,0,0,1,.83-.75,3.08,3.08,0,0,1,1.32-.25h.34l.33,0,.28.06h2.2v.63l-1.18.15a2.18,2.18,0,0,1,.29.55,2,2,0,0,1,.12.71,1.94,1.94,0,0,1-.65,1.53,2.63,2.63,0,0,1-1.79.56,3.48,3.48,0,0,1-.55,0,1.33,1.33,0,0,0-.44.35.71.71,0,0,0-.15.44.38.38,0,0,0,.12.3.57.57,0,0,0,.33.16,2,2,0,0,0,.52,0h1.13a2.59,2.59,0,0,1,1.61.44,1.56,1.56,0,0,1,.56,1.29,1.83,1.83,0,0,1-.87,1.63A4.57,4.57,0,0,1,343.68,257.91Zm0-.76A4.85,4.85,0,0,0,345,257a1.73,1.73,0,0,0,.79-.47,1.07,1.07,0,0,0,.26-.71.85.85,0,0,0-.18-.59.86.86,0,0,0-.51-.26,4,4,0,0,0-.83-.07h-1.12a1.89,1.89,0,0,0-.75.14,1.1,1.1,0,0,0-.5.39,1.24,1.24,0,0,0-.17.66.9.9,0,0,0,.44.8A2.39,2.39,0,0,0,343.71,257.15ZM344,252a1.39,1.39,0,0,0,1.05-.35,1.35,1.35,0,0,0,.35-1,1.46,1.46,0,0,0-.35-1.08,1.43,1.43,0,0,0-1.06-.36,1.37,1.37,0,0,0-1,.37,1.51,1.51,0,0,0-.36,1.09,1.3,1.3,0,0,0,.37,1A1.38,1.38,0,0,0,344,252Z"/><path class="cls-1" d="M352.5,245.91v2.28c0,.26,0,.51,0,.76s0,.44,0,.57h.06a2.14,2.14,0,0,1,.76-.73,2.69,2.69,0,0,1,3.19.54,3.69,3.69,0,0,1,.72,2.48,4.54,4.54,0,0,1-.33,1.83,2.45,2.45,0,0,1-.92,1.12,2.53,2.53,0,0,1-1.42.38,2.49,2.49,0,0,1-1.25-.28,2.28,2.28,0,0,1-.75-.69h-.08l-.19.86h-.71v-9.12Zm1.87,3.4a2,2,0,0,0-1.11.27,1.54,1.54,0,0,0-.59.82,4.58,4.58,0,0,0-.17,1.39v.05a3.46,3.46,0,0,0,.4,1.85,1.6,1.6,0,0,0,1.47.64,1.49,1.49,0,0,0,1.34-.65,3.31,3.31,0,0,0,.45-1.88,3.23,3.23,0,0,0-.44-1.87A1.54,1.54,0,0,0,354.37,249.31Z"/><path class="cls-1" d="M361.78,248.49a2.88,2.88,0,0,1,.41,0l.37.05-.12.91-.35-.07-.37,0a1.83,1.83,0,0,0-.73.15,2.15,2.15,0,0,0-.6.45,2.07,2.07,0,0,0-.4.7,2.57,2.57,0,0,0-.15.9V255h-1V248.6h.81l.11,1.19h0a3.09,3.09,0,0,1,.48-.66,2.51,2.51,0,0,1,.65-.47A2.05,2.05,0,0,1,361.78,248.49Z"/><path class="cls-1" d="M366.17,248.5a2.48,2.48,0,0,1,1.71.51,2.18,2.18,0,0,1,.55,1.65V255h-.71l-.18-.95h-.05a4,4,0,0,1-.56.59,2.19,2.19,0,0,1-.68.35,3.21,3.21,0,0,1-.94.12,2.44,2.44,0,0,1-1-.2,1.74,1.74,0,0,1-.72-.62,2,2,0,0,1-.26-1.06,1.66,1.66,0,0,1,.77-1.47,4.33,4.33,0,0,1,2.32-.57l1.1,0v-.4a1.58,1.58,0,0,0-.35-1.16,1.45,1.45,0,0,0-1-.34,3,3,0,0,0-1,.15,5.64,5.64,0,0,0-.87.35L364,249a4.85,4.85,0,0,1,1-.38A4.15,4.15,0,0,1,366.17,248.5Zm1.3,3.36-1,0a3.28,3.28,0,0,0-1.69.4,1.11,1.11,0,0,0-.49,1,1,1,0,0,0,.33.82,1.43,1.43,0,0,0,.89.26,2.1,2.1,0,0,0,1.4-.47,1.8,1.8,0,0,0,.54-1.43Z"/><path class="cls-1" d="M371.4,245.91v4.73c0,.16,0,.35,0,.57s0,.43,0,.6h0l.36-.45c.16-.2.29-.36.4-.48l2.13-2.28h1.14l-2.58,2.75,2.77,3.68h-1.17l-2.27-3-.78.71V255h-1v-9.12Z"/><path class="cls-1" d="M379.21,248.49a2.64,2.64,0,0,1,1.41.36,2.36,2.36,0,0,1,.9,1,3.58,3.58,0,0,1,.31,1.52V252h-4.44a2.52,2.52,0,0,0,.56,1.72,2,2,0,0,0,1.54.59,5,5,0,0,0,1.08-.11,5.3,5.3,0,0,0,1-.33v.86a4.65,4.65,0,0,1-1,.31,5.39,5.39,0,0,1-1.13.1,3.34,3.34,0,0,1-1.62-.37,2.79,2.79,0,0,1-1.07-1.11,3.93,3.93,0,0,1-.38-1.8,4.26,4.26,0,0,1,.35-1.79,2.6,2.6,0,0,1,2.48-1.58Zm0,.79a1.59,1.59,0,0,0-1.24.51,2.42,2.42,0,0,0-.55,1.43h3.4a3,3,0,0,0-.18-1,1.45,1.45,0,0,0-.53-.68A1.55,1.55,0,0,0,379.2,249.28Z"/><path class="cls-1" d="M384.46,255h-1v-9.12h1Z"/><path class="cls-1" d="M387,246.2a.57.57,0,0,1,.41.16.76.76,0,0,1,0,1,.57.57,0,0,1-.41.16.57.57,0,0,1-.42-.16.76.76,0,0,1,0-1A.57.57,0,0,1,387,246.2Zm.47,2.4V255h-1V248.6Z"/><path class="cls-1" d="M391.33,257.91a3.47,3.47,0,0,1-1.95-.47,1.52,1.52,0,0,1-.69-1.32,1.49,1.49,0,0,1,.39-1,1.88,1.88,0,0,1,1.06-.56,1.21,1.21,0,0,1-.43-.35.88.88,0,0,1-.18-.54,1,1,0,0,1,.2-.62,2,2,0,0,1,.6-.51,1.74,1.74,0,0,1-.82-.7,2.07,2.07,0,0,1-.31-1.14,2.22,2.22,0,0,1,.29-1.18,1.84,1.84,0,0,1,.83-.75,3.08,3.08,0,0,1,1.32-.25H392l.33,0,.27.06h2.21v.63l-1.19.15a1.91,1.91,0,0,1,.3.55,2,2,0,0,1,.11.71,1.91,1.91,0,0,1-.65,1.53,2.6,2.6,0,0,1-1.78.56,3.39,3.39,0,0,1-.55,0,1.24,1.24,0,0,0-.44.35.71.71,0,0,0-.15.44.41.41,0,0,0,.11.3.64.64,0,0,0,.34.16,2,2,0,0,0,.52,0h1.13a2.59,2.59,0,0,1,1.61.44,1.56,1.56,0,0,1,.56,1.29,1.83,1.83,0,0,1-.87,1.63A4.59,4.59,0,0,1,391.33,257.91Zm0-.76a4.85,4.85,0,0,0,1.32-.16,1.73,1.73,0,0,0,.79-.47,1.07,1.07,0,0,0,.26-.71.85.85,0,0,0-.18-.59A.89.89,0,0,0,393,255a4.06,4.06,0,0,0-.84-.07h-1.11a2,2,0,0,0-.76.14,1.12,1.12,0,0,0-.49.39,1.16,1.16,0,0,0-.17.66.88.88,0,0,0,.44.8A2.39,2.39,0,0,0,391.36,257.15Zm.25-5.14a1.39,1.39,0,0,0,1.05-.35,1.35,1.35,0,0,0,.35-1,1.51,1.51,0,0,0-.35-1.08,1.43,1.43,0,0,0-1.06-.36,1.37,1.37,0,0,0-1,.37,1.51,1.51,0,0,0-.36,1.09,1.3,1.3,0,0,0,.37,1A1.38,1.38,0,0,0,391.61,252Z"/><path class="cls-1" d="M397,245.91v2.72c0,.16,0,.32,0,.48a2.86,2.86,0,0,1,0,.43H397a2,2,0,0,1,.5-.57,2.35,2.35,0,0,1,.71-.35,2.78,2.78,0,0,1,.83-.12,2.94,2.94,0,0,1,1.29.25,1.64,1.64,0,0,1,.78.76,3,3,0,0,1,.26,1.33V255h-1v-4.12a1.68,1.68,0,0,0-.37-1.2,1.43,1.43,0,0,0-1.12-.4,2.09,2.09,0,0,0-1.14.27,1.51,1.51,0,0,0-.61.8,4,4,0,0,0-.18,1.29V255h-1v-9.12Z"/><path class="cls-1" d="M405.49,254.35a4.22,4.22,0,0,0,.49,0,2.46,2.46,0,0,0,.41-.1V255a1.81,1.81,0,0,1-.47.13,3,3,0,0,1-.59,0,2.34,2.34,0,0,1-.93-.18,1.36,1.36,0,0,1-.66-.6,2.34,2.34,0,0,1-.25-1.19v-3.8h-.91v-.48l.92-.38.38-1.39h.59v1.48h1.88v.77h-1.88v3.78a1.26,1.26,0,0,0,.28.9A1,1,0,0,0,405.49,254.35Z"/><path class="cls-1" d="M411.84,253.27a1.72,1.72,0,0,1-.3,1,1.87,1.87,0,0,1-.88.63,4,4,0,0,1-1.36.21,5.73,5.73,0,0,1-1.17-.1,3.21,3.21,0,0,1-.86-.3v-.9a5,5,0,0,0,.94.35,3.77,3.77,0,0,0,1.11.16,2.12,2.12,0,0,0,1.21-.27.85.85,0,0,0,.37-.73.78.78,0,0,0-.15-.47,1.55,1.55,0,0,0-.5-.39,10.53,10.53,0,0,0-1-.42,10.37,10.37,0,0,1-1.07-.46,2.19,2.19,0,0,1-.69-.57,1.45,1.45,0,0,1-.24-.87,1.41,1.41,0,0,1,.66-1.25,3.1,3.1,0,0,1,1.73-.43,5.37,5.37,0,0,1,1.09.11,5.18,5.18,0,0,1,.94.31l-.32.78a7.07,7.07,0,0,0-.85-.29,3.57,3.57,0,0,0-.92-.12,2,2,0,0,0-1,.23.69.69,0,0,0-.36.61.73.73,0,0,0,.17.49,1.49,1.49,0,0,0,.54.36c.24.11.57.25,1,.4a8,8,0,0,1,1,.46,2,2,0,0,1,.68.57A1.49,1.49,0,0,1,411.84,253.27Z"/><path class="cls-1" d="M413.79,250.68v-3.61h-1.22v-.61h3.17v.61H414.5v3.61Zm2.45,0v-4.22h1.05l1.16,3.3,1.19-3.3h1v4.22H420v-2.42c0-.09,0-.23,0-.42s0-.35,0-.46h0l-1.24,3.3h-.6l-1.18-3.3h0c0,.14,0,.29,0,.45s0,.29,0,.37v2.48Z"/></svg>