<svg width="248" height="213" viewBox="0 0 248 213" fill="none" xmlns="http://www.w3.org/2000/svg">
<g clip-path="url(#clip0_4_3)">
<path d="M147.6 118.59C147.6 118.71 147.6 118.84 147.6 118.96C147.6 119.34 147.69 119.72 147.74 120.09C148.89 128.857 151.376 137.396 155.11 145.41C162.756 162.172 175.648 175.991 191.84 184.78C204.671 191.974 219.13 195.761 233.84 195.78C238.316 195.799 242.787 195.465 247.21 194.78L247.71 194.7V186.46L247.21 186.54C230.08 189.316 212.514 186.214 197.37 177.74C182.91 169.891 171.397 157.55 164.57 142.58C161.424 135.836 159.272 128.671 158.18 121.31C158.12 120.94 158.06 120.56 158.01 120.19C157.96 119.82 157.91 119.45 157.87 119.08V118.81C157.87 118.64 157.87 118.48 157.82 118.31L147.75 118.17H147.51L147.6 118.59ZM188.81 119.07C188.815 119.086 188.815 119.104 188.81 119.12C188.86 119.48 188.91 119.85 188.97 120.21C189.03 120.57 189.08 120.95 189.15 121.31C189.22 121.67 189.27 122.04 189.35 122.4C189.43 122.76 189.49 123.13 189.57 123.48C189.65 123.83 189.73 124.22 189.82 124.58C190.601 127.741 191.686 130.818 193.06 133.77C197.427 143.361 204.799 151.27 214.06 156.3C221.395 160.4 229.657 162.558 238.06 162.57C241.13 162.575 244.194 162.287 247.21 161.71C247.38 161.71 247.54 161.65 247.71 161.62V153.35L247.21 153.45C244.55 154.008 241.838 154.286 239.12 154.28C232.275 154.276 225.545 152.521 219.57 149.18C212.038 145.091 206.042 138.66 202.49 130.86C201.706 129.177 201.038 127.443 200.49 125.67C200.38 125.31 200.27 124.95 200.18 124.58C200.09 124.21 199.98 123.86 199.89 123.5C199.8 123.14 199.72 122.79 199.64 122.43C199.56 122.07 199.49 121.71 199.42 121.34C199.35 120.97 199.29 120.62 199.23 120.25C199.17 119.88 199.11 119.53 199.06 119.16C199.06 119 199.06 118.83 199.01 118.67L189.77 118.59H188.7C188.77 118.74 188.79 118.9 188.81 119.07V119.07ZM209.43 119.22C209.43 119.58 209.53 119.93 209.6 120.29C209.67 120.65 209.73 121.01 209.81 121.36C209.89 121.71 209.97 122.09 210.07 122.45C210.17 122.81 210.25 123.17 210.36 123.52C210.47 123.87 210.57 124.24 210.69 124.59C210.81 124.94 210.93 125.3 211.07 125.65C211.21 126 211.34 126.38 211.49 126.74C211.64 127.1 211.83 127.56 212.02 127.96C214.761 133.963 219.38 138.912 225.18 142.06C229.781 144.638 234.966 145.995 240.24 146C242.597 146.002 244.947 145.726 247.24 145.18L247.74 145.06V118.76C241.993 118.76 236.607 118.76 231.58 118.76C225.467 118.76 218.76 118.74 211.46 118.7H209.33L209.39 119.16C209.389 119.173 209.393 119.186 209.4 119.197C209.407 119.207 209.418 119.216 209.43 119.22V119.22ZM168.22 118.85C168.215 118.91 168.215 118.97 168.22 119.03C168.22 119.4 168.3 119.77 168.36 120.14C168.42 120.51 168.46 120.87 168.52 121.24C168.58 121.61 168.64 121.99 168.7 122.36C169.723 128.317 171.536 134.112 174.09 139.59C180.11 152.773 190.258 163.637 203 170.54C213.086 176.176 224.446 179.14 236 179.15C239.773 179.154 243.54 178.84 247.26 178.21L247.76 178.13V169.88L247.26 169.97C233.978 172.312 220.294 169.999 208.52 163.42C201.036 159.281 194.541 153.565 189.485 146.666C184.429 139.768 180.933 131.853 179.24 123.47C179.16 123.1 179.09 122.74 179.02 122.37C178.95 122 178.89 121.64 178.83 121.27C178.77 120.9 178.71 120.55 178.67 120.18C178.63 119.81 178.56 119.45 178.52 119.08C178.515 119.04 178.515 119 178.52 118.96C178.49 118.795 178.469 118.628 178.46 118.46L168.72 118.36H168.16L168.22 118.85ZM180.49 13.33C160.699 24.1088 145 41.0938 135.81 61.67C129.412 75.389 126.065 90.3324 126 105.47C125.908 121.304 129.324 136.962 136 151.32C145.86 172.313 160.753 188.28 180.68 199.22C201.083 210.622 224.709 214.884 247.81 211.33V202.86L247.31 202.93C242.536 203.669 237.711 204.036 232.88 204.03C216.595 204.025 200.583 199.849 186.37 191.9C168.237 181.947 154.683 167.42 145.71 148.32C141.386 139.034 138.577 129.115 137.39 118.94L137.33 118.44L137.27 117.94H135.85C135.265 114.504 134.971 111.025 134.97 107.54C134.924 92.595 138.228 77.8298 144.64 64.33C152.95 46.2616 166.874 31.3616 184.34 21.85C198.805 13.6857 215.15 9.43576 231.76 9.52C234.67 9.52 237.55 9.64 240.4 9.9C240.78 9.9 241.16 9.9 241.55 10C243.64 10.2 245.71 10.46 247.77 10.81V1.14C242.565 0.376004 237.311 -0.00501907 232.05 1.9134e-06C214.001 -0.0822322 196.238 4.51011 180.49 13.33V13.33Z" fill="white"/>
<path d="M188.71 118.12C188.71 118.21 188.71 118.21 188.71 118.3C188.7 118.329 188.7 118.361 188.71 118.39C188.7 118.416 188.7 118.444 188.71 118.47C188.7 118.503 188.7 118.537 188.71 118.57C188.71 118.74 188.71 118.9 188.76 119.07H189.76L199.05 119.15C199.05 118.99 199.05 118.82 199 118.66C198.993 118.646 198.989 118.631 198.989 118.615C198.989 118.599 198.993 118.584 199 118.57C198.993 118.558 198.989 118.544 198.989 118.53C198.989 118.516 198.993 118.502 199 118.49C198.995 118.479 198.993 118.467 198.993 118.455C198.993 118.443 198.995 118.431 199 118.42C198.99 118.391 198.99 118.359 199 118.33C198.99 118.304 198.99 118.276 199 118.25C198.99 118.221 198.99 118.189 199 118.16L189.82 118.08H188.7C188.7 118.094 188.704 118.108 188.71 118.12V118.12ZM247.27 170V178.24L247.77 178.16V169.91L247.27 170ZM209.27 118.32C209.265 118.343 209.265 118.367 209.27 118.39C209.265 118.416 209.265 118.444 209.27 118.47C209.265 118.493 209.265 118.517 209.27 118.54C209.265 118.551 209.263 118.563 209.263 118.575C209.263 118.587 209.265 118.599 209.27 118.61C209.27 118.61 209.27 118.61 209.27 118.67C209.265 118.696 209.265 118.724 209.27 118.75L209.33 119.21H211.39C218.723 119.25 225.43 119.27 231.51 119.27C236.39 119.27 241.61 119.27 247.17 119.27V145.18L247.67 145.06V118.36H240.09C236.297 118.36 231.72 118.33 226.36 118.27H226.11H216.76H215.98H211.39H209.2C209.233 118.289 209.272 118.296 209.31 118.29L209.27 118.32ZM247.27 161.74C247.44 161.74 247.6 161.68 247.77 161.65V153.38L247.27 153.48V161.74ZM247.27 186.49V194.73L247.77 194.65V186.41L247.27 186.49ZM180.49 13.33C160.699 24.1088 145 41.0938 135.81 61.67C129.412 75.389 126.065 90.3324 126 105.47C125.908 121.304 129.324 136.962 136 151.32C145.86 172.313 160.753 188.28 180.68 199.22C201.083 210.622 224.709 214.884 247.81 211.33V202.86L247.31 202.93V210.93C224.448 214.351 201.098 210.089 180.92 198.81C161.334 188.144 145.731 171.419 136.45 151.14C129.839 136.838 126.455 121.256 126.54 105.5C126.84 79.0718 136.849 53.6768 154.66 34.15C164.573 23.547 176.555 15.0901 189.867 9.30227C203.178 3.5144 217.535 0.518566 232.05 0.500002C237.142 0.497009 242.228 0.85457 247.27 1.57V10.22C245.49 9.93 243.63 9.7 241.61 9.5C241.21 9.45 240.82 9.42 240.45 9.4C237.66 9.15 234.74 9.02 231.76 9.02C215.057 8.94164 198.62 13.2042 184.06 21.39C166.518 30.975 152.525 45.9494 144.15 64.1C137.72 77.6701 134.4 92.5038 134.43 107.52C134.432 111.032 134.73 114.538 135.32 118L135.39 118.41H135.8H137.29L137.23 117.91H135.81C135.225 114.474 134.931 110.995 134.93 107.51C134.884 92.565 138.188 77.7998 144.6 64.3C152.91 46.2316 166.834 31.3316 184.3 21.82C198.78 13.6594 215.139 9.41964 231.76 9.52C234.67 9.52 237.55 9.64 240.4 9.9C240.78 9.9 241.16 9.9 241.55 10C243.64 10.2 245.71 10.46 247.77 10.81V1.14C242.565 0.376004 237.311 -0.00501907 232.05 1.9134e-06C214.001 -0.0822322 196.238 4.51011 180.49 13.33V13.33ZM168.13 118C168.12 118.036 168.12 118.074 168.13 118.11C168.125 118.143 168.125 118.177 168.13 118.21C168.125 118.246 168.125 118.284 168.13 118.32L168.19 118.82H169.78L178.49 118.91C178.46 118.745 178.439 118.578 178.43 118.41C178.425 118.377 178.425 118.343 178.43 118.31C178.43 118.22 178.43 118.22 178.43 118.13C178.419 118.098 178.419 118.062 178.43 118.03L174 118C173.995 117.97 173.995 117.94 174 117.91H169.82H168.1C168.107 117.941 168.117 117.971 168.13 118V118ZM147.52 118C147.52 118 147.52 118.09 147.52 118.13L147.58 118.63H148.84L157.84 118.75C157.84 118.58 157.84 118.42 157.79 118.25C157.78 118.211 157.78 118.169 157.79 118.13C157.785 118.094 157.785 118.056 157.79 118.02L155 118C155 117.91 155 117.83 155 117.74L148.88 117.66H147.49C147.5 117.71 147.51 117.83 147.52 118Z" fill="white"/>
<path d="M147.6 118.59C147.6 118.71 147.6 118.84 147.6 118.96C147.6 119.34 147.69 119.72 147.74 120.09C148.89 128.857 151.376 137.396 155.11 145.41C162.756 162.172 175.648 175.991 191.84 184.78C204.671 191.974 219.13 195.761 233.84 195.78C238.316 195.799 242.787 195.465 247.21 194.78L247.71 194.7V186.46L247.21 186.54C230.08 189.316 212.514 186.214 197.37 177.74C182.91 169.891 171.397 157.55 164.57 142.58C161.424 135.836 159.272 128.671 158.18 121.31C158.12 120.94 158.06 120.56 158.01 120.19C157.96 119.82 157.91 119.45 157.87 119.08V118.81C157.87 118.64 157.87 118.48 157.82 118.31L147.75 118.17H147.51L147.6 118.59ZM188.81 119.07C188.815 119.086 188.815 119.104 188.81 119.12C188.86 119.48 188.91 119.85 188.97 120.21C189.03 120.57 189.08 120.95 189.15 121.31C189.22 121.67 189.27 122.04 189.35 122.4C189.43 122.76 189.49 123.13 189.57 123.48C189.65 123.83 189.73 124.22 189.82 124.58C190.601 127.741 191.686 130.818 193.06 133.77C197.427 143.361 204.799 151.27 214.06 156.3C221.395 160.4 229.657 162.558 238.06 162.57C241.13 162.575 244.194 162.287 247.21 161.71C247.38 161.71 247.54 161.65 247.71 161.62V153.35L247.21 153.45C244.55 154.008 241.838 154.286 239.12 154.28C232.275 154.276 225.545 152.521 219.57 149.18C212.038 145.091 206.042 138.66 202.49 130.86C201.706 129.177 201.038 127.443 200.49 125.67C200.38 125.31 200.27 124.95 200.18 124.58C200.09 124.21 199.98 123.86 199.89 123.5C199.8 123.14 199.72 122.79 199.64 122.43C199.56 122.07 199.49 121.71 199.42 121.34C199.35 120.97 199.29 120.62 199.23 120.25C199.17 119.88 199.11 119.53 199.06 119.16C199.06 119 199.06 118.83 199.01 118.67L189.77 118.59H188.7C188.77 118.74 188.79 118.9 188.81 119.07V119.07ZM209.43 119.22C209.43 119.58 209.53 119.93 209.6 120.29C209.67 120.65 209.73 121.01 209.81 121.36C209.89 121.71 209.97 122.09 210.07 122.45C210.17 122.81 210.25 123.17 210.36 123.52C210.47 123.87 210.57 124.24 210.69 124.59C210.81 124.94 210.93 125.3 211.07 125.65C211.21 126 211.34 126.38 211.49 126.74C211.64 127.1 211.83 127.56 212.02 127.96C214.761 133.963 219.38 138.912 225.18 142.06C229.781 144.638 234.966 145.995 240.24 146C242.597 146.002 244.947 145.726 247.24 145.18L247.74 145.06V118.76C241.993 118.76 236.607 118.76 231.58 118.76C225.467 118.76 218.76 118.74 211.46 118.7H209.33L209.39 119.16C209.389 119.173 209.393 119.186 209.4 119.197C209.407 119.207 209.418 119.216 209.43 119.22V119.22ZM168.22 118.85C168.215 118.91 168.215 118.97 168.22 119.03C168.22 119.4 168.3 119.77 168.36 120.14C168.42 120.51 168.46 120.87 168.52 121.24C168.58 121.61 168.64 121.99 168.7 122.36C169.723 128.317 171.536 134.112 174.09 139.59C180.11 152.773 190.258 163.637 203 170.54C213.086 176.176 224.446 179.14 236 179.15C239.773 179.154 243.54 178.84 247.26 178.21L247.76 178.13V169.88L247.26 169.97C233.978 172.312 220.294 169.999 208.52 163.42C201.036 159.281 194.541 153.565 189.485 146.666C184.429 139.768 180.933 131.853 179.24 123.47C179.16 123.1 179.09 122.74 179.02 122.37C178.95 122 178.89 121.64 178.83 121.27C178.77 120.9 178.71 120.55 178.67 120.18C178.63 119.81 178.56 119.45 178.52 119.08C178.515 119.04 178.515 119 178.52 118.96C178.49 118.795 178.469 118.628 178.46 118.46L168.72 118.36H168.16L168.22 118.85ZM180.49 13.33C160.699 24.1088 145 41.0938 135.81 61.67C129.412 75.389 126.065 90.3324 126 105.47C125.908 121.304 129.324 136.962 136 151.32C145.86 172.313 160.753 188.28 180.68 199.22C201.083 210.622 224.709 214.884 247.81 211.33V202.86L247.31 202.93C242.536 203.669 237.711 204.036 232.88 204.03C216.595 204.025 200.583 199.849 186.37 191.9C168.237 181.947 154.683 167.42 145.71 148.32C141.386 139.034 138.577 129.115 137.39 118.94L137.33 118.44L137.27 117.94H135.85C135.265 114.504 134.971 111.025 134.97 107.54C134.924 92.595 138.228 77.8298 144.64 64.33C152.95 46.2616 166.874 31.3616 184.34 21.85C198.805 13.6857 215.15 9.43576 231.76 9.52C234.67 9.52 237.55 9.64 240.4 9.9C240.78 9.9 241.16 9.9 241.55 10C243.64 10.2 245.71 10.46 247.77 10.81V1.14C242.565 0.376004 237.311 -0.00501907 232.05 1.9134e-06C214.001 -0.0822322 196.238 4.51011 180.49 13.33V13.33Z" fill="white"/>
<path d="M147.54 118.09L147.6 118.59C147.6 118.71 147.6 118.84 147.6 118.96C147.6 119.34 147.69 119.72 147.74 120.09C148.89 128.857 151.376 137.396 155.11 145.41C162.756 162.172 175.648 175.991 191.84 184.78C204.671 191.974 219.13 195.761 233.84 195.78C238.316 195.799 242.787 195.465 247.21 194.78L247.71 194.7V186.46L247.21 186.54C230.08 189.316 212.514 186.214 197.37 177.74C182.91 169.891 171.397 157.55 164.57 142.58C161.424 135.836 159.272 128.671 158.18 121.31C158.12 120.94 158.06 120.56 158.01 120.19C157.96 119.82 157.91 119.45 157.87 119.08V118.81C157.87 118.64 157.87 118.48 157.82 118.31C157.81 118.271 157.81 118.229 157.82 118.19L147.64 118H147.52C147.52 118 147.53 118.05 147.54 118.09ZM188.76 118.57C188.76 118.74 188.76 118.9 188.81 119.07C188.815 119.086 188.815 119.104 188.81 119.12C188.86 119.48 188.91 119.85 188.97 120.21C189.03 120.57 189.08 120.95 189.15 121.31C189.22 121.67 189.27 122.04 189.35 122.4C189.43 122.76 189.49 123.13 189.57 123.48C189.65 123.83 189.73 124.22 189.82 124.58C190.601 127.741 191.686 130.818 193.06 133.77C197.427 143.361 204.799 151.27 214.06 156.3C221.395 160.4 229.657 162.558 238.06 162.57C241.13 162.575 244.194 162.287 247.21 161.71C247.38 161.71 247.54 161.65 247.71 161.62V153.35L247.21 153.45C244.55 154.008 241.838 154.286 239.12 154.28C232.275 154.276 225.545 152.521 219.57 149.18C212.038 145.091 206.042 138.66 202.49 130.86C201.706 129.177 201.038 127.443 200.49 125.67C200.38 125.31 200.27 124.95 200.18 124.58C200.09 124.21 199.98 123.86 199.89 123.5C199.8 123.14 199.72 122.79 199.64 122.43C199.56 122.07 199.49 121.71 199.42 121.34C199.35 120.97 199.29 120.62 199.23 120.25C199.17 119.88 199.11 119.53 199.06 119.16C199.06 119 199.06 118.83 199.01 118.67C199.003 118.656 198.999 118.641 198.999 118.625C198.999 118.609 199.003 118.594 199.01 118.58L189.53 118.49H188.7C188.712 118.522 188.732 118.55 188.76 118.57V118.57ZM209.42 119.18C209.42 119.54 209.52 119.89 209.59 120.25C209.66 120.61 209.72 120.97 209.8 121.32C209.88 121.67 209.96 122.05 210.06 122.41C210.16 122.77 210.24 123.13 210.35 123.48C210.46 123.83 210.56 124.2 210.68 124.55C210.8 124.9 210.92 125.26 211.06 125.61C211.2 125.96 211.33 126.34 211.48 126.7C211.63 127.06 211.82 127.52 212.01 127.92C214.751 133.923 219.37 138.872 225.17 142.02C229.77 144.614 234.959 145.984 240.24 146C242.597 146.002 244.947 145.726 247.24 145.18L247.74 145.06V118.69C242.407 118.69 237.387 118.69 232.68 118.69C226.2 118.69 218.987 118.663 211.04 118.61H209.32C209.315 118.636 209.315 118.664 209.32 118.69L209.42 119.18ZM168.16 118.35L168.22 118.85C168.215 118.91 168.215 118.97 168.22 119.03C168.22 119.4 168.3 119.77 168.36 120.14C168.42 120.51 168.46 120.87 168.52 121.24C168.58 121.61 168.64 121.99 168.7 122.36C169.723 128.317 171.536 134.112 174.09 139.59C180.11 152.773 190.258 163.637 203 170.54C213.086 176.176 224.446 179.14 236 179.15C239.773 179.154 243.54 178.84 247.26 178.21L247.76 178.13V169.88L247.26 169.97C233.978 172.312 220.294 169.999 208.52 163.42C201.036 159.281 194.541 153.565 189.485 146.666C184.429 139.768 180.933 131.853 179.24 123.47C179.16 123.1 179.09 122.74 179.02 122.37C178.95 122 178.89 121.64 178.83 121.27C178.77 120.9 178.71 120.55 178.67 120.18C178.63 119.81 178.56 119.45 178.52 119.08C178.515 119.04 178.515 119 178.52 118.96C178.49 118.795 178.469 118.628 178.46 118.46C178.455 118.427 178.455 118.393 178.46 118.36L168.55 118.24H168.16C168.155 118.276 168.155 118.314 168.16 118.35Z" fill="white"/>
<path d="M191.76 32C175.483 40.8507 162.566 54.8071 155 71.72C149.741 82.9957 146.991 95.2783 146.94 107.72C146.938 111.017 147.108 114.311 147.45 117.59C147.45 117.71 147.45 117.83 147.45 117.96C147.45 118.09 147.45 118.05 147.45 118.09L147.51 118.59C147.51 118.71 147.51 118.84 147.51 118.96C147.51 119.34 147.6 119.72 147.65 120.09C148.8 128.857 151.286 137.396 155.02 145.41C162.666 162.172 175.558 175.991 191.75 184.78C204.581 191.974 219.04 195.761 233.75 195.78C238.226 195.799 242.697 195.465 247.12 194.78L247.62 194.7V186.46L247.12 186.54C229.99 189.316 212.424 186.214 197.28 177.74C182.82 169.891 171.307 157.55 164.48 142.58C161.334 135.836 159.182 128.671 158.09 121.31C158.03 120.94 157.97 120.56 157.92 120.19C157.87 119.82 157.82 119.45 157.78 119.08V118.81C157.78 118.64 157.78 118.48 157.73 118.31C157.72 118.271 157.72 118.229 157.73 118.19C157.725 118.154 157.725 118.116 157.73 118.08L155 118C155 117.91 155 117.83 155 117.74C154.547 115.003 154.32 112.234 154.32 109.46C154.283 97.1748 157 85.0374 162.27 73.94C169.096 59.0836 180.537 46.8289 194.89 39C206.789 32.2936 220.231 28.8056 233.89 28.88C238.54 28.8524 243.184 29.2272 247.77 30V22C243.259 21.3136 238.702 20.9793 234.14 21C219.301 20.949 204.701 24.7384 191.76 32ZM188.76 118.49C188.75 118.523 188.75 118.557 188.76 118.59C188.76 118.76 188.76 118.92 188.81 119.09C188.815 119.106 188.815 119.124 188.81 119.14C188.86 119.5 188.91 119.87 188.97 120.23C189.03 120.59 189.08 120.97 189.15 121.33C189.22 121.69 189.27 122.06 189.35 122.42C189.43 122.78 189.49 123.15 189.57 123.5C189.65 123.85 189.73 124.24 189.82 124.6C190.601 127.761 191.686 130.838 193.06 133.79C197.427 143.381 204.799 151.29 214.06 156.32C221.395 160.42 229.657 162.578 238.06 162.59C241.13 162.595 244.194 162.307 247.21 161.73C247.38 161.73 247.54 161.67 247.71 161.64V153.37L247.21 153.47C244.55 154.028 241.838 154.306 239.12 154.3C232.275 154.296 225.545 152.541 219.57 149.2C212.038 145.111 206.042 138.68 202.49 130.88C201.706 129.197 201.038 127.463 200.49 125.69C200.38 125.33 200.27 124.97 200.18 124.6C200.09 124.23 199.98 123.88 199.89 123.52C199.8 123.16 199.72 122.81 199.64 122.45C199.56 122.09 199.49 121.73 199.42 121.36C199.35 120.99 199.29 120.64 199.23 120.27C199.17 119.9 199.11 119.55 199.06 119.18C199.06 119.02 199.06 118.85 199.01 118.69C199.003 118.676 198.999 118.661 198.999 118.645C198.999 118.629 199.003 118.614 199.01 118.6C199.003 118.588 198.999 118.574 198.999 118.56C198.999 118.546 199.003 118.532 199.01 118.52L189.32 118.43H188.7C188.712 118.448 188.73 118.462 188.75 118.47L188.76 118.49ZM209.37 118.74L209.43 119.2C209.43 119.56 209.53 119.91 209.6 120.27C209.67 120.63 209.73 120.99 209.81 121.34C209.89 121.69 209.97 122.07 210.07 122.43C210.17 122.79 210.25 123.15 210.36 123.5C210.47 123.85 210.57 124.22 210.69 124.57C210.81 124.92 210.93 125.28 211.07 125.63C211.21 125.98 211.34 126.36 211.49 126.72C211.64 127.08 211.83 127.54 212.02 127.94C214.761 133.943 219.38 138.892 225.18 142.04C229.779 144.625 234.964 145.989 240.24 146C242.597 146.002 244.947 145.727 247.24 145.18L247.74 145.06V118.64C242.747 118.64 238.08 118.64 233.74 118.64C226.953 118.64 219.257 118.61 210.65 118.55H209.31C209.31 118.55 209.31 118.55 209.31 118.61C209.316 118.651 209.333 118.689 209.36 118.72L209.37 118.74ZM168.16 118.26C168.155 118.296 168.155 118.334 168.16 118.37L168.22 118.87C168.215 118.93 168.215 118.99 168.22 119.05C168.22 119.42 168.3 119.79 168.36 120.16C168.42 120.53 168.46 120.89 168.52 121.26C168.58 121.63 168.64 122.01 168.7 122.38C169.723 128.337 171.536 134.132 174.09 139.61C180.113 152.785 190.261 163.642 203 170.54C213.086 176.176 224.446 179.14 236 179.15C239.773 179.154 243.54 178.84 247.26 178.21L247.76 178.13V169.88L247.26 169.97C233.978 172.312 220.294 169.999 208.52 163.42C201.036 159.281 194.541 153.565 189.485 146.666C184.429 139.768 180.933 131.853 179.24 123.47C179.16 123.1 179.09 122.74 179.02 122.37C178.95 122 178.89 121.64 178.83 121.27C178.77 120.9 178.71 120.55 178.67 120.18C178.63 119.81 178.56 119.45 178.52 119.08C178.515 119.04 178.515 119 178.52 118.96C178.49 118.795 178.469 118.628 178.46 118.46C178.455 118.427 178.455 118.393 178.46 118.36C178.45 118.331 178.45 118.299 178.46 118.27L168.4 118.14H168.16C168.151 118.173 168.148 118.206 168.15 118.24L168.16 118.26Z" fill="white"/>
<path d="M188.74 118.39C188.73 118.416 188.73 118.444 188.74 118.47C188.73 118.503 188.73 118.537 188.74 118.57C188.74 118.74 188.74 118.9 188.79 119.07C188.795 119.086 188.795 119.104 188.79 119.12C188.84 119.48 188.89 119.85 188.95 120.21C189.01 120.57 189.06 120.95 189.13 121.31C189.2 121.67 189.25 122.04 189.33 122.4C189.41 122.76 189.47 123.13 189.55 123.48C189.63 123.83 189.71 124.22 189.8 124.58C190.581 127.741 191.666 130.818 193.04 133.77C197.407 143.361 204.779 151.27 214.04 156.3C221.375 160.4 229.637 162.558 238.04 162.57C241.11 162.575 244.174 162.287 247.19 161.71C247.36 161.71 247.52 161.65 247.69 161.62V153.35L247.19 153.45C244.53 154.008 241.818 154.286 239.1 154.28C232.255 154.276 225.525 152.521 219.55 149.18C212.018 145.091 206.022 138.66 202.47 130.86C201.686 129.177 201.018 127.443 200.47 125.67C200.36 125.31 200.25 124.95 200.16 124.58C200.07 124.21 199.96 123.86 199.87 123.5C199.78 123.14 199.7 122.79 199.62 122.43C199.54 122.07 199.47 121.71 199.4 121.34C199.33 120.97 199.27 120.62 199.21 120.25C199.15 119.88 199.09 119.53 199.04 119.16C199.04 119 199.04 118.83 198.99 118.67C198.983 118.656 198.979 118.641 198.979 118.625C198.979 118.609 198.983 118.594 198.99 118.58C198.983 118.568 198.979 118.554 198.979 118.54C198.979 118.526 198.983 118.512 198.99 118.5C198.985 118.489 198.983 118.477 198.983 118.465C198.983 118.453 198.985 118.441 198.99 118.43L189.11 118.32H188.68C188.692 118.349 188.713 118.374 188.74 118.39V118.39ZM209.35 118.64C209.345 118.666 209.345 118.694 209.35 118.72L209.41 119.18C209.41 119.54 209.51 119.89 209.58 120.25C209.65 120.61 209.71 120.97 209.79 121.32C209.87 121.67 209.95 122.05 210.05 122.41C210.15 122.77 210.23 123.13 210.34 123.48C210.45 123.83 210.55 124.2 210.67 124.55C210.79 124.9 210.91 125.26 211.05 125.61C211.19 125.96 211.32 126.34 211.47 126.7C211.62 127.06 211.81 127.52 212 127.92C214.741 133.923 219.36 138.872 225.16 142.02C229.763 144.616 234.956 145.986 240.24 146C242.597 146.002 244.947 145.726 247.24 145.18L247.74 145.06V118.59C243.127 118.59 238.82 118.59 234.82 118.59C227.753 118.59 219.59 118.553 210.33 118.48H209.33C209.325 118.491 209.323 118.503 209.323 118.515C209.323 118.527 209.325 118.539 209.33 118.55C209.33 118.55 209.35 118.62 209.35 118.64V118.64ZM168.14 118.14C168.135 118.173 168.135 118.207 168.14 118.24C168.135 118.276 168.135 118.314 168.14 118.35L168.2 118.85C168.195 118.91 168.195 118.97 168.2 119.03C168.2 119.4 168.28 119.77 168.34 120.14C168.4 120.51 168.44 120.87 168.5 121.24C168.56 121.61 168.62 121.99 168.68 122.36C169.703 128.317 171.516 134.112 174.07 139.59C180.095 152.776 190.25 163.64 203 170.54C213.086 176.176 224.446 179.14 236 179.15C239.773 179.154 243.54 178.84 247.26 178.21L247.76 178.13V169.88L247.26 169.97C233.978 172.312 220.294 169.999 208.52 163.42C201.036 159.281 194.541 153.565 189.485 146.666C184.429 139.768 180.933 131.853 179.24 123.47C179.16 123.1 179.09 122.74 179.02 122.37C178.95 122 178.89 121.64 178.83 121.27C178.77 120.9 178.71 120.55 178.67 120.18C178.63 119.81 178.56 119.45 178.52 119.08C178.515 119.04 178.515 119 178.52 118.96C178.49 118.795 178.469 118.628 178.46 118.46C178.455 118.427 178.455 118.393 178.46 118.36C178.46 118.27 178.46 118.27 178.46 118.18L168.24 118H168.13C168.116 118.046 168.12 118.096 168.14 118.14V118.14Z" fill="white"/>
<path d="M188.73 118.3C188.72 118.329 188.72 118.361 188.73 118.39C188.72 118.416 188.72 118.444 188.73 118.47C188.72 118.503 188.72 118.537 188.73 118.57C188.73 118.74 188.73 118.9 188.78 119.07C188.785 119.086 188.785 119.104 188.78 119.12C188.83 119.48 188.88 119.85 188.94 120.21C189 120.57 189.05 120.95 189.12 121.31C189.19 121.67 189.24 122.04 189.32 122.4C189.4 122.76 189.46 123.13 189.54 123.48C189.62 123.83 189.7 124.22 189.79 124.58C190.571 127.741 191.656 130.818 193.03 133.77C197.397 143.361 204.769 151.27 214.03 156.3C221.365 160.4 229.627 162.558 238.03 162.57C241.1 162.575 244.164 162.287 247.18 161.71C247.35 161.71 247.51 161.65 247.68 161.62V153.35L247.18 153.45C244.52 154.008 241.808 154.286 239.09 154.28C232.245 154.276 225.515 152.521 219.54 149.18C212.008 145.091 206.012 138.66 202.46 130.86C201.676 129.177 201.008 127.443 200.46 125.67C200.35 125.31 200.24 124.95 200.15 124.58C200.06 124.21 199.95 123.86 199.86 123.5C199.77 123.14 199.69 122.79 199.61 122.43C199.53 122.07 199.46 121.71 199.39 121.34C199.32 120.97 199.26 120.62 199.2 120.25C199.14 119.88 199.08 119.53 199.03 119.16C199.03 119 199.03 118.83 198.98 118.67C198.973 118.656 198.969 118.641 198.969 118.625C198.969 118.609 198.973 118.594 198.98 118.58C198.973 118.568 198.969 118.554 198.969 118.54C198.969 118.526 198.973 118.512 198.98 118.5C198.975 118.489 198.973 118.477 198.973 118.465C198.973 118.453 198.975 118.441 198.98 118.43C198.97 118.401 198.97 118.369 198.98 118.34L189 118.21H188.74C188.727 118.238 188.723 118.27 188.73 118.3V118.3ZM209.35 118.58C209.35 118.58 209.35 118.58 209.35 118.64C209.345 118.666 209.345 118.694 209.35 118.72L209.41 119.18C209.41 119.54 209.51 119.89 209.58 120.25C209.65 120.61 209.71 120.97 209.79 121.32C209.87 121.67 209.95 122.05 210.05 122.41C210.15 122.77 210.23 123.13 210.34 123.48C210.45 123.83 210.55 124.2 210.67 124.55C210.79 124.9 210.91 125.26 211.05 125.61C211.19 125.96 211.32 126.34 211.47 126.7C211.62 127.06 211.81 127.52 212 127.92C214.741 133.923 219.36 138.872 225.16 142.02C229.763 144.616 234.956 145.986 240.24 146C242.597 146.002 244.947 145.727 247.24 145.18L247.74 145.06V118.54C243.5 118.54 239.55 118.54 235.89 118.54C228.603 118.54 219.987 118.497 210.04 118.41H209.3C209.295 118.433 209.295 118.457 209.3 118.48C209.296 118.5 209.299 118.521 209.308 118.539C209.317 118.557 209.332 118.571 209.35 118.58V118.58ZM202.89 50.43C190.092 57.3856 179.94 68.3603 174 81.66C169.864 90.5235 167.701 100.179 167.66 109.96C167.656 112.596 167.8 115.23 168.09 117.85C168.08 117.91 168.08 117.97 168.09 118.03C168.08 118.066 168.08 118.104 168.09 118.14C168.085 118.173 168.085 118.207 168.09 118.24C168.085 118.276 168.085 118.314 168.09 118.35L168.15 118.85C168.145 118.91 168.145 118.97 168.15 119.03C168.15 119.4 168.23 119.77 168.29 120.14C168.35 120.51 168.39 120.87 168.45 121.24C168.51 121.61 168.57 121.99 168.63 122.36C169.653 128.317 171.466 134.112 174.02 139.59C180.058 152.783 190.232 163.649 203 170.54C213.086 176.176 224.446 179.14 236 179.15C239.773 179.154 243.54 178.84 247.26 178.21L247.76 178.13V169.88L247.26 169.97C233.978 172.312 220.294 169.999 208.52 163.42C201.036 159.281 194.541 153.565 189.485 146.666C184.429 139.768 180.933 131.853 179.24 123.47C179.16 123.1 179.09 122.74 179.02 122.37C178.95 122 178.89 121.64 178.83 121.27C178.77 120.9 178.71 120.55 178.67 120.18C178.63 119.81 178.56 119.45 178.52 119.08C178.515 119.04 178.515 119 178.52 118.96C178.49 118.795 178.469 118.628 178.46 118.46C178.455 118.427 178.455 118.393 178.46 118.36C178.46 118.27 178.46 118.27 178.46 118.18C178.449 118.148 178.449 118.112 178.46 118.08L174 118C173.995 117.97 173.995 117.94 174 117.91C173.623 115.72 173.435 113.502 173.44 111.28C173.41 101.623 175.546 92.0825 179.69 83.36C185.061 71.6869 194.057 62.0595 205.34 55.91C214.698 50.6512 225.266 47.9247 236 48C239.946 47.9684 243.886 48.3031 247.77 49V42.78C243.948 42.1232 240.078 41.7887 236.2 41.78C224.536 41.7396 213.06 44.7196 202.89 50.43V50.43Z" fill="white"/>
<path d="M188.72 118.21C188.72 118.3 188.72 118.3 188.72 118.39C188.71 118.416 188.71 118.444 188.72 118.47C188.71 118.503 188.71 118.537 188.72 118.57C188.72 118.74 188.72 118.9 188.77 119.07C188.775 119.086 188.775 119.104 188.77 119.12C188.82 119.48 188.87 119.85 188.93 120.21C188.99 120.57 189.04 120.95 189.11 121.31C189.18 121.67 189.23 122.04 189.31 122.4C189.39 122.76 189.45 123.13 189.53 123.48C189.61 123.83 189.69 124.22 189.78 124.58C190.561 127.741 191.646 130.818 193.02 133.77C197.387 143.361 204.759 151.27 214.02 156.3C221.355 160.4 229.617 162.558 238.02 162.57C241.09 162.575 244.154 162.287 247.17 161.71C247.34 161.71 247.5 161.65 247.67 161.62V153.35L247.17 153.45C244.51 154.008 241.798 154.286 239.08 154.28C232.235 154.276 225.505 152.521 219.53 149.18C211.998 145.091 206.002 138.66 202.45 130.86C201.666 129.177 200.998 127.443 200.45 125.67C200.34 125.31 200.23 124.95 200.14 124.58C200.05 124.21 199.94 123.86 199.85 123.5C199.76 123.14 199.68 122.79 199.6 122.43C199.52 122.07 199.45 121.71 199.38 121.34C199.31 120.97 199.25 120.62 199.19 120.25C199.13 119.88 199.07 119.53 199.02 119.16C199.02 119 199.02 118.83 198.97 118.67C198.963 118.656 198.959 118.641 198.959 118.625C198.959 118.609 198.963 118.594 198.97 118.58C198.963 118.568 198.959 118.554 198.959 118.54C198.959 118.526 198.963 118.512 198.97 118.5C198.965 118.489 198.963 118.477 198.963 118.465C198.963 118.453 198.965 118.441 198.97 118.43C198.96 118.401 198.96 118.369 198.97 118.34C198.96 118.314 198.96 118.286 198.97 118.26L188.77 118.13H188.66C188.669 118.163 188.691 118.192 188.72 118.21V118.21ZM209.34 118.51C209.335 118.521 209.333 118.533 209.333 118.545C209.333 118.557 209.335 118.569 209.34 118.58C209.34 118.58 209.34 118.58 209.34 118.64C209.335 118.666 209.335 118.694 209.34 118.72L209.4 119.18C209.4 119.54 209.5 119.89 209.57 120.25C209.64 120.61 209.7 120.97 209.78 121.32C209.86 121.67 209.94 122.05 210.04 122.41C210.14 122.77 210.22 123.13 210.33 123.48C210.44 123.83 210.54 124.2 210.66 124.55C210.78 124.9 210.9 125.26 211.04 125.61C211.18 125.96 211.31 126.34 211.46 126.7C211.61 127.06 211.8 127.52 211.99 127.92C214.731 133.923 219.35 138.872 225.15 142.02C229.756 144.617 234.952 145.988 240.24 146C242.597 146.002 244.947 145.726 247.24 145.18L247.74 145.06V118.5H236.96C229.5 118.5 220.44 118.443 209.78 118.33H209.29C209.285 118.356 209.285 118.384 209.29 118.41C209.295 118.448 209.313 118.483 209.34 118.51Z" fill="white"/>
<path d="M214 68.88C204.697 73.9491 197.318 81.9356 193 91.61C189.987 98.0613 188.411 105.09 188.38 112.21C188.38 114.168 188.487 116.124 188.7 118.07C188.695 118.086 188.695 118.104 188.7 118.12C188.7 118.21 188.7 118.21 188.7 118.3C188.69 118.329 188.69 118.361 188.7 118.39C188.69 118.416 188.69 118.444 188.7 118.47C188.69 118.503 188.69 118.537 188.7 118.57C188.7 118.74 188.7 118.9 188.75 119.07C188.755 119.086 188.755 119.104 188.75 119.12C188.8 119.48 188.85 119.85 188.91 120.21C188.97 120.57 189.02 120.95 189.09 121.31C189.16 121.67 189.21 122.04 189.29 122.4C189.37 122.76 189.43 123.13 189.51 123.48C189.59 123.83 189.67 124.22 189.76 124.58C190.541 127.741 191.626 130.818 193 133.77C197.367 143.361 204.739 151.27 214 156.3C221.335 160.4 229.597 162.558 238 162.57C241.07 162.575 244.134 162.287 247.15 161.71C247.32 161.71 247.48 161.65 247.65 161.62V153.35L247.15 153.45C244.49 154.008 241.778 154.286 239.06 154.28C232.215 154.276 225.485 152.521 219.51 149.18C211.978 145.091 205.982 138.66 202.43 130.86C201.646 129.177 200.978 127.443 200.43 125.67C200.32 125.31 200.21 124.95 200.12 124.58C200.03 124.21 199.92 123.86 199.83 123.5C199.74 123.14 199.66 122.79 199.58 122.43C199.5 122.07 199.43 121.71 199.36 121.34C199.29 120.97 199.23 120.62 199.17 120.25C199.11 119.88 199.05 119.53 199 119.16C199 119 199 118.83 198.95 118.67C198.943 118.656 198.939 118.641 198.939 118.625C198.939 118.609 198.943 118.594 198.95 118.58C198.943 118.568 198.939 118.554 198.939 118.54C198.939 118.526 198.943 118.512 198.95 118.5C198.945 118.489 198.943 118.477 198.943 118.465C198.943 118.453 198.945 118.441 198.95 118.43C198.94 118.401 198.94 118.369 198.95 118.34C198.94 118.314 198.94 118.286 198.95 118.26C198.94 118.231 198.94 118.199 198.95 118.17L192.95 118.09C192.672 116.472 192.535 114.832 192.54 113.19C192.519 106.163 194.07 99.2201 197.08 92.87C200.987 84.3664 207.535 77.3516 215.75 72.87C222.559 69.0308 230.253 67.035 238.07 67.08C241.313 67.0738 244.547 67.409 247.72 68.08V63.5C244.586 62.9005 241.401 62.6025 238.21 62.61C229.735 62.5794 221.395 64.7392 214 68.88V68.88ZM209.32 118.44C209.315 118.463 209.315 118.487 209.32 118.51C209.315 118.521 209.313 118.533 209.313 118.545C209.313 118.557 209.315 118.569 209.32 118.58C209.32 118.58 209.32 118.58 209.32 118.64C209.315 118.666 209.315 118.694 209.32 118.72L209.38 119.18C209.38 119.54 209.48 119.89 209.55 120.25C209.62 120.61 209.68 120.97 209.76 121.32C209.84 121.67 209.92 122.05 210.02 122.41C210.12 122.77 210.2 123.13 210.31 123.48C210.42 123.83 210.52 124.2 210.64 124.55C210.76 124.9 210.88 125.26 211.02 125.61C211.16 125.96 211.29 126.34 211.44 126.7C211.59 127.06 211.78 127.52 211.97 127.92C214.711 133.923 219.33 138.872 225.13 142.02C229.742 144.621 234.945 145.991 240.24 146C242.597 146.002 244.947 145.726 247.24 145.18L247.74 145.06V118.44C244.23 118.44 241 118.44 238.03 118.44C230.477 118.44 220.99 118.377 209.57 118.25H209.28C209.275 118.273 209.275 118.297 209.28 118.32C209.284 118.364 209.302 118.406 209.33 118.44H209.32Z" fill="white"/>
<path d="M209.3 118.22C209.3 118.29 209.3 118.29 209.3 118.36C209.295 118.386 209.295 118.414 209.3 118.44C209.295 118.463 209.295 118.487 209.3 118.51C209.295 118.521 209.293 118.533 209.293 118.545C209.293 118.557 209.295 118.569 209.3 118.58C209.3 118.58 209.3 118.58 209.3 118.64C209.295 118.666 209.295 118.694 209.3 118.72L209.36 119.18C209.36 119.54 209.46 119.89 209.53 120.25C209.6 120.61 209.66 120.97 209.74 121.32C209.82 121.67 209.9 122.05 210 122.41C210.1 122.77 210.18 123.13 210.29 123.48C210.4 123.83 210.5 124.2 210.62 124.55C210.74 124.9 210.86 125.26 211 125.61C211.14 125.96 211.27 126.34 211.42 126.7C211.57 127.06 211.76 127.52 211.95 127.92C214.691 133.923 219.31 138.872 225.11 142.02C229.728 144.624 234.939 145.995 240.24 146C242.597 146.002 244.947 145.726 247.24 145.18L247.74 145.06V118.4H239.09C233.15 118.4 225.73 118.347 216.83 118.24H216.05L209.39 118.16H209.27C209.27 118.16 209.3 118.21 209.3 118.22Z" fill="white"/>
<path d="M225.14 87.32C219.319 90.4993 214.702 95.5023 212 101.56C210.118 105.598 209.132 109.995 209.11 114.45C209.109 115.696 209.179 116.942 209.32 118.18C209.32 118.18 209.32 118.18 209.32 118.18C209.32 118.25 209.32 118.25 209.32 118.32C209.315 118.346 209.315 118.374 209.32 118.4C209.315 118.423 209.315 118.447 209.32 118.47C209.315 118.481 209.313 118.493 209.313 118.505C209.313 118.517 209.315 118.529 209.32 118.54C209.32 118.54 209.32 118.54 209.32 118.6C209.315 118.626 209.315 118.654 209.32 118.68L209.38 119.14C209.38 119.5 209.48 119.85 209.55 120.21C209.62 120.57 209.68 120.93 209.76 121.28C209.84 121.63 209.92 122.01 210.02 122.37C210.12 122.73 210.2 123.09 210.31 123.44C210.42 123.79 210.52 124.16 210.64 124.51C210.76 124.86 210.88 125.22 211.02 125.57C211.16 125.92 211.29 126.3 211.44 126.66C211.59 127.02 211.78 127.48 211.97 127.88C214.711 133.883 219.33 138.832 225.13 141.98C229.738 144.594 234.942 145.979 240.24 146C242.597 146.002 244.947 145.727 247.24 145.18L247.74 145.06V118.36H240.16C236.367 118.36 231.79 118.33 226.43 118.27H226.18C221.92 118.23 217.177 118.173 211.95 118.1C211.778 117.089 211.691 116.065 211.69 115.04C211.677 110.637 212.651 106.287 214.54 102.31C216.992 96.9927 221.091 92.6063 226.23 89.8C230.502 87.3962 235.328 86.1484 240.23 86.18C242.773 86.1784 245.305 86.5146 247.76 87.18V84.28C240.107 82.4094 232.031 83.4801 225.13 87.28L225.14 87.32Z" fill="white"/>
<path d="M100.23 118.09H100L89.93 118.23C89.93 118.4 89.93 118.56 89.93 118.73V119C89.93 119.37 89.84 119.74 89.79 120.11C89.74 120.48 89.68 120.86 89.62 121.23C88.5281 128.591 86.3757 135.756 83.23 142.5C76.4028 157.47 64.8899 169.811 50.43 177.66C35.2605 186.155 17.6596 189.257 0.499998 186.46L-2.13645e-06 186.38V194.62L0.499998 194.7C4.92342 195.385 9.39396 195.719 13.87 195.7C28.5797 195.681 43.0393 191.894 55.87 184.7C72.062 175.911 84.9544 162.092 92.6 145.33C96.3368 137.342 98.8322 128.831 100 120.09C100.05 119.72 100.1 119.34 100.14 118.96C100.14 118.84 100.14 118.71 100.14 118.59L100.23 118.09ZM59 118.57H57.94L48.7 118.65C48.7 118.81 48.7 118.98 48.65 119.14C48.65 119.51 48.54 119.87 48.48 120.23C48.42 120.59 48.36 120.96 48.29 121.32C48.22 121.68 48.15 122.05 48.07 122.41C47.99 122.77 47.91 123.13 47.82 123.48C47.73 123.83 47.64 124.2 47.53 124.56C47.42 124.92 47.33 125.29 47.22 125.65C46.672 127.423 46.0038 129.157 45.22 130.84C41.6679 138.64 35.6722 145.071 28.14 149.16C22.1654 152.501 15.4351 154.256 8.59 154.26C5.87178 154.266 3.16037 153.988 0.499998 153.43L-2.13645e-06 153.33V161.6C0.169998 161.6 0.329998 161.67 0.499998 161.69C3.51568 162.267 6.57958 162.555 9.65 162.55C18.0535 162.538 26.3146 160.38 33.65 156.28C42.9111 151.25 50.2826 143.341 54.65 133.75C56.0241 130.798 57.1092 127.721 57.89 124.56C57.98 124.2 58.06 123.83 58.14 123.46C58.22 123.09 58.29 122.74 58.36 122.38C58.43 122.02 58.51 121.66 58.56 121.29C58.61 120.92 58.69 120.56 58.74 120.19C58.79 119.82 58.85 119.46 58.9 119.1C58.8953 119.084 58.8953 119.066 58.9 119.05C59 118.9 59 118.74 59 118.57ZM38.34 119.18L38.4 118.72H36.27C28.9367 118.76 22.23 118.78 16.15 118.78C11.1233 118.78 5.73666 118.78 -0.0100021 118.78V145.07L0.489998 145.19C2.78317 145.737 5.1326 146.012 7.49 146.01C12.7633 146.008 17.9481 144.655 22.55 142.08C28.3617 138.944 32.9949 134.002 35.75 128C35.94 127.6 36.11 127.19 36.28 126.78C36.45 126.37 36.57 126.06 36.7 125.69C36.83 125.32 36.97 124.99 37.08 124.63C37.19 124.27 37.31 123.92 37.41 123.56C37.51 123.2 37.62 122.85 37.7 122.49C37.78 122.13 37.88 121.77 37.96 121.4C38.04 121.03 38.11 120.69 38.17 120.33C38.23 119.97 38.3 119.62 38.34 119.26C38.3513 119.25 38.3586 119.237 38.3604 119.222C38.3623 119.207 38.3586 119.192 38.35 119.18H38.34ZM79.6 118.35H79.04L69.3 118.45C69.2905 118.618 69.2705 118.785 69.24 118.95C69.2449 118.99 69.2449 119.03 69.24 119.07C69.24 119.44 69.15 119.81 69.09 120.17C69.03 120.53 68.99 120.9 68.93 121.26C68.87 121.62 68.81 121.99 68.74 122.36C68.67 122.73 68.6 123.09 68.52 123.46C67.6105 128.022 66.1532 132.457 64.18 136.67C58.9885 148.053 50.2347 157.439 39.24 163.41C27.4709 170.002 13.7869 172.33 0.499998 170L-2.13645e-06 169.91V178.16L0.499998 178.24C4.22017 178.87 7.98689 179.184 11.76 179.18C23.3141 179.17 34.6738 176.206 44.76 170.57C57.4873 163.66 67.6207 152.796 73.63 139.62C76.1839 134.142 77.9965 128.347 79.02 122.39C79.08 122.02 79.15 121.65 79.2 121.27C79.25 120.89 79.32 120.54 79.36 120.17C79.4 119.8 79.47 119.43 79.5 119.06C79.5049 119 79.5049 118.94 79.5 118.88L79.6 118.35ZM15.72 1.9134e-06C10.4592 -0.00501907 5.20506 0.376004 -2.13645e-06 1.14V10.81C2.06 10.46 4.13 10.2 6.22 10C6.61 9.95 6.99 9.92 7.37 9.9C10.22 9.64 13.1 9.52 16.01 9.52C32.6318 9.42269 48.991 13.6659 63.47 21.83C80.9355 31.3416 94.8605 46.2416 103.17 64.31C109.582 77.8098 112.886 92.575 112.84 107.52C112.839 111.005 112.545 114.484 111.96 117.92H110.54L110.48 118.42L110.42 118.92C109.233 129.095 106.424 139.014 102.1 148.3C93.12 167.433 79.5667 181.967 61.44 191.9C47.2242 199.839 31.2122 204.004 14.93 204C10.0996 204.016 5.27518 203.658 0.499998 202.93L-2.13645e-06 202.86V211.33C23.1009 214.884 46.7271 210.622 67.13 199.22C87.0633 188.28 101.957 172.313 111.81 151.32C118.486 136.962 121.902 121.304 121.81 105.47C121.745 90.3324 118.398 75.389 112 61.67C102.799 41.0876 87.0854 24.1019 67.28 13.33C51.5323 4.51011 33.7692 -0.0822322 15.72 1.9134e-06V1.9134e-06Z" fill="white"/>
<path d="M59.07 118.07H57.94L48.76 118.15C48.7699 118.179 48.7699 118.211 48.76 118.24C48.77 118.266 48.77 118.294 48.76 118.32C48.7699 118.349 48.7699 118.381 48.76 118.41C48.7647 118.421 48.7671 118.433 48.7671 118.445C48.7671 118.457 48.7647 118.469 48.76 118.48C48.767 118.492 48.7707 118.506 48.7707 118.52C48.7707 118.534 48.767 118.548 48.76 118.56C48.767 118.574 48.7707 118.589 48.7707 118.605C48.7707 118.621 48.767 118.636 48.76 118.65C48.76 118.81 48.76 118.98 48.71 119.14L58 119.06H59C59 118.89 59 118.73 59 118.56C59.01 118.527 59.01 118.493 59 118.46C59.01 118.434 59.01 118.406 59 118.38C59.0099 118.351 59.0099 118.319 59 118.29C58.9998 118.2 58.9998 118.2 58.9998 118.11C59.014 118.109 59.0276 118.105 59.0397 118.098C59.0519 118.091 59.0622 118.082 59.07 118.07V118.07ZM0 169.88V178.13L0.5 178.21V170L0 169.88ZM38.47 118.22H36.28H31.69H30.91H21.56H21.31C15.9767 118.28 11.4 118.31 7.58 118.31H0V145.01L0.5 145.13V119.26C6.06 119.26 11.28 119.26 16.16 119.26C22.2667 119.26 28.9733 119.24 36.28 119.2H38.34L38.4 118.74C38.4049 118.714 38.4049 118.686 38.4 118.66C38.4 118.66 38.4 118.66 38.4 118.6C38.4047 118.589 38.4071 118.577 38.4071 118.565C38.4071 118.553 38.4047 118.541 38.4 118.53C38.4049 118.507 38.4049 118.483 38.4 118.46C38.4049 118.434 38.4049 118.406 38.4 118.38C38.3999 118.31 38.3999 118.31 38.3999 118.24L38.47 118.22ZM0.5 153.45L0 153.35V161.62C0.17 161.62 0.33 161.69 0.5 161.71V153.45ZM0 186.38V194.62L0.5 194.7V186.46L0 186.38ZM15.72 1.9134e-06C10.4592 -0.00501907 5.20506 0.376004 0 1.14L0 10.81C2.06 10.46 4.13 10.2 6.22 10C6.61 9.95 6.99 9.92 7.37 9.9C10.22 9.64 13.1 9.52 16.01 9.52C32.6318 9.42269 48.991 13.6659 63.47 21.83C80.9355 31.3416 94.8605 46.2416 103.17 64.31C109.582 77.8098 112.886 92.575 112.84 107.52C112.839 111.005 112.545 114.484 111.96 117.92H110.54L110.48 118.42H111.97H112.38L112.45 118.01C113.04 114.548 113.338 111.042 113.34 107.53C113.37 92.5138 110.05 77.6801 103.62 64.11C95.2463 45.9557 81.2535 30.9776 63.71 21.39C49.149 13.1956 32.7083 8.92601 16 9C13 9 10.1 9.13 7.31 9.38C6.94 9.38 6.55 9.38 6.15 9.48C4.15 9.68 2.27 9.91 0.49 10.2V1.57C5.53503 0.854099 10.6244 0.496537 15.72 0.500002C33.6695 0.444082 51.3307 5.01435 67 13.77C76.7527 19.1054 85.5824 25.9767 93.15 34.12C100.704 42.3405 106.902 51.7111 111.51 61.88C117.858 75.5398 121.187 90.4074 121.27 105.47C121.355 121.226 117.971 136.808 111.36 151.11C102.079 171.389 86.476 188.114 66.89 198.78C51.3317 207.46 33.816 212.028 16 212.05C10.8121 212.048 5.6314 211.664 0.5 210.9V202.9L0 202.83V211.3C23.1009 214.854 46.7271 210.592 67.13 199.19C87.0633 188.25 101.957 172.283 111.81 151.29C118.486 136.932 121.902 121.274 121.81 105.44C121.741 90.3126 118.394 75.3798 112 61.67C102.799 41.0876 87.0854 24.1019 67.28 13.33C51.5323 4.51011 33.7692 -0.0822322 15.72 1.9134e-06V1.9134e-06ZM79.66 117.85H77.94H73.76C73.7649 117.88 73.7649 117.91 73.76 117.94L69.36 118.01C69.3707 118.042 69.3707 118.078 69.36 118.11C69.3599 118.2 69.3599 118.2 69.3599 118.29C69.3654 118.323 69.3654 118.357 69.36 118.39C69.3505 118.558 69.3305 118.725 69.3 118.89L78.01 118.8H79.6L79.66 118.3C79.6655 118.264 79.6655 118.226 79.66 118.19C79.6654 118.157 79.6654 118.123 79.66 118.09C79.6703 118.054 79.6703 118.016 79.66 117.98C79.6651 117.937 79.6651 117.893 79.66 117.85ZM100.29 117.59H98.9L92.78 117.67C92.78 117.76 92.78 117.84 92.78 117.93L90 118C90.0055 118.036 90.0055 118.074 90 118.11C90.0097 118.149 90.0097 118.191 90 118.23C90 118.4 90 118.56 90 118.73L99 118.61H100.26L100.32 118.11C100.32 118.11 100.32 118.02 100.32 117.98C100.32 117.94 100.27 117.71 100.29 117.59V117.59Z" fill="white"/>
<path d="M100.23 118.09H100L89.93 118.23C89.93 118.4 89.93 118.56 89.93 118.73V119C89.93 119.37 89.84 119.74 89.79 120.11C89.74 120.48 89.68 120.86 89.62 121.23C88.5281 128.591 86.3757 135.756 83.23 142.5C76.4028 157.47 64.8899 169.811 50.43 177.66C35.2605 186.155 17.6596 189.257 0.499998 186.46L-2.13645e-06 186.38V194.62L0.499998 194.7C4.92342 195.385 9.39396 195.719 13.87 195.7C28.5797 195.681 43.0393 191.894 55.87 184.7C72.062 175.911 84.9544 162.092 92.6 145.33C96.3368 137.342 98.8322 128.831 100 120.09C100.05 119.72 100.1 119.34 100.14 118.96C100.14 118.84 100.14 118.71 100.14 118.59L100.23 118.09ZM59 118.57H57.94L48.7 118.65C48.7 118.81 48.7 118.98 48.65 119.14C48.65 119.51 48.54 119.87 48.48 120.23C48.42 120.59 48.36 120.96 48.29 121.32C48.22 121.68 48.15 122.05 48.07 122.41C47.99 122.77 47.91 123.13 47.82 123.48C47.73 123.83 47.64 124.2 47.53 124.56C47.42 124.92 47.33 125.29 47.22 125.65C46.672 127.423 46.0038 129.157 45.22 130.84C41.6679 138.64 35.6722 145.071 28.14 149.16C22.1654 152.501 15.4351 154.256 8.59 154.26C5.87178 154.266 3.16037 153.988 0.499998 153.43L-2.13645e-06 153.33V161.6C0.169998 161.6 0.329998 161.67 0.499998 161.69C3.51568 162.267 6.57958 162.555 9.65 162.55C18.0535 162.538 26.3146 160.38 33.65 156.28C42.9111 151.25 50.2826 143.341 54.65 133.75C56.0241 130.798 57.1092 127.721 57.89 124.56C57.98 124.2 58.06 123.83 58.14 123.46C58.22 123.09 58.29 122.74 58.36 122.38C58.43 122.02 58.51 121.66 58.56 121.29C58.61 120.92 58.69 120.56 58.74 120.19C58.79 119.82 58.85 119.46 58.9 119.1C58.8953 119.084 58.8953 119.066 58.9 119.05C59 118.9 59 118.74 59 118.57ZM38.34 119.18L38.4 118.72H36.27C28.9367 118.76 22.23 118.78 16.15 118.78C11.1233 118.78 5.73666 118.78 -0.0100021 118.78V145.07L0.489998 145.19C2.78317 145.737 5.1326 146.012 7.49 146.01C12.7633 146.008 17.9481 144.655 22.55 142.08C28.3617 138.944 32.9949 134.002 35.75 128C35.94 127.6 36.11 127.19 36.28 126.78C36.45 126.37 36.57 126.06 36.7 125.69C36.83 125.32 36.97 124.99 37.08 124.63C37.19 124.27 37.31 123.92 37.41 123.56C37.51 123.2 37.62 122.85 37.7 122.49C37.78 122.13 37.88 121.77 37.96 121.4C38.04 121.03 38.11 120.69 38.17 120.33C38.23 119.97 38.3 119.62 38.34 119.26C38.3513 119.25 38.3586 119.237 38.3604 119.222C38.3623 119.207 38.3586 119.192 38.35 119.18H38.34ZM79.6 118.35H79.04L69.3 118.45C69.2905 118.618 69.2705 118.785 69.24 118.95C69.2449 118.99 69.2449 119.03 69.24 119.07C69.24 119.44 69.15 119.81 69.09 120.17C69.03 120.53 68.99 120.9 68.93 121.26C68.87 121.62 68.81 121.99 68.74 122.36C68.67 122.73 68.6 123.09 68.52 123.46C67.6105 128.022 66.1532 132.457 64.18 136.67C58.9885 148.053 50.2347 157.439 39.24 163.41C27.4709 170.002 13.7869 172.33 0.499998 170L-2.13645e-06 169.91V178.16L0.499998 178.24C4.22017 178.87 7.98689 179.184 11.76 179.18C23.3141 179.17 34.6738 176.206 44.76 170.57C57.4873 163.66 67.6207 152.796 73.63 139.62C76.1839 134.142 77.9965 128.347 79.02 122.39C79.08 122.02 79.15 121.65 79.2 121.27C79.25 120.89 79.32 120.54 79.36 120.17C79.4 119.8 79.47 119.43 79.5 119.06C79.5049 119 79.5049 118.94 79.5 118.88L79.6 118.35ZM15.72 1.9134e-06C10.4592 -0.00501907 5.20506 0.376004 -2.13645e-06 1.14V10.81C2.06 10.46 4.13 10.2 6.22 10C6.61 9.95 6.99 9.92 7.37 9.9C10.22 9.64 13.1 9.52 16.01 9.52C32.6318 9.42269 48.991 13.6659 63.47 21.83C80.9355 31.3416 94.8605 46.2416 103.17 64.31C109.582 77.8098 112.886 92.575 112.84 107.52C112.839 111.005 112.545 114.484 111.96 117.92H110.54L110.48 118.42L110.42 118.92C109.233 129.095 106.424 139.014 102.1 148.3C93.12 167.433 79.5667 181.967 61.44 191.9C47.2242 199.839 31.2122 204.004 14.93 204C10.0996 204.016 5.27518 203.658 0.499998 202.93L-2.13645e-06 202.86V211.33C23.1009 214.884 46.7271 210.622 67.13 199.22C87.0633 188.28 101.957 172.313 111.81 151.32C118.486 136.962 121.902 121.304 121.81 105.47C121.745 90.3324 118.398 75.389 112 61.67C102.799 41.0876 87.0854 24.1019 67.28 13.33C51.5323 4.51011 33.7692 -0.0822322 15.72 1.9134e-06V1.9134e-06Z" fill="white"/>
<path d="M100.25 118H100.13L89.94 118.15C89.9497 118.189 89.9497 118.231 89.94 118.27C89.94 118.44 89.94 118.6 89.94 118.77V119.04C89.94 119.41 89.85 119.78 89.8 120.15C89.75 120.52 89.69 120.9 89.63 121.27C88.5381 128.631 86.3857 135.796 83.24 142.54C76.4128 157.51 64.8999 169.851 50.44 177.7C35.2628 186.183 17.6583 189.271 0.499998 186.46L-2.13645e-06 186.38V194.62L0.499998 194.7C4.92342 195.385 9.39396 195.719 13.87 195.7C28.5797 195.681 43.0393 191.894 55.87 184.7C72.062 175.911 84.9544 162.092 92.6 145.33C96.3368 137.342 98.8322 128.831 100 120.09C100.05 119.72 100.1 119.34 100.14 118.96C100.14 118.84 100.14 118.71 100.14 118.59L100.2 118.09C100.2 118.09 100.24 118 100.25 118ZM59 118.47H58.17L48.69 118.56C48.697 118.574 48.7007 118.589 48.7007 118.605C48.7007 118.621 48.697 118.636 48.69 118.65C48.69 118.81 48.69 118.98 48.64 119.14C48.64 119.51 48.53 119.87 48.47 120.23C48.41 120.59 48.35 120.96 48.28 121.32C48.21 121.68 48.14 122.05 48.06 122.41C47.98 122.77 47.9 123.13 47.81 123.48C47.72 123.83 47.63 124.2 47.52 124.56C47.41 124.92 47.32 125.29 47.21 125.65C46.662 127.423 45.9938 129.157 45.21 130.84C41.6579 138.64 35.6622 145.071 28.13 149.16C22.1554 152.501 15.4251 154.256 8.58 154.26C5.86178 154.266 3.15037 153.988 0.489998 153.43L-0.0100021 153.33V161.6C0.159998 161.6 0.319998 161.67 0.489998 161.69C3.50568 162.267 6.56958 162.555 9.64 162.55C18.0435 162.538 26.3046 160.38 33.64 156.28C42.9011 151.25 50.2726 143.341 54.64 133.75C56.0141 130.798 57.0992 127.721 57.88 124.56C57.97 124.2 58.05 123.83 58.13 123.46C58.21 123.09 58.28 122.74 58.35 122.38C58.42 122.02 58.5 121.66 58.55 121.29C58.6 120.92 58.68 120.56 58.73 120.19C58.78 119.82 58.84 119.46 58.89 119.1C58.8853 119.084 58.8853 119.066 58.89 119.05C58.89 118.88 58.89 118.72 58.89 118.55C58.9129 118.545 58.9344 118.535 58.9533 118.521C58.9723 118.508 58.9882 118.49 59 118.47ZM38.39 118.72C38.3949 118.694 38.3949 118.666 38.39 118.64H36.7C28.7467 118.687 21.5333 118.713 15.06 118.72C10.3933 118.72 5.37333 118.72 -2.13645e-06 118.72V145.08L0.499998 145.2C2.79317 145.747 5.1426 146.022 7.5 146.02C12.7733 146.018 17.9581 144.665 22.56 142.09C28.3695 138.95 32.9993 134.004 35.75 128C35.94 127.6 36.11 127.19 36.28 126.78C36.45 126.37 36.57 126.06 36.7 125.69C36.83 125.32 36.97 124.99 37.08 124.63C37.19 124.27 37.31 123.92 37.41 123.56C37.51 123.2 37.62 122.85 37.7 122.49C37.78 122.13 37.88 121.77 37.96 121.4C38.04 121.03 38.11 120.69 38.17 120.33C38.23 119.97 38.3 119.62 38.34 119.26L38.39 118.72ZM79.6 118.24H79.21L69.3 118.36C69.3054 118.393 69.3054 118.427 69.3 118.46C69.2905 118.628 69.2705 118.795 69.24 118.96C69.2449 119 69.2449 119.04 69.24 119.08C69.24 119.45 69.15 119.82 69.09 120.18C69.03 120.54 68.99 120.91 68.93 121.27C68.87 121.63 68.81 122 68.74 122.37C68.67 122.74 68.6 123.1 68.52 123.47C67.6105 128.032 66.1532 132.467 64.18 136.68C58.9885 148.063 50.2347 157.449 39.24 163.42C27.4697 170.009 13.7858 172.333 0.499998 170L-2.13645e-06 169.91V178.16L0.499998 178.24C4.22017 178.87 7.98689 179.184 11.76 179.18C23.3141 179.17 34.6738 176.206 44.76 170.57C57.4873 163.66 67.6207 152.796 73.63 139.62C76.1839 134.142 77.9965 128.347 79.02 122.39C79.08 122.02 79.15 121.65 79.2 121.27C79.25 120.89 79.32 120.54 79.36 120.17C79.4 119.8 79.47 119.43 79.5 119.06C79.5049 119 79.5049 118.94 79.5 118.88L79.56 118.38C79.5895 118.338 79.6099 118.29 79.62 118.24H79.6Z" fill="white"/>
<path d="M13.63 21C9.06552 21.0057 4.50842 21.3668 -2.13645e-06 22.08V30.08C4.58068 29.2876 9.22129 28.8928 13.87 28.9C27.5303 28.8177 40.976 32.2989 52.88 39C67.2289 46.8142 78.6727 59.0507 85.51 73.89C90.7804 84.9874 93.497 97.1248 93.46 109.41C93.4605 112.184 93.233 114.953 92.78 117.69C92.78 117.78 92.78 117.86 92.78 117.95L90 118C90.0055 118.036 90.0055 118.074 90 118.11C90.0097 118.149 90.0097 118.191 90 118.23C90 118.4 90 118.56 90 118.73V119C90 119.37 89.91 119.74 89.86 120.11C89.81 120.48 89.75 120.86 89.69 121.23C88.5981 128.591 86.4457 135.756 83.3 142.5C76.4728 157.47 64.9599 169.811 50.5 177.66C35.3106 186.17 17.6823 189.273 0.499998 186.46L-2.13645e-06 186.38V194.62L0.499998 194.7C4.92342 195.385 9.39396 195.719 13.87 195.7C28.5797 195.681 43.0393 191.894 55.87 184.7C72.062 175.911 84.9544 162.092 92.6 145.33C96.3368 137.342 98.8322 128.831 100 120.09C100.05 119.72 100.1 119.34 100.14 118.96C100.14 118.84 100.14 118.71 100.14 118.59L100.2 118.09C100.2 118.09 100.2 118 100.2 117.96C100.2 117.92 100.2 117.71 100.2 117.59C100.542 114.311 100.712 111.017 100.71 107.72C100.659 95.2782 97.9091 82.9957 92.65 71.72C85.1123 54.824 72.2364 40.8696 56 32C43.0619 24.7401 28.4657 20.9507 13.63 21V21ZM59 118.39H58.38L48.69 118.48C48.697 118.492 48.7007 118.506 48.7007 118.52C48.7007 118.534 48.697 118.548 48.69 118.56C48.697 118.574 48.7007 118.589 48.7007 118.605C48.7007 118.621 48.697 118.636 48.69 118.65C48.69 118.81 48.69 118.98 48.64 119.14C48.64 119.51 48.53 119.87 48.47 120.23C48.41 120.59 48.35 120.96 48.28 121.32C48.21 121.68 48.14 122.05 48.06 122.41C47.98 122.77 47.9 123.13 47.81 123.48C47.72 123.83 47.63 124.2 47.52 124.56C47.41 124.92 47.32 125.29 47.21 125.65C46.662 127.423 45.9938 129.157 45.21 130.84C41.6579 138.64 35.6622 145.071 28.13 149.16C22.1554 152.501 15.4251 154.256 8.58 154.26C5.86178 154.266 3.15037 153.988 0.489998 153.43L-0.0100021 153.33V161.6C0.159998 161.6 0.319998 161.67 0.489998 161.69C3.50568 162.267 6.56958 162.555 9.64 162.55C18.0435 162.538 26.3046 160.38 33.64 156.28C42.9011 151.25 50.2726 143.341 54.64 133.75C56.0141 130.798 57.0992 127.721 57.88 124.56C57.97 124.2 58.05 123.83 58.13 123.46C58.21 123.09 58.28 122.74 58.35 122.38C58.42 122.02 58.5 121.66 58.55 121.29C58.6 120.92 58.68 120.56 58.73 120.19C58.78 119.82 58.84 119.46 58.89 119.1C58.8853 119.084 58.8853 119.066 58.89 119.05C58.89 118.88 58.89 118.72 58.89 118.55C58.9 118.517 58.9 118.483 58.89 118.45C58.9123 118.452 58.9347 118.448 58.9544 118.437C58.974 118.426 58.9899 118.41 59 118.39V118.39ZM38.39 118.64C38.39 118.64 38.39 118.64 38.39 118.58H37.08C28.48 118.64 20.7833 118.67 13.99 118.67C9.65 118.67 4.98333 118.67 -0.0100021 118.67V145.08L0.489998 145.2C2.78317 145.747 5.1326 146.022 7.49 146.02C12.7633 146.018 17.9481 144.665 22.55 142.09C28.3633 138.951 32.9967 134.005 35.75 128C35.94 127.6 36.11 127.19 36.28 126.78C36.45 126.37 36.57 126.06 36.7 125.69C36.83 125.32 36.97 124.99 37.08 124.63C37.19 124.27 37.31 123.92 37.41 123.56C37.51 123.2 37.62 122.85 37.7 122.49C37.78 122.13 37.88 121.77 37.96 121.4C38.04 121.03 38.11 120.69 38.17 120.33C38.23 119.97 38.3 119.62 38.34 119.26L38.4 118.8C38.4267 118.751 38.4338 118.694 38.42 118.64H38.39ZM79.6 118.14H79.36L69.3 118.27C69.3099 118.299 69.3099 118.331 69.3 118.36C69.3054 118.393 69.3054 118.427 69.3 118.46C69.2905 118.628 69.2705 118.795 69.24 118.96C69.2449 119 69.2449 119.04 69.24 119.08C69.24 119.45 69.15 119.82 69.09 120.18C69.03 120.54 68.99 120.91 68.93 121.27C68.87 121.63 68.81 122 68.74 122.37C68.67 122.74 68.6 123.1 68.52 123.47C67.6105 128.032 66.1532 132.467 64.18 136.68C58.9885 148.063 50.2347 157.449 39.24 163.42C27.4697 170.009 13.7858 172.333 0.499998 170L-2.13645e-06 169.91V178.16L0.499998 178.24C4.22017 178.87 7.98689 179.184 11.76 179.18C23.3141 179.17 34.6738 176.206 44.76 170.57C57.4873 163.66 67.6207 152.796 73.63 139.62C76.1839 134.142 77.9965 128.347 79.02 122.39C79.08 122.02 79.15 121.65 79.2 121.27C79.25 120.89 79.32 120.54 79.36 120.17C79.4 119.8 79.47 119.43 79.5 119.06C79.5049 119 79.5049 118.94 79.5 118.88L79.56 118.38C79.5655 118.344 79.5655 118.306 79.56 118.27C79.5935 118.233 79.6175 118.188 79.63 118.14H79.6Z" fill="white"/>
<path d="M59 118.3H58.57L48.69 118.41C48.6947 118.421 48.6971 118.433 48.6971 118.445C48.6971 118.457 48.6947 118.469 48.69 118.48C48.697 118.492 48.7007 118.506 48.7007 118.52C48.7007 118.534 48.697 118.548 48.69 118.56C48.697 118.574 48.7007 118.589 48.7007 118.605C48.7007 118.621 48.697 118.636 48.69 118.65C48.69 118.81 48.69 118.98 48.64 119.14C48.64 119.51 48.53 119.87 48.47 120.23C48.41 120.59 48.35 120.96 48.28 121.32C48.21 121.68 48.14 122.05 48.06 122.41C47.98 122.77 47.9 123.13 47.81 123.48C47.72 123.83 47.63 124.2 47.52 124.56C47.41 124.92 47.32 125.29 47.21 125.65C46.662 127.423 45.9938 129.157 45.21 130.84C41.6579 138.64 35.6622 145.071 28.13 149.16C22.1554 152.501 15.4251 154.256 8.58 154.26C5.86178 154.266 3.15037 153.988 0.490001 153.43L-0.00999878 153.33V161.6C0.160001 161.6 0.320001 161.67 0.490001 161.69C3.50568 162.267 6.56958 162.555 9.64 162.55C18.0435 162.538 26.3046 160.38 33.64 156.28C42.9011 151.25 50.2726 143.341 54.64 133.75C56.0141 130.798 57.0992 127.721 57.88 124.56C57.97 124.2 58.05 123.83 58.13 123.46C58.21 123.09 58.28 122.74 58.35 122.38C58.42 122.02 58.5 121.66 58.55 121.29C58.6 120.92 58.68 120.56 58.73 120.19C58.78 119.82 58.84 119.46 58.89 119.1C58.8853 119.084 58.8853 119.066 58.89 119.05C58.89 118.88 58.89 118.72 58.89 118.55C58.9 118.517 58.9 118.483 58.89 118.45C58.9 118.424 58.9 118.396 58.89 118.37C58.9126 118.368 58.9345 118.361 58.9536 118.349C58.9728 118.336 58.9887 118.32 59 118.3V118.3ZM38.38 118.58C38.3847 118.569 38.3871 118.557 38.3871 118.545C38.3871 118.533 38.3847 118.521 38.38 118.51H37.38C28.12 118.59 19.9567 118.627 12.89 118.62C8.89 118.62 4.58333 118.62 -0.0299988 118.62V145.08L0.470001 145.2C2.76317 145.747 5.11261 146.022 7.47 146.02C12.7433 146.018 17.9281 144.665 22.53 142.09C28.3507 138.955 32.9916 134.008 35.75 128C35.94 127.6 36.11 127.19 36.28 126.78C36.45 126.37 36.57 126.06 36.7 125.69C36.83 125.32 36.97 124.99 37.08 124.63C37.19 124.27 37.31 123.92 37.41 123.56C37.51 123.2 37.62 122.85 37.7 122.49C37.78 122.13 37.88 121.77 37.96 121.4C38.04 121.03 38.11 120.69 38.17 120.33C38.23 119.97 38.3 119.62 38.34 119.26L38.4 118.8C38.4049 118.774 38.4049 118.746 38.4 118.72C38.4 118.72 38.43 118.6 38.42 118.58H38.38ZM79.64 118H79.53L69.34 118.15C69.3398 118.24 69.3398 118.24 69.3398 118.33C69.3454 118.363 69.3454 118.397 69.34 118.43C69.3305 118.598 69.3105 118.765 69.28 118.93C69.2849 118.97 69.2849 119.01 69.28 119.05C69.28 119.42 69.19 119.79 69.13 120.15C69.07 120.51 69.03 120.88 68.97 121.24C68.91 121.6 68.85 121.97 68.78 122.34C68.71 122.71 68.64 123.07 68.56 123.44C67.6505 128.002 66.1932 132.437 64.22 136.65C59.0285 148.033 50.2747 157.419 39.28 163.39C27.502 169.998 13.8021 172.334 0.500001 170L1.22003e-06 169.91V178.16L0.500001 178.24C4.22017 178.87 7.9869 179.184 11.76 179.18C23.3141 179.17 34.6738 176.206 44.76 170.57C57.4873 163.66 67.6207 152.796 73.63 139.62C76.1839 134.142 77.9965 128.347 79.02 122.39C79.08 122.02 79.15 121.65 79.2 121.27C79.25 120.89 79.32 120.54 79.36 120.17C79.4 119.8 79.47 119.43 79.5 119.06C79.5049 119 79.5049 118.94 79.5 118.88L79.56 118.38C79.5655 118.344 79.5655 118.306 79.56 118.27C79.5654 118.237 79.5654 118.203 79.56 118.17C79.5862 118.15 79.6073 118.125 79.6212 118.095C79.6352 118.065 79.6416 118.033 79.64 118Z" fill="white"/>
<path d="M59.05 118.21H58.79L48.79 118.33C48.7999 118.359 48.7999 118.391 48.79 118.42C48.7947 118.431 48.7971 118.443 48.7971 118.455C48.7971 118.467 48.7947 118.479 48.79 118.49C48.797 118.502 48.8007 118.516 48.8007 118.53C48.8007 118.544 48.797 118.558 48.79 118.57C48.797 118.584 48.8007 118.599 48.8007 118.615C48.8007 118.631 48.797 118.646 48.79 118.66C48.79 118.82 48.79 118.99 48.74 119.15C48.74 119.52 48.63 119.88 48.57 120.24C48.51 120.6 48.45 120.97 48.38 121.33C48.31 121.69 48.24 122.06 48.16 122.42C48.08 122.78 48 123.14 47.91 123.49C47.82 123.84 47.73 124.21 47.62 124.57C47.51 124.93 47.42 125.3 47.31 125.66C46.762 127.433 46.0938 129.167 45.31 130.85C41.7579 138.65 35.7622 145.081 28.23 149.17C22.2554 152.511 15.5251 154.266 8.68 154.27C5.96178 154.276 3.25037 153.998 0.59 153.44L0.09 153.34V161.61C0.26 161.61 0.42 161.68 0.59 161.7C3.60568 162.277 6.66958 162.565 9.74 162.56C18.1435 162.548 26.4046 160.39 33.74 156.29C43.0011 151.26 50.3726 143.351 54.74 133.76C56.1141 130.808 57.1992 127.731 57.98 124.57C58.07 124.21 58.15 123.84 58.23 123.47C58.31 123.1 58.38 122.75 58.45 122.39C58.52 122.03 58.6 121.67 58.65 121.3C58.7 120.93 58.78 120.57 58.83 120.2C58.88 119.83 58.94 119.47 58.99 119.11C58.9853 119.094 58.9853 119.076 58.99 119.06C58.99 118.89 58.99 118.73 58.99 118.56C59 118.527 59 118.493 58.99 118.46C59 118.434 59 118.406 58.99 118.38C58.9999 118.351 58.9999 118.319 58.99 118.29C59.0192 118.272 59.0405 118.243 59.05 118.21V118.21ZM38.43 118.51C38.4349 118.487 38.4349 118.463 38.43 118.44H37.7C27.7467 118.52 19.13 118.563 11.85 118.57C8.19 118.57 4.24 118.57 0 118.57V145.08L0.5 145.2C2.79317 145.747 5.14261 146.022 7.5 146.02C12.7733 146.018 17.9581 144.665 22.56 142.09C28.3695 138.95 32.9993 134.004 35.75 128C35.94 127.6 36.11 127.19 36.28 126.78C36.45 126.37 36.57 126.06 36.7 125.69C36.83 125.32 36.97 124.99 37.08 124.63C37.19 124.27 37.31 123.92 37.41 123.56C37.51 123.2 37.62 122.85 37.7 122.49C37.78 122.13 37.88 121.77 37.96 121.4C38.04 121.03 38.11 120.69 38.17 120.33C38.23 119.97 38.3 119.62 38.34 119.26L38.4 118.8C38.4049 118.774 38.4049 118.746 38.4 118.72C38.4 118.72 38.4 118.72 38.4 118.66C38.4143 118.655 38.4271 118.646 38.437 118.634C38.4469 118.622 38.4537 118.608 38.4567 118.593C38.4597 118.578 38.4589 118.563 38.4542 118.548C38.4495 118.534 38.4412 118.52 38.43 118.51V118.51ZM11.57 41.82C7.69325 41.8154 3.82298 42.1366 0 42.78L0 49C3.88064 48.3037 7.81751 47.969 11.76 48C22.5022 47.9522 33.0707 50.7098 42.42 56C53.6899 62.1289 62.6845 71.7266 68.07 83.37C72.214 92.0925 74.3497 101.633 74.32 111.29C74.3249 113.512 74.1375 115.73 73.76 117.92C73.7649 117.95 73.7649 117.98 73.76 118.01L69.36 118.08C69.3707 118.112 69.3707 118.148 69.36 118.18C69.3599 118.27 69.3599 118.27 69.3599 118.36C69.3654 118.393 69.3654 118.427 69.36 118.46C69.3505 118.628 69.3305 118.795 69.3 118.96C69.3049 119 69.3049 119.04 69.3 119.08C69.3 119.45 69.21 119.82 69.15 120.18C69.09 120.54 69.05 120.91 68.99 121.27C68.93 121.63 68.87 122 68.8 122.37C68.73 122.74 68.66 123.1 68.58 123.47C67.6705 128.032 66.2132 132.467 64.24 136.68C59.0485 148.063 50.2947 157.449 39.3 163.42C27.5127 170.023 13.8051 172.347 0.5 170L0 169.91V178.16L0.5 178.24C4.22017 178.87 7.98689 179.184 11.76 179.18C23.3141 179.17 34.6738 176.206 44.76 170.57C57.4873 163.66 67.6207 152.796 73.63 139.62C76.1839 134.142 77.9965 128.347 79.02 122.39C79.08 122.02 79.15 121.65 79.2 121.27C79.25 120.89 79.32 120.54 79.36 120.17C79.4 119.8 79.47 119.43 79.5 119.06C79.5049 119 79.5049 118.94 79.5 118.88L79.56 118.38C79.5655 118.344 79.5655 118.306 79.56 118.27C79.5654 118.237 79.5654 118.203 79.56 118.17C79.5703 118.134 79.5703 118.096 79.56 118.06C79.5699 118 79.5699 117.94 79.56 117.88C79.8502 115.26 79.9938 112.626 79.99 109.99C79.9492 100.209 77.7861 90.5535 73.65 81.69C67.7466 68.3976 57.6379 57.414 44.88 50.43C34.7057 44.7336 23.2303 41.7674 11.57 41.82V41.82Z" fill="white"/>
<path d="M59.06 118.12H59L48.8 118.25C48.81 118.276 48.81 118.304 48.8 118.33C48.8099 118.359 48.8099 118.391 48.8 118.42C48.8047 118.431 48.8071 118.443 48.8071 118.455C48.8071 118.467 48.8047 118.479 48.8 118.49C48.807 118.502 48.8107 118.516 48.8107 118.53C48.8107 118.544 48.807 118.558 48.8 118.57C48.807 118.584 48.8107 118.599 48.8107 118.615C48.8107 118.631 48.807 118.646 48.8 118.66C48.8 118.82 48.8 118.99 48.75 119.15C48.75 119.52 48.64 119.88 48.58 120.24C48.52 120.6 48.46 120.97 48.39 121.33C48.32 121.69 48.25 122.06 48.17 122.42C48.09 122.78 48.01 123.14 47.92 123.49C47.83 123.84 47.74 124.21 47.63 124.57C47.52 124.93 47.43 125.3 47.32 125.66C46.772 127.433 46.1038 129.167 45.32 130.85C41.7679 138.65 35.7722 145.081 28.24 149.17C22.2654 152.511 15.5351 154.266 8.69 154.27C5.97178 154.276 3.26037 153.998 0.6 153.44L0.1 153.34V161.61C0.27 161.61 0.43 161.68 0.6 161.7C3.61568 162.277 6.67958 162.565 9.75 162.56C18.1535 162.548 26.4146 160.39 33.75 156.29C43.0111 151.26 50.3826 143.351 54.75 133.76C56.1241 130.808 57.2092 127.731 57.99 124.57C58.08 124.21 58.16 123.84 58.24 123.47C58.32 123.1 58.39 122.75 58.46 122.39C58.53 122.03 58.61 121.67 58.66 121.3C58.71 120.93 58.79 120.57 58.84 120.2C58.89 119.83 58.95 119.47 59 119.11C58.9953 119.094 58.9953 119.076 59 119.06C59 118.89 59 118.73 59 118.56C59.01 118.527 59.01 118.493 59 118.46C59.01 118.434 59.01 118.406 59 118.38C59.0099 118.351 59.0099 118.319 59 118.29C58.9998 118.2 58.9998 118.2 58.9998 118.11L59.06 118.12ZM38.44 118.44C38.4449 118.414 38.4449 118.386 38.44 118.36H38C27.3333 118.473 18.2733 118.53 10.82 118.53L0 118.5V145.05L0.5 145.17C2.79317 145.717 5.14261 145.992 7.5 145.99C12.7733 145.988 17.9581 144.635 22.56 142.06C28.3647 138.927 32.994 133.993 35.75 128C35.94 127.6 36.11 127.19 36.28 126.78C36.45 126.37 36.57 126.06 36.7 125.69C36.83 125.32 36.97 124.99 37.08 124.63C37.19 124.27 37.31 123.92 37.41 123.56C37.51 123.2 37.62 122.85 37.7 122.49C37.78 122.13 37.88 121.77 37.96 121.4C38.04 121.03 38.11 120.69 38.17 120.33C38.23 119.97 38.3 119.62 38.34 119.26L38.4 118.8C38.4049 118.774 38.4049 118.746 38.4 118.72C38.4 118.72 38.4 118.72 38.4 118.66C38.4047 118.649 38.4071 118.637 38.4071 118.625C38.4071 118.613 38.4047 118.601 38.4 118.59C38.4181 118.57 38.4312 118.546 38.4381 118.52C38.4451 118.494 38.4457 118.466 38.44 118.44V118.44Z" fill="white"/>
<path d="M9.51 62.61C6.31886 62.6025 3.13433 62.9005 -2.13645e-06 63.5V68.08C3.17267 67.409 6.40715 67.0738 9.65 67.08C17.4772 67.0298 25.1817 69.0257 32 72.87C40.2151 77.3517 46.7634 84.3664 50.67 92.87C53.6796 99.2201 55.2308 106.163 55.21 113.19C55.2147 114.832 55.0775 116.472 54.8 118.09L48.8 118.17C48.8099 118.199 48.8099 118.231 48.8 118.26C48.81 118.286 48.81 118.314 48.8 118.34C48.8099 118.369 48.8099 118.401 48.8 118.43C48.8047 118.441 48.8071 118.453 48.8071 118.465C48.8071 118.477 48.8047 118.489 48.8 118.5C48.807 118.512 48.8107 118.526 48.8107 118.54C48.8107 118.554 48.807 118.568 48.8 118.58C48.807 118.594 48.8107 118.609 48.8107 118.625C48.8107 118.641 48.807 118.656 48.8 118.67C48.8 118.83 48.8 119 48.75 119.16C48.75 119.53 48.64 119.89 48.58 120.25C48.52 120.61 48.46 120.98 48.39 121.34C48.32 121.7 48.25 122.07 48.17 122.43C48.09 122.79 48.01 123.15 47.92 123.5C47.83 123.85 47.74 124.22 47.63 124.58C47.52 124.94 47.43 125.31 47.32 125.67C46.772 127.443 46.1038 129.177 45.32 130.86C41.7679 138.66 35.7722 145.091 28.24 149.18C22.2654 152.521 15.5351 154.276 8.69 154.28C5.97178 154.286 3.26037 154.008 0.599998 153.45L0.0999979 153.35V161.62C0.269998 161.62 0.429998 161.69 0.599998 161.71C3.61568 162.287 6.67958 162.575 9.75 162.57C18.1535 162.558 26.4146 160.4 33.75 156.3C43.0111 151.27 50.3826 143.361 54.75 133.77C56.1241 130.818 57.2092 127.741 57.99 124.58C58.08 124.22 58.16 123.85 58.24 123.48C58.32 123.11 58.39 122.76 58.46 122.4C58.53 122.04 58.61 121.68 58.66 121.31C58.71 120.94 58.79 120.58 58.84 120.21C58.89 119.84 58.95 119.48 59 119.12C58.9953 119.104 58.9953 119.086 59 119.07C59 118.9 59 118.74 59 118.57C59.01 118.537 59.01 118.503 59 118.47C59.01 118.444 59.01 118.416 59 118.39C59.0099 118.361 59.0099 118.329 59 118.3C58.9998 118.21 58.9998 118.21 58.9998 118.12C59.0047 118.104 59.0047 118.086 59 118.07C59.2132 116.124 59.32 114.168 59.32 112.21C59.2894 105.09 57.7131 98.0613 54.7 91.61C50.3817 81.9357 43.003 73.9491 33.7 68.88C26.3108 64.7425 17.9786 62.5829 9.51 62.61V62.61ZM38.45 118.36C38.4549 118.337 38.4549 118.313 38.45 118.29H38.16C26.7267 118.41 17.24 118.473 9.7 118.48C6.7 118.48 3.5 118.48 -0.0100021 118.48V145.09L0.489998 145.21C2.78317 145.757 5.1326 146.032 7.49 146.03C12.7633 146.028 17.9481 144.675 22.55 142.1C28.3649 138.959 32.9985 134.009 35.75 128C35.94 127.6 36.11 127.19 36.28 126.78C36.45 126.37 36.57 126.06 36.7 125.69C36.83 125.32 36.97 124.99 37.08 124.63C37.19 124.27 37.31 123.92 37.41 123.56C37.51 123.2 37.62 122.85 37.7 122.49C37.78 122.13 37.88 121.77 37.96 121.4C38.04 121.03 38.11 120.69 38.17 120.33C38.23 119.97 38.3 119.62 38.34 119.26L38.4 118.8C38.4049 118.774 38.4049 118.746 38.4 118.72C38.4 118.72 38.4 118.72 38.4 118.66C38.4047 118.649 38.4071 118.637 38.4071 118.625C38.4071 118.613 38.4047 118.601 38.4 118.59C38.4049 118.567 38.4049 118.543 38.4 118.52C38.4371 118.475 38.4551 118.418 38.45 118.36V118.36Z" fill="white"/>
<path d="M38.47 118.18H38.35L31.69 118.26H30.91C22.01 118.373 14.59 118.427 8.65 118.42L0 118.4V145.05L0.5 145.17C2.79317 145.717 5.14261 145.992 7.5 145.99C12.7733 145.988 17.9581 144.635 22.56 142.06C28.3647 138.927 32.994 133.993 35.75 128C35.94 127.6 36.11 127.19 36.28 126.78C36.45 126.37 36.57 126.06 36.7 125.69C36.83 125.32 36.97 124.99 37.08 124.63C37.19 124.27 37.31 123.92 37.41 123.56C37.51 123.2 37.62 122.85 37.7 122.49C37.78 122.13 37.88 121.77 37.96 121.4C38.04 121.03 38.11 120.69 38.17 120.33C38.23 119.97 38.3 119.62 38.34 119.26L38.4 118.8C38.4049 118.774 38.4049 118.746 38.4 118.72C38.4 118.72 38.4 118.72 38.4 118.66C38.4047 118.649 38.4071 118.637 38.4071 118.625C38.4071 118.613 38.4047 118.601 38.4 118.59C38.4049 118.567 38.4049 118.543 38.4 118.52C38.4049 118.494 38.4049 118.466 38.4 118.44C38.3999 118.37 38.3999 118.37 38.3999 118.3C38.4 118.3 38.48 118.19 38.47 118.18Z" fill="white"/>
<path d="M7.45 83.4C4.93965 83.3915 2.43771 83.6904 0 84.29L0 87.19C2.45463 86.5246 4.98679 86.1883 7.53 86.19C12.4321 86.1584 17.2576 87.4061 21.53 89.81C26.6632 92.6222 30.755 97.012 33.2 102.33C35.0887 106.307 36.0626 110.657 36.05 115.06C36.0487 116.085 35.9617 117.109 35.79 118.12C30.5633 118.187 25.82 118.243 21.56 118.29H21.31C15.9767 118.35 11.4 118.38 7.58 118.38H0V145.08L0.5 145.2C2.79317 145.746 5.14261 146.022 7.5 146.02C12.7733 146.018 17.9581 144.665 22.56 142.09C28.3695 138.95 32.9993 134.004 35.75 128C35.94 127.6 36.11 127.19 36.28 126.78C36.45 126.37 36.57 126.06 36.7 125.69C36.83 125.32 36.97 124.99 37.08 124.63C37.19 124.27 37.31 123.92 37.41 123.56C37.51 123.2 37.62 122.85 37.7 122.49C37.78 122.13 37.88 121.77 37.96 121.4C38.04 121.03 38.11 120.69 38.17 120.33C38.23 119.97 38.3 119.62 38.34 119.26L38.4 118.8C38.4049 118.774 38.4049 118.746 38.4 118.72C38.4 118.72 38.4 118.72 38.4 118.66C38.4047 118.649 38.4071 118.637 38.4071 118.625C38.4071 118.613 38.4047 118.601 38.4 118.59C38.4049 118.567 38.4049 118.543 38.4 118.52C38.4049 118.494 38.4049 118.466 38.4 118.44C38.3999 118.37 38.3999 118.37 38.3999 118.3C38.4 118.3 38.4 118.3 38.4 118.3C38.5409 117.062 38.611 115.816 38.61 114.57C38.5884 110.115 37.6024 105.718 35.72 101.68C33.0527 95.5853 28.4524 90.5387 22.63 87.32C17.9937 84.7237 12.7637 83.3731 7.45 83.4V83.4Z" fill="white"/>
</g>
<defs>
<clipPath id="clip0_4_3">
<rect width="247.77" height="212.55" fill="white"/>
</clipPath>
</defs>
</svg>
