<svg xmlns="http://www.w3.org/2000/svg" viewBox="0 0 247.77 212.55"><defs><style>.cls-1{fill:#fff;}</style></defs><g id="Lager_2" data-name="Lager 2"><g id="Lager_1-2" data-name="Lager 1"><path d="M147.6,118.59c0,.12,0,.25,0,.37,0,.38.09.76.14,1.13a86.64,86.64,0,0,0,7.37,25.32,84.87,84.87,0,0,0,36.73,39.37,86.11,86.11,0,0,0,42,11,85.08,85.08,0,0,0,13.37-1l.5-.08v-8.24l-.5.08a76.88,76.88,0,0,1-49.84-8.8,75.79,75.79,0,0,1-32.8-35.16,77.07,77.07,0,0,1-6.39-21.27c-.06-.37-.12-.75-.17-1.12s-.1-.74-.14-1.11l0-.27c0-.17,0-.33-.05-.5l-10.07-.14h-.24Zm41.21.48a.09.09,0,0,1,0,.05c.05.36.1.73.16,1.09s.11.74.18,1.1.12.73.2,1.09.14.73.22,1.08.16.74.25,1.1a50.43,50.43,0,0,0,3.24,9.19,48.52,48.52,0,0,0,21,22.53,49.33,49.33,0,0,0,24,6.27,48.24,48.24,0,0,0,9.15-.86c.17,0,.33-.06.5-.09v-8.27l-.5.1a39,39,0,0,1-8.09.83,40.1,40.1,0,0,1-19.55-5.1,39.45,39.45,0,0,1-17.08-18.32,40.85,40.85,0,0,1-2-5.19c-.11-.36-.22-.72-.31-1.09s-.2-.72-.29-1.08-.17-.71-.25-1.07-.15-.72-.22-1.09-.13-.72-.19-1.09-.12-.72-.17-1.09h0c0-.16,0-.33-.05-.49l-9.24-.08h-1.07C188.77,118.74,188.79,118.9,188.81,119.07Zm20.62.15c0,.36.1.71.17,1.07s.13.72.21,1.07.16.73.26,1.09.18.72.29,1.07.21.72.33,1.07.24.71.38,1.06.27.73.42,1.09.34.82.53,1.22a30.42,30.42,0,0,0,13.16,14.1A30.87,30.87,0,0,0,240.24,146a30.1,30.1,0,0,0,7-.82l.5-.12V118.76q-8.62,0-16.16,0-9.17,0-20.12-.06l-2.13,0,.06.46A.06.06,0,0,0,209.43,119.22Zm-41.21-.37a1.1,1.1,0,0,0,0,.18c0,.37.08.74.14,1.11s.1.73.16,1.1.12.75.18,1.12a68.05,68.05,0,0,0,5.39,17.23A66.72,66.72,0,0,0,203,170.54a67.77,67.77,0,0,0,33,8.61,67,67,0,0,0,11.26-.94l.5-.08v-8.25l-.5.09a58.57,58.57,0,0,1-38.74-6.55,59,59,0,0,1-29.28-39.95c-.08-.37-.15-.73-.22-1.1s-.13-.73-.19-1.1-.12-.72-.16-1.09-.11-.73-.15-1.1a.49.49,0,0,1,0-.12,4,4,0,0,1-.06-.5l-9.74-.1h-.56ZM180.49,13.33a102.77,102.77,0,0,0-44.68,48.34,104.68,104.68,0,0,0-9.81,43.8,107.27,107.27,0,0,0,10,45.85q14.79,31.49,44.68,47.9a104.91,104.91,0,0,0,67.13,12.11v-8.47l-.5.07a93.6,93.6,0,0,1-14.43,1.1,95.34,95.34,0,0,1-46.51-12.13q-27.2-14.93-40.66-43.58a95.93,95.93,0,0,1-8.32-29.38l-.06-.5-.06-.5-1.42,0a62.12,62.12,0,0,1-.88-10.4,100,100,0,0,1,9.67-43.21,92.27,92.27,0,0,1,39.7-42.48A95.49,95.49,0,0,1,231.76,9.52c2.91,0,5.79.12,8.64.38.38,0,.76,0,1.15.1,2.09.2,4.16.46,6.22.81V1.14A107.54,107.54,0,0,0,232.05,0,104.54,104.54,0,0,0,180.49,13.33Z"/><path class="cls-1" d="M188.71,118.12a3225414727090.19,3225414727090.19,0,0,1,0,.18.14.14,0,0,0,0,.09.11.11,0,0,0,0,.08.17.17,0,0,0,0,.1c0,.17,0,.33.05.5h1l9.29.08h0c0-.16,0-.33-.05-.49a.1.1,0,0,1,0-.09.08.08,0,0,1,0-.08.09.09,0,0,1,0-.07.14.14,0,0,1,0-.09.11.11,0,0,1,0-.08.14.14,0,0,1,0-.09l-9.18-.08H188.7A.09.09,0,0,0,188.71,118.12ZM247.27,170v8.24l.5-.08v-8.25Zm-38-51.68a.17.17,0,0,0,0,.07.22.22,0,0,0,0,.08.17.17,0,0,0,0,.07.09.09,0,0,0,0,.07s0,0,0,.06a.22.22,0,0,0,0,.08l.06.46a.06.06,0,0,0,0,0l2.06,0q11,.06,20.12.06,7.32,0,15.66,0v25.91l.5-.12v-26.7l-7.58,0q-5.69,0-13.73-.09h-.25l-9.35,0h-.78l-4.59,0-2.19,0A.17.17,0,0,0,209.31,118.29Zm38,43.42c.17,0,.33-.06.5-.09v-8.27l-.5.1Zm0,24.75v8.24l.5-.08v-8.24ZM180.49,13.33a102.77,102.77,0,0,0-44.68,48.34,104.68,104.68,0,0,0-9.81,43.8,107.27,107.27,0,0,0,10,45.85q14.79,31.49,44.68,47.9a104.91,104.91,0,0,0,67.13,12.11v-8.47l-.5.07v8a104.4,104.4,0,0,1-66.39-12.12,103.17,103.17,0,0,1-44.47-47.67,107.4,107.4,0,0,1-9.91-45.64,107.69,107.69,0,0,1,28.12-71.35A106.13,106.13,0,0,1,232.05.5a107.88,107.88,0,0,1,15.22,1.07v8.65c-1.78-.29-3.64-.52-5.66-.72-.4-.05-.79-.08-1.16-.1-2.79-.25-5.71-.38-8.69-.38a96.41,96.41,0,0,0-47.7,12.37A93.14,93.14,0,0,0,144.15,64.1a100.93,100.93,0,0,0-9.72,43.42,62.65,62.65,0,0,0,.89,10.48l.07.41h.41l1.49,0-.06-.5-1.42,0a62.12,62.12,0,0,1-.88-10.4,100,100,0,0,1,9.67-43.21,92.27,92.27,0,0,1,39.7-42.48A95.49,95.49,0,0,1,231.76,9.52c2.91,0,5.79.12,8.64.38.38,0,.76,0,1.15.1,2.09.2,4.16.46,6.22.81V1.14A107.54,107.54,0,0,0,232.05,0,104.54,104.54,0,0,0,180.49,13.33ZM168.13,118a.2.2,0,0,0,0,.11.31.31,0,0,0,0,.1.37.37,0,0,0,0,.11l.06.5,1.59,0,8.71.09a4,4,0,0,1-.06-.5.31.31,0,0,1,0-.1,3225414727086.89,3225414727086.89,0,0,0,0-.18.16.16,0,0,1,0-.1L174,118a.28.28,0,0,1,0-.09l-4.18,0-1.72,0A.55.55,0,0,0,168.13,118ZM147.52,118s0,.09,0,.13l.06.5,1.26,0,9,.12c0-.17,0-.33-.05-.5a.25.25,0,0,1,0-.12.37.37,0,0,1,0-.11L155,118c0-.09,0-.17,0-.26l-6.12-.08-1.39,0C147.5,117.71,147.51,117.83,147.52,118Z"/><path d="M147.6,118.59c0,.12,0,.25,0,.37,0,.38.09.76.14,1.13a86.64,86.64,0,0,0,7.37,25.32,84.87,84.87,0,0,0,36.73,39.37,86.11,86.11,0,0,0,42,11,85.08,85.08,0,0,0,13.37-1l.5-.08v-8.24l-.5.08a76.88,76.88,0,0,1-49.84-8.8,75.79,75.79,0,0,1-32.8-35.16,77.07,77.07,0,0,1-6.39-21.27c-.06-.37-.12-.75-.17-1.12s-.1-.74-.14-1.11l0-.27c0-.17,0-.33-.05-.5l-10.07-.14h-.24Zm41.21.48a.09.09,0,0,1,0,.05c.05.36.1.73.16,1.09s.11.74.18,1.1.12.73.2,1.09.14.73.22,1.08.16.74.25,1.1a50.43,50.43,0,0,0,3.24,9.19,48.52,48.52,0,0,0,21,22.53,49.33,49.33,0,0,0,24,6.27,48.24,48.24,0,0,0,9.15-.86c.17,0,.33-.06.5-.09v-8.27l-.5.1a39,39,0,0,1-8.09.83,40.1,40.1,0,0,1-19.55-5.1,39.45,39.45,0,0,1-17.08-18.32,40.85,40.85,0,0,1-2-5.19c-.11-.36-.22-.72-.31-1.09s-.2-.72-.29-1.08-.17-.71-.25-1.07-.15-.72-.22-1.09-.13-.72-.19-1.09-.12-.72-.17-1.09h0c0-.16,0-.33-.05-.49l-9.24-.08h-1.07C188.77,118.74,188.79,118.9,188.81,119.07Zm20.62.15c0,.36.1.71.17,1.07s.13.72.21,1.07.16.73.26,1.09.18.72.29,1.07.21.72.33,1.07.24.71.38,1.06.27.73.42,1.09.34.82.53,1.22a30.42,30.42,0,0,0,13.16,14.1A30.87,30.87,0,0,0,240.24,146a30.1,30.1,0,0,0,7-.82l.5-.12V118.76q-8.62,0-16.16,0-9.17,0-20.12-.06l-2.13,0,.06.46A.06.06,0,0,0,209.43,119.22Zm-41.21-.37a1.1,1.1,0,0,0,0,.18c0,.37.08.74.14,1.11s.1.73.16,1.1.12.75.18,1.12a68.05,68.05,0,0,0,5.39,17.23A66.72,66.72,0,0,0,203,170.54a67.77,67.77,0,0,0,33,8.61,67,67,0,0,0,11.26-.94l.5-.08v-8.25l-.5.09a58.57,58.57,0,0,1-38.74-6.55,59,59,0,0,1-29.28-39.95c-.08-.37-.15-.73-.22-1.1s-.13-.73-.19-1.1-.12-.72-.16-1.09-.11-.73-.15-1.1a.49.49,0,0,1,0-.12,4,4,0,0,1-.06-.5l-9.74-.1h-.56ZM180.49,13.33a102.77,102.77,0,0,0-44.68,48.34,104.68,104.68,0,0,0-9.81,43.8,107.27,107.27,0,0,0,10,45.85q14.79,31.49,44.68,47.9a104.91,104.91,0,0,0,67.13,12.11v-8.47l-.5.07a93.6,93.6,0,0,1-14.43,1.1,95.34,95.34,0,0,1-46.51-12.13q-27.2-14.93-40.66-43.58a95.93,95.93,0,0,1-8.32-29.38l-.06-.5-.06-.5-1.42,0a62.12,62.12,0,0,1-.88-10.4,100,100,0,0,1,9.67-43.21,92.27,92.27,0,0,1,39.7-42.48A95.49,95.49,0,0,1,231.76,9.52c2.91,0,5.79.12,8.64.38.38,0,.76,0,1.15.1,2.09.2,4.16.46,6.22.81V1.14A107.54,107.54,0,0,0,232.05,0,104.54,104.54,0,0,0,180.49,13.33Z"/><path class="cls-1" d="M147.54,118.09l.06.5c0,.12,0,.25,0,.37,0,.38.09.76.14,1.13a86.64,86.64,0,0,0,7.37,25.32,84.87,84.87,0,0,0,36.73,39.37,86.11,86.11,0,0,0,42,11,85.08,85.08,0,0,0,13.37-1l.5-.08v-8.24l-.5.08a76.88,76.88,0,0,1-49.84-8.8,75.79,75.79,0,0,1-32.8-35.16,77.07,77.07,0,0,1-6.39-21.27c-.06-.37-.12-.75-.17-1.12s-.1-.74-.14-1.11l0-.27c0-.17,0-.33-.05-.5a.25.25,0,0,1,0-.12L147.64,118h-.12S147.53,118.05,147.54,118.09Zm41.22.48c0,.17,0,.33.05.5a.09.09,0,0,1,0,.05c.05.36.1.73.16,1.09s.11.74.18,1.1.12.73.2,1.09.14.73.22,1.08.16.74.25,1.1a50.43,50.43,0,0,0,3.24,9.19,48.52,48.52,0,0,0,21,22.53,49.33,49.33,0,0,0,24,6.27,48.24,48.24,0,0,0,9.15-.86c.17,0,.33-.06.5-.09v-8.27l-.5.1a39,39,0,0,1-8.09.83,40.1,40.1,0,0,1-19.55-5.1,39.45,39.45,0,0,1-17.08-18.32,40.85,40.85,0,0,1-2-5.19c-.11-.36-.22-.72-.31-1.09s-.2-.72-.29-1.08-.17-.71-.25-1.07-.15-.72-.22-1.09-.13-.72-.19-1.09-.12-.72-.17-1.09h0c0-.16,0-.33-.05-.49a.1.1,0,0,1,0-.09l-9.48-.09h-.83A.17.17,0,0,0,188.76,118.57Zm20.66.61a.06.06,0,0,0,0,0c0,.36.1.71.17,1.07s.13.72.21,1.07.16.73.26,1.09.18.72.29,1.07.21.72.33,1.07.24.71.38,1.06.27.73.42,1.09.34.82.53,1.22a30.42,30.42,0,0,0,13.16,14.1A30.87,30.87,0,0,0,240.24,146a30.1,30.1,0,0,0,7-.82l.5-.12V118.69q-8,0-15.06,0-9.72,0-21.64-.08h-1.72a.22.22,0,0,0,0,.08Zm-41.26-.83.06.5a1.1,1.1,0,0,0,0,.18c0,.37.08.74.14,1.11s.1.73.16,1.1.12.75.18,1.12a68.05,68.05,0,0,0,5.39,17.23A66.72,66.72,0,0,0,203,170.54a67.77,67.77,0,0,0,33,8.61,67,67,0,0,0,11.26-.94l.5-.08v-8.25l-.5.09a58.57,58.57,0,0,1-38.74-6.55,59,59,0,0,1-29.28-39.95c-.08-.37-.15-.73-.22-1.1s-.13-.73-.19-1.1-.12-.72-.16-1.09-.11-.73-.15-1.1a.49.49,0,0,1,0-.12,4,4,0,0,1-.06-.5.31.31,0,0,1,0-.1l-9.91-.12h-.39A.37.37,0,0,0,168.16,118.35Z"/><path d="M191.76,32A84.48,84.48,0,0,0,155,71.72a86,86,0,0,0-8.06,36,94.51,94.51,0,0,0,.51,9.87c0,.12,0,.24,0,.37s0,.09,0,.13l.06.5c0,.12,0,.25,0,.37,0,.38.09.76.14,1.13a86.64,86.64,0,0,0,7.37,25.32,84.87,84.87,0,0,0,36.73,39.37,86.11,86.11,0,0,0,42,11,85.08,85.08,0,0,0,13.37-1l.5-.08v-8.24l-.5.08a76.88,76.88,0,0,1-49.84-8.8,75.79,75.79,0,0,1-32.8-35.16,77.07,77.07,0,0,1-6.39-21.27c-.06-.37-.12-.75-.17-1.12s-.1-.74-.14-1.11l0-.27c0-.17,0-.33-.05-.5a.25.25,0,0,1,0-.12.37.37,0,0,1,0-.11L155,118c0-.09,0-.17,0-.26a50.65,50.65,0,0,1-.68-8.28,82.22,82.22,0,0,1,7.95-35.52A75.89,75.89,0,0,1,194.89,39a78.56,78.56,0,0,1,39-10.12A80.64,80.64,0,0,1,247.77,30v-8a87.94,87.94,0,0,0-13.63-1A86,86,0,0,0,191.76,32Zm-3,86.49a.17.17,0,0,0,0,.1c0,.17,0,.33.05.5a.09.09,0,0,1,0,.05c.05.36.1.73.16,1.09s.11.74.18,1.1.12.73.2,1.09.14.73.22,1.08.16.74.25,1.1a50.43,50.43,0,0,0,3.24,9.19,48.52,48.52,0,0,0,21,22.53,49.33,49.33,0,0,0,24,6.27,48.24,48.24,0,0,0,9.15-.86c.17,0,.33-.06.5-.09v-8.27l-.5.1a39,39,0,0,1-8.09.83,40.1,40.1,0,0,1-19.55-5.1,39.45,39.45,0,0,1-17.08-18.32,40.85,40.85,0,0,1-2-5.19c-.11-.36-.22-.72-.31-1.09s-.2-.72-.29-1.08-.17-.71-.25-1.07-.15-.72-.22-1.09-.13-.72-.19-1.09-.12-.72-.17-1.09h0c0-.16,0-.33-.05-.49a.1.1,0,0,1,0-.09.08.08,0,0,1,0-.08l-9.69-.09h-.62A.11.11,0,0,0,188.75,118.47Zm20.61.25.06.46a.06.06,0,0,0,0,0c0,.36.1.71.17,1.07s.13.72.21,1.07.16.73.26,1.09.18.72.29,1.07.21.72.33,1.07.24.71.38,1.06.27.73.42,1.09.34.82.53,1.22a30.42,30.42,0,0,0,13.16,14.1A30.87,30.87,0,0,0,240.24,146a30.1,30.1,0,0,0,7-.82l.5-.12V118.64q-7.49,0-14,0-10.18,0-23.09-.09h-1.34s0,0,0,.06A.22.22,0,0,0,209.36,118.72Zm-41.21-.48a.37.37,0,0,0,0,.11l.06.5a1.1,1.1,0,0,0,0,.18c0,.37.08.74.14,1.11s.1.73.16,1.1.12.75.18,1.12a68.05,68.05,0,0,0,5.39,17.23A66.72,66.72,0,0,0,203,170.54a67.77,67.77,0,0,0,33,8.61,67,67,0,0,0,11.26-.94l.5-.08v-8.25l-.5.09a58.57,58.57,0,0,1-38.74-6.55,59,59,0,0,1-29.28-39.95c-.08-.37-.15-.73-.22-1.1s-.13-.73-.19-1.1-.12-.72-.16-1.09-.11-.73-.15-1.1a.49.49,0,0,1,0-.12,4,4,0,0,1-.06-.5.31.31,0,0,1,0-.1.14.14,0,0,1,0-.09l-10.06-.13h-.24A.31.31,0,0,0,168.15,118.24Z"/><path class="cls-1" d="M188.74,118.39a.11.11,0,0,0,0,.08.17.17,0,0,0,0,.1c0,.17,0,.33.05.5a.09.09,0,0,1,0,.05c.05.36.1.73.16,1.09s.11.74.18,1.1.12.73.2,1.09.14.73.22,1.08.16.74.25,1.1a50.43,50.43,0,0,0,3.24,9.19,48.52,48.52,0,0,0,21,22.53,49.33,49.33,0,0,0,24,6.27,48.24,48.24,0,0,0,9.15-.86c.17,0,.33-.06.5-.09v-8.27l-.5.1a39,39,0,0,1-8.09.83,40.1,40.1,0,0,1-19.55-5.1,39.45,39.45,0,0,1-17.08-18.32,40.85,40.85,0,0,1-2-5.19c-.11-.36-.22-.72-.31-1.09s-.2-.72-.29-1.08-.17-.71-.25-1.07-.15-.72-.22-1.09-.13-.72-.19-1.09-.12-.72-.17-1.09h0c0-.16,0-.33-.05-.49a.1.1,0,0,1,0-.09.08.08,0,0,1,0-.08.09.09,0,0,1,0-.07l-9.88-.11h-.43A.14.14,0,0,0,188.74,118.39Zm20.61.25a.22.22,0,0,0,0,.08l.06.46a.06.06,0,0,0,0,0c0,.36.1.71.17,1.07s.13.72.21,1.07.16.73.26,1.09.18.72.29,1.07.21.72.33,1.07.24.71.38,1.06.27.73.42,1.09.34.82.53,1.22a30.42,30.42,0,0,0,13.16,14.1A30.87,30.87,0,0,0,240.24,146a30.1,30.1,0,0,0,7-.82l.5-.12V118.59q-6.92,0-12.92,0-10.6,0-24.49-.11h-1a.09.09,0,0,0,0,.07S209.35,118.62,209.35,118.64Zm-41.21-.5a.31.31,0,0,0,0,.1.37.37,0,0,0,0,.11l.06.5a1.1,1.1,0,0,0,0,.18c0,.37.08.74.14,1.11s.1.73.16,1.1.12.75.18,1.12a68.05,68.05,0,0,0,5.39,17.23A66.72,66.72,0,0,0,203,170.54a67.77,67.77,0,0,0,33,8.61,67,67,0,0,0,11.26-.94l.5-.08v-8.25l-.5.09a58.57,58.57,0,0,1-38.74-6.55,59,59,0,0,1-29.28-39.95c-.08-.37-.15-.73-.22-1.1s-.13-.73-.19-1.1-.12-.72-.16-1.09-.11-.73-.15-1.1a.49.49,0,0,1,0-.12,4,4,0,0,1-.06-.5.31.31,0,0,1,0-.1,3225414727086.89,3225414727086.89,0,0,0,0-.18L168.24,118h-.11A.2.2,0,0,0,168.14,118.14Z"/><path d="M188.73,118.3a.14.14,0,0,0,0,.09.11.11,0,0,0,0,.08.17.17,0,0,0,0,.1c0,.17,0,.33.05.5a.09.09,0,0,1,0,.05c.05.36.1.73.16,1.09s.11.74.18,1.1.12.73.2,1.09.14.73.22,1.08.16.74.25,1.1a50.43,50.43,0,0,0,3.24,9.19,48.52,48.52,0,0,0,21,22.53,49.33,49.33,0,0,0,24,6.27,48.24,48.24,0,0,0,9.15-.86c.17,0,.33-.06.5-.09v-8.27l-.5.1a39,39,0,0,1-8.09.83,40.1,40.1,0,0,1-19.55-5.1,39.45,39.45,0,0,1-17.08-18.32,40.85,40.85,0,0,1-2-5.19c-.11-.36-.22-.72-.31-1.09s-.2-.72-.29-1.08-.17-.71-.25-1.07-.15-.72-.22-1.09-.13-.72-.19-1.09-.12-.72-.17-1.09h0c0-.16,0-.33-.05-.49a.1.1,0,0,1,0-.09.08.08,0,0,1,0-.08.09.09,0,0,1,0-.07.14.14,0,0,1,0-.09L189,118.21h-.26A.14.14,0,0,0,188.73,118.3Zm20.62.28s0,0,0,.06a.22.22,0,0,0,0,.08l.06.46a.06.06,0,0,0,0,0c0,.36.1.71.17,1.07s.13.72.21,1.07.16.73.26,1.09.18.72.29,1.07.21.72.33,1.07.24.71.38,1.06.27.73.42,1.09.34.82.53,1.22a30.42,30.42,0,0,0,13.16,14.1A30.87,30.87,0,0,0,240.24,146a30.1,30.1,0,0,0,7-.82l.5-.12V118.54q-6.36,0-11.85,0-10.93,0-25.85-.13h-.74a.17.17,0,0,0,0,.07A.09.09,0,0,0,209.35,118.58Zm-6.46-68.15A66.33,66.33,0,0,0,174,81.66a67.59,67.59,0,0,0-6.34,28.3,70.73,70.73,0,0,0,.43,7.89.55.55,0,0,0,0,.18.2.2,0,0,0,0,.11.31.31,0,0,0,0,.1.37.37,0,0,0,0,.11l.06.5a1.1,1.1,0,0,0,0,.18c0,.37.08.74.14,1.11s.1.73.16,1.1.12.75.18,1.12a68.05,68.05,0,0,0,5.39,17.23A66.72,66.72,0,0,0,203,170.54a67.77,67.77,0,0,0,33,8.61,67,67,0,0,0,11.26-.94l.5-.08v-8.25l-.5.09a58.57,58.57,0,0,1-38.74-6.55,59,59,0,0,1-29.28-39.95c-.08-.37-.15-.73-.22-1.1s-.13-.73-.19-1.1-.12-.72-.16-1.09-.11-.73-.15-1.1a.49.49,0,0,1,0-.12,4,4,0,0,1-.06-.5.31.31,0,0,1,0-.1,3225414727086.89,3225414727086.89,0,0,0,0-.18.16.16,0,0,1,0-.1L174,118a.28.28,0,0,1,0-.09,38.53,38.53,0,0,1-.56-6.63,64.6,64.6,0,0,1,6.25-27.92,59.67,59.67,0,0,1,25.65-27.45A61.7,61.7,0,0,1,236,48,63.75,63.75,0,0,1,247.77,49V42.78a69.22,69.22,0,0,0-11.57-1A67.56,67.56,0,0,0,202.89,50.43Z"/><path class="cls-1" d="M188.72,118.21a293219520640,293219520640,0,0,0,0,.18.11.11,0,0,0,0,.08.17.17,0,0,0,0,.1c0,.17,0,.33.05.5a.09.09,0,0,1,0,.05c.05.36.1.73.16,1.09s.11.74.18,1.1.12.73.2,1.09.14.73.22,1.08.16.74.25,1.1a50.43,50.43,0,0,0,3.24,9.19,48.52,48.52,0,0,0,21,22.53,49.33,49.33,0,0,0,24,6.27,48.24,48.24,0,0,0,9.15-.86c.17,0,.33-.06.5-.09v-8.27l-.5.1a39,39,0,0,1-8.09.83,40.1,40.1,0,0,1-19.55-5.1,39.45,39.45,0,0,1-17.08-18.32,40.85,40.85,0,0,1-2-5.19c-.11-.36-.22-.72-.31-1.09s-.2-.72-.29-1.08-.17-.71-.25-1.07-.15-.72-.22-1.09-.13-.72-.19-1.09-.12-.72-.17-1.09h0c0-.16,0-.33-.05-.49a.1.1,0,0,1,0-.09.08.08,0,0,1,0-.08.09.09,0,0,1,0-.07.14.14,0,0,1,0-.09.11.11,0,0,1,0-.08l-10.2-.13h-.11A.14.14,0,0,0,188.72,118.21Zm20.62.3a.09.09,0,0,0,0,.07s0,0,0,.06a.22.22,0,0,0,0,.08l.06.46a.06.06,0,0,0,0,0c0,.36.1.71.17,1.07s.13.72.21,1.07.16.73.26,1.09.18.72.29,1.07.21.72.33,1.07.24.71.38,1.06.27.73.42,1.09.34.82.53,1.22a30.42,30.42,0,0,0,13.16,14.1A30.87,30.87,0,0,0,240.24,146a30.1,30.1,0,0,0,7-.82l.5-.12V118.5l-10.78,0q-11.19,0-27.18-.17h-.49a.22.22,0,0,0,0,.08A.17.17,0,0,0,209.34,118.51Z"/><path d="M214,68.88a48.31,48.31,0,0,0-21,22.73,49.18,49.18,0,0,0-4.62,20.6,53.81,53.81,0,0,0,.32,5.86.09.09,0,0,0,0,.05,3225414727090.19,3225414727090.19,0,0,1,0,.18.14.14,0,0,0,0,.09.11.11,0,0,0,0,.08.17.17,0,0,0,0,.1c0,.17,0,.33.05.5a.09.09,0,0,1,0,.05c.05.36.1.73.16,1.09s.11.74.18,1.1.12.73.2,1.09.14.73.22,1.08.16.74.25,1.1a50.43,50.43,0,0,0,3.24,9.19,48.52,48.52,0,0,0,21,22.53,49.33,49.33,0,0,0,24,6.27,48.24,48.24,0,0,0,9.15-.86c.17,0,.33-.06.5-.09v-8.27l-.5.1a39,39,0,0,1-8.09.83,40.1,40.1,0,0,1-19.55-5.1,39.45,39.45,0,0,1-17.08-18.32,40.85,40.85,0,0,1-2-5.19c-.11-.36-.22-.72-.31-1.09s-.2-.72-.29-1.08-.17-.71-.25-1.07-.15-.72-.22-1.09-.13-.72-.19-1.09-.12-.72-.17-1.09h0c0-.16,0-.33-.05-.49a.1.1,0,0,1,0-.09.08.08,0,0,1,0-.08.09.09,0,0,1,0-.07.14.14,0,0,1,0-.09.11.11,0,0,1,0-.08.14.14,0,0,1,0-.09h0l-6-.08a28.51,28.51,0,0,1-.41-4.9,47.12,47.12,0,0,1,4.54-20.32,43.44,43.44,0,0,1,18.67-20,44.92,44.92,0,0,1,22.32-5.79,46.21,46.21,0,0,1,9.65,1V63.5a50,50,0,0,0-9.51-.89A49.19,49.19,0,0,0,214,68.88Zm-4.68,49.56a.17.17,0,0,0,0,.07.09.09,0,0,0,0,.07s0,0,0,.06a.22.22,0,0,0,0,.08l.06.46a.06.06,0,0,0,0,0c0,.36.1.71.17,1.07s.13.72.21,1.07.16.73.26,1.09.18.72.29,1.07.21.72.33,1.07.24.71.38,1.06.27.73.42,1.09.34.82.53,1.22a30.42,30.42,0,0,0,13.16,14.1A30.87,30.87,0,0,0,240.24,146a30.1,30.1,0,0,0,7-.82l.5-.12V118.44c-3.51,0-6.74,0-9.71,0q-11.33,0-28.46-.19h-.29a.17.17,0,0,0,0,.07A.22.22,0,0,0,209.33,118.44Z"/><path class="cls-1" d="M209.3,118.22a2538684499575.94,2538684499575.94,0,0,0,0,.14.22.22,0,0,0,0,.08.17.17,0,0,0,0,.07.09.09,0,0,0,0,.07s0,0,0,.06a.22.22,0,0,0,0,.08l.06.46a.06.06,0,0,0,0,0c0,.36.1.71.17,1.07s.13.72.21,1.07.16.73.26,1.09.18.72.29,1.07.21.72.33,1.07.24.71.38,1.06.27.73.42,1.09.34.82.53,1.22a30.42,30.42,0,0,0,13.16,14.1A30.87,30.87,0,0,0,240.24,146a30.1,30.1,0,0,0,7-.82l.5-.12V118.4l-8.65,0q-8.91,0-22.26-.16h-.78l-6.66-.08h-.12S209.3,118.21,209.3,118.22Z"/><path d="M225.14,87.32A30.28,30.28,0,0,0,212,101.56a30.86,30.86,0,0,0-2.89,12.89,32.78,32.78,0,0,0,.21,3.73s0,0,0,0a2538684499575.94,2538684499575.94,0,0,0,0,.14.22.22,0,0,0,0,.08.17.17,0,0,0,0,.07.09.09,0,0,0,0,.07s0,0,0,.06a.22.22,0,0,0,0,.08l.06.46a.06.06,0,0,0,0,0c0,.36.1.71.17,1.07s.13.72.21,1.07.16.73.26,1.09.18.72.29,1.07.21.72.33,1.07.24.71.38,1.06.27.73.42,1.09.34.82.53,1.22a30.42,30.42,0,0,0,13.16,14.1A30.87,30.87,0,0,0,240.24,146a30.1,30.1,0,0,0,7-.82l.5-.12v-26.7l-7.58,0q-5.69,0-13.73-.09h-.25q-6.39-.06-14.23-.17a18.41,18.41,0,0,1-.26-3.06,29.48,29.48,0,0,1,2.85-12.73,27.26,27.26,0,0,1,11.69-12.51,28.18,28.18,0,0,1,14-3.62,28.71,28.71,0,0,1,7.53,1v-2.9a31.44,31.44,0,0,0-22.63,3Z"/><path d="M100.23,118.09H100l-10.07.14c0,.17,0,.33,0,.5l0,.27c0,.37-.09.74-.14,1.11s-.11.75-.17,1.12a77.07,77.07,0,0,1-6.39,21.27,75.79,75.79,0,0,1-32.8,35.16A76.88,76.88,0,0,1,.5,186.46l-.5-.08v8.24l.5.08a85.08,85.08,0,0,0,13.37,1,86.11,86.11,0,0,0,42-11,84.87,84.87,0,0,0,36.73-39.37A86.64,86.64,0,0,0,100,120.09c.05-.37.1-.75.14-1.13,0-.12,0-.25,0-.37ZM59,118.57H57.94l-9.24.08c0,.16,0,.33-.05.49h0c0,.37-.11.73-.17,1.09s-.12.73-.19,1.09-.14.73-.22,1.09-.16.72-.25,1.07-.18.72-.29,1.08-.2.73-.31,1.09a40.85,40.85,0,0,1-2,5.19,39.45,39.45,0,0,1-17.08,18.32,40.1,40.1,0,0,1-19.55,5.1,39,39,0,0,1-8.09-.83l-.5-.1v8.27c.17,0,.33.07.5.09a48.24,48.24,0,0,0,9.15.86,49.33,49.33,0,0,0,24-6.27,48.52,48.52,0,0,0,21-22.53,50.43,50.43,0,0,0,3.24-9.19c.09-.36.17-.73.25-1.1s.15-.72.22-1.08.15-.72.2-1.09.13-.73.18-1.1.11-.73.16-1.09a.09.09,0,0,1,0-.05C59,118.9,59,118.74,59,118.57Zm-20.66.61.06-.46-2.13,0q-11,.06-20.12.06-7.54,0-16.16,0v26.29l.5.12a30.1,30.1,0,0,0,7,.82,30.87,30.87,0,0,0,15.06-3.93A30.42,30.42,0,0,0,35.75,128c.19-.4.36-.81.53-1.22s.29-.72.42-1.09.27-.7.38-1.06.23-.71.33-1.07.21-.71.29-1.07.18-.72.26-1.09.15-.71.21-1.07.13-.71.17-1.07A.06.06,0,0,0,38.35,119.18Zm41.26-.83h-.56l-9.74.1a4,4,0,0,1-.06.5.49.49,0,0,1,0,.12c0,.37-.09.74-.15,1.1s-.1.73-.16,1.09-.12.73-.19,1.1-.14.73-.22,1.1a57.77,57.77,0,0,1-4.34,13.21,57.65,57.65,0,0,1-24.94,26.74A58.57,58.57,0,0,1,.5,170l-.5-.09v8.25l.5.08a67,67,0,0,0,11.26.94,67.77,67.77,0,0,0,33-8.61,66.72,66.72,0,0,0,28.87-30.95,68.05,68.05,0,0,0,5.39-17.23c.06-.37.13-.74.18-1.12s.12-.73.16-1.1.11-.74.14-1.11a1.1,1.1,0,0,0,0-.18ZM15.72,0A107.54,107.54,0,0,0,0,1.14v9.67c2.06-.35,4.13-.61,6.22-.81.39-.05.77-.08,1.15-.1,2.85-.26,5.73-.38,8.64-.38A95.49,95.49,0,0,1,63.47,21.83a92.27,92.27,0,0,1,39.7,42.48,100,100,0,0,1,9.67,43.21,62.12,62.12,0,0,1-.88,10.4l-1.42,0-.06.5-.06.5a95.93,95.93,0,0,1-8.32,29.38Q88.63,177,61.44,191.9A95.34,95.34,0,0,1,14.93,204,93.6,93.6,0,0,1,.5,202.93l-.5-.07v8.47a104.91,104.91,0,0,0,67.13-12.11q29.9-16.41,44.68-47.9a107.27,107.27,0,0,0,10-45.85A104.68,104.68,0,0,0,112,61.67,102.77,102.77,0,0,0,67.28,13.33,104.54,104.54,0,0,0,15.72,0Z"/><path class="cls-1" d="M59.07,118.07H57.94l-9.18.08a.14.14,0,0,1,0,.09.11.11,0,0,1,0,.08.14.14,0,0,1,0,.09.09.09,0,0,1,0,.07.08.08,0,0,1,0,.08.1.1,0,0,1,0,.09c0,.16,0,.33-.05.49h0l9.29-.08h1c0-.17,0-.33,0-.5a.17.17,0,0,0,0-.1.11.11,0,0,0,0-.08.14.14,0,0,0,0-.09,921547064860.67,921547064860.67,0,0,1,0-.18A.09.09,0,0,0,59.07,118.07ZM0,169.88v8.25l.5.08V170Zm38.47-51.66-2.19,0-4.59,0h-.78l-9.35,0h-.25q-8,.09-13.73.09l-7.58,0v26.7l.5.12V119.26q8.34,0,15.66,0,9.16,0,20.12-.06l2.06,0a.06.06,0,0,0,0,0l.06-.46a.22.22,0,0,0,0-.08s0,0,0-.06a.09.09,0,0,0,0-.07.17.17,0,0,0,0-.07.22.22,0,0,0,0-.08,2538684499571.19,2538684499571.19,0,0,0,0-.14ZM.5,153.45l-.5-.1v8.27c.17,0,.33.07.5.09ZM0,186.38v8.24l.5.08v-8.24ZM15.72,0A107.54,107.54,0,0,0,0,1.14v9.67c2.06-.35,4.13-.61,6.22-.81.39-.05.77-.08,1.15-.1,2.85-.26,5.73-.38,8.64-.38A95.49,95.49,0,0,1,63.47,21.83a92.27,92.27,0,0,1,39.7,42.48,100,100,0,0,1,9.67,43.21,62.12,62.12,0,0,1-.88,10.4l-1.42,0-.06.5,1.49,0h.41l.07-.41a62.65,62.65,0,0,0,.89-10.48,100.93,100.93,0,0,0-9.72-43.42A93.14,93.14,0,0,0,63.71,21.39,96.41,96.41,0,0,0,16,9c-3,0-5.9.13-8.69.38-.37,0-.76,0-1.16.1-2,.2-3.88.43-5.66.72V1.57A107.88,107.88,0,0,1,15.72.5,104.46,104.46,0,0,1,67,13.77,103.53,103.53,0,0,1,93.15,34.12a105.2,105.2,0,0,1,18.36,27.76,104.8,104.8,0,0,1,9.76,43.59,107.4,107.4,0,0,1-9.91,45.64,103.17,103.17,0,0,1-44.47,47.67A104.72,104.72,0,0,1,16,212.05,105.6,105.6,0,0,1,.5,210.9v-8l-.5-.07v8.47a104.91,104.91,0,0,0,67.13-12.11q29.9-16.41,44.68-47.9a107.27,107.27,0,0,0,10-45.85A104.68,104.68,0,0,0,112,61.67,102.77,102.77,0,0,0,67.28,13.33,104.54,104.54,0,0,0,15.72,0ZM79.66,117.85l-1.72,0-4.18,0a.28.28,0,0,1,0,.09l-4.4.07a.16.16,0,0,1,0,.1,3225414726992.09,3225414726992.09,0,0,0,0,.18.31.31,0,0,1,0,.1,4,4,0,0,1-.06.5l8.71-.09,1.59,0,.06-.5a.37.37,0,0,0,0-.11.31.31,0,0,0,0-.1.2.2,0,0,0,0-.11A.55.55,0,0,0,79.66,117.85Zm20.63-.26-1.39,0-6.12.08c0,.09,0,.17,0,.26L90,118a.37.37,0,0,1,0,.11.25.25,0,0,1,0,.12c0,.17,0,.33,0,.5l9-.12,1.26,0,.06-.5s0-.09,0-.13S100.27,117.71,100.29,117.59Z"/><path d="M100.23,118.09H100l-10.07.14c0,.17,0,.33,0,.5l0,.27c0,.37-.09.74-.14,1.11s-.11.75-.17,1.12a77.07,77.07,0,0,1-6.39,21.27,75.79,75.79,0,0,1-32.8,35.16A76.88,76.88,0,0,1,.5,186.46l-.5-.08v8.24l.5.08a85.08,85.08,0,0,0,13.37,1,86.11,86.11,0,0,0,42-11,84.87,84.87,0,0,0,36.73-39.37A86.64,86.64,0,0,0,100,120.09c.05-.37.1-.75.14-1.13,0-.12,0-.25,0-.37ZM59,118.57H57.94l-9.24.08c0,.16,0,.33-.05.49h0c0,.37-.11.73-.17,1.09s-.12.73-.19,1.09-.14.73-.22,1.09-.16.72-.25,1.07-.18.72-.29,1.08-.2.73-.31,1.09a40.85,40.85,0,0,1-2,5.19,39.45,39.45,0,0,1-17.08,18.32,40.1,40.1,0,0,1-19.55,5.1,39,39,0,0,1-8.09-.83l-.5-.1v8.27c.17,0,.33.07.5.09a48.24,48.24,0,0,0,9.15.86,49.33,49.33,0,0,0,24-6.27,48.52,48.52,0,0,0,21-22.53,50.43,50.43,0,0,0,3.24-9.19c.09-.36.17-.73.25-1.1s.15-.72.22-1.08.15-.72.2-1.09.13-.73.18-1.1.11-.73.16-1.09a.09.09,0,0,1,0-.05C59,118.9,59,118.74,59,118.57Zm-20.66.61.06-.46-2.13,0q-11,.06-20.12.06-7.54,0-16.16,0v26.29l.5.12a30.1,30.1,0,0,0,7,.82,30.87,30.87,0,0,0,15.06-3.93A30.42,30.42,0,0,0,35.75,128c.19-.4.36-.81.53-1.22s.29-.72.42-1.09.27-.7.38-1.06.23-.71.33-1.07.21-.71.29-1.07.18-.72.26-1.09.15-.71.21-1.07.13-.71.17-1.07A.06.06,0,0,0,38.35,119.18Zm41.26-.83h-.56l-9.74.1a4,4,0,0,1-.06.5.49.49,0,0,1,0,.12c0,.37-.09.74-.15,1.1s-.1.73-.16,1.09-.12.73-.19,1.1-.14.73-.22,1.1a57.77,57.77,0,0,1-4.34,13.21,57.65,57.65,0,0,1-24.94,26.74A58.57,58.57,0,0,1,.5,170l-.5-.09v8.25l.5.08a67,67,0,0,0,11.26.94,67.77,67.77,0,0,0,33-8.61,66.72,66.72,0,0,0,28.87-30.95,68.05,68.05,0,0,0,5.39-17.23c.06-.37.13-.74.18-1.12s.12-.73.16-1.1.11-.74.14-1.11a1.1,1.1,0,0,0,0-.18ZM15.72,0A107.54,107.54,0,0,0,0,1.14v9.67c2.06-.35,4.13-.61,6.22-.81.39-.05.77-.08,1.15-.1,2.85-.26,5.73-.38,8.64-.38A95.49,95.49,0,0,1,63.47,21.83a92.27,92.27,0,0,1,39.7,42.48,100,100,0,0,1,9.67,43.21,62.12,62.12,0,0,1-.88,10.4l-1.42,0-.06.5-.06.5a95.93,95.93,0,0,1-8.32,29.38Q88.63,177,61.44,191.9A95.34,95.34,0,0,1,14.93,204,93.6,93.6,0,0,1,.5,202.93l-.5-.07v8.47a104.91,104.91,0,0,0,67.13-12.11q29.9-16.41,44.68-47.9a107.27,107.27,0,0,0,10-45.85A104.68,104.68,0,0,0,112,61.67,102.77,102.77,0,0,0,67.28,13.33,104.54,104.54,0,0,0,15.72,0Z"/><path class="cls-1" d="M100.25,118h-.12l-10.19.15a.25.25,0,0,1,0,.12c0,.17,0,.33,0,.5l0,.27c0,.37-.09.74-.14,1.11s-.11.75-.17,1.12a77.07,77.07,0,0,1-6.39,21.27,75.79,75.79,0,0,1-32.8,35.16A76.88,76.88,0,0,1,.5,186.46l-.5-.08v8.24l.5.08a85.08,85.08,0,0,0,13.37,1,86.11,86.11,0,0,0,42-11,84.87,84.87,0,0,0,36.73-39.37A86.64,86.64,0,0,0,100,120.09c.05-.37.1-.75.14-1.13,0-.12,0-.25,0-.37l.06-.5S100.24,118,100.25,118ZM59,118.47h-.83l-9.48.09a.1.1,0,0,1,0,.09c0,.16,0,.33-.05.49h0c0,.37-.11.73-.17,1.09s-.12.73-.19,1.09-.14.73-.22,1.09-.16.72-.25,1.07-.18.72-.29,1.08-.2.73-.31,1.09a40.85,40.85,0,0,1-2,5.19,39.45,39.45,0,0,1-17.08,18.32,40.1,40.1,0,0,1-19.55,5.1,39,39,0,0,1-8.09-.83l-.5-.1v8.27c.17,0,.33.07.5.09a48.24,48.24,0,0,0,9.15.86,49.33,49.33,0,0,0,24-6.27,48.52,48.52,0,0,0,21-22.53,50.43,50.43,0,0,0,3.24-9.19c.09-.36.17-.73.25-1.1s.15-.72.22-1.08.15-.72.2-1.09.13-.73.18-1.1.11-.73.16-1.09a.09.09,0,0,1,0-.05c0-.17,0-.33,0-.5A.17.17,0,0,0,59,118.47Zm-20.61.25a.22.22,0,0,0,0-.08H36.7q-11.93.07-21.64.08-7,0-15.06,0v26.36l.5.12a30.1,30.1,0,0,0,7,.82,30.87,30.87,0,0,0,15.06-3.93A30.42,30.42,0,0,0,35.75,128c.19-.4.36-.81.53-1.22s.29-.72.42-1.09.27-.7.38-1.06.23-.71.33-1.07.21-.71.29-1.07.18-.72.26-1.09.15-.71.21-1.07.13-.71.17-1.07a.06.06,0,0,0,0,0Zm41.21-.48h-.39l-9.91.12a.31.31,0,0,1,0,.1,4,4,0,0,1-.06.5.49.49,0,0,1,0,.12c0,.37-.09.74-.15,1.1s-.1.73-.16,1.09-.12.73-.19,1.1-.14.73-.22,1.1a57.77,57.77,0,0,1-4.34,13.21,57.65,57.65,0,0,1-24.94,26.74A58.57,58.57,0,0,1,.5,170l-.5-.09v8.25l.5.08a67,67,0,0,0,11.26.94,67.77,67.77,0,0,0,33-8.61,66.72,66.72,0,0,0,28.87-30.95,68.05,68.05,0,0,0,5.39-17.23c.06-.37.13-.74.18-1.12s.12-.73.16-1.1.11-.74.14-1.11a1.1,1.1,0,0,0,0-.18l.06-.5A.37.37,0,0,0,79.62,118.24Z"/><path d="M13.63,21A87.94,87.94,0,0,0,0,22.08v8a80.64,80.64,0,0,1,13.87-1.18A78.56,78.56,0,0,1,52.88,39,75.89,75.89,0,0,1,85.51,73.89a82.22,82.22,0,0,1,7.95,35.52,50.65,50.65,0,0,1-.68,8.28c0,.09,0,.17,0,.26L90,118a.37.37,0,0,1,0,.11.25.25,0,0,1,0,.12c0,.17,0,.33,0,.5l0,.27c0,.37-.09.74-.14,1.11s-.11.75-.17,1.12a77.07,77.07,0,0,1-6.39,21.27,75.79,75.79,0,0,1-32.8,35.16A76.88,76.88,0,0,1,.5,186.46l-.5-.08v8.24l.5.08a85.08,85.08,0,0,0,13.37,1,86.11,86.11,0,0,0,42-11,84.87,84.87,0,0,0,36.73-39.37A86.64,86.64,0,0,0,100,120.09c.05-.37.1-.75.14-1.13,0-.12,0-.25,0-.37l.06-.5s0-.09,0-.13,0-.25,0-.37a94.51,94.51,0,0,0,.51-9.87,86,86,0,0,0-8.06-36A84.48,84.48,0,0,0,56,32,86,86,0,0,0,13.63,21ZM59,118.39h-.62l-9.69.09a.08.08,0,0,1,0,.08.1.1,0,0,1,0,.09c0,.16,0,.33-.05.49h0c0,.37-.11.73-.17,1.09s-.12.73-.19,1.09-.14.73-.22,1.09-.16.72-.25,1.07-.18.72-.29,1.08-.2.73-.31,1.09a40.85,40.85,0,0,1-2,5.19,39.45,39.45,0,0,1-17.08,18.32,40.1,40.1,0,0,1-19.55,5.1,39,39,0,0,1-8.09-.83l-.5-.1v8.27c.17,0,.33.07.5.09a48.24,48.24,0,0,0,9.15.86,49.33,49.33,0,0,0,24-6.27,48.52,48.52,0,0,0,21-22.53,50.43,50.43,0,0,0,3.24-9.19c.09-.36.17-.73.25-1.1s.15-.72.22-1.08.15-.72.2-1.09.13-.73.18-1.1.11-.73.16-1.09a.09.09,0,0,1,0-.05c0-.17,0-.33,0-.5a.17.17,0,0,0,0-.1A.11.11,0,0,0,59,118.39Zm-20.61.25s0,0,0-.06H37.08q-12.9.09-23.09.09-6.51,0-14,0v26.41l.5.12a30.1,30.1,0,0,0,7,.82,30.87,30.87,0,0,0,15.06-3.93A30.42,30.42,0,0,0,35.75,128c.19-.4.36-.81.53-1.22s.29-.72.42-1.09.27-.7.38-1.06.23-.71.33-1.07.21-.71.29-1.07.18-.72.26-1.09.15-.71.21-1.07.13-.71.17-1.07a.06.06,0,0,0,0,0l.06-.46A.22.22,0,0,0,38.42,118.64Zm41.21-.5h-.24l-10.06.13a.14.14,0,0,1,0,.09.31.31,0,0,1,0,.1,4,4,0,0,1-.06.5.49.49,0,0,1,0,.12c0,.37-.09.74-.15,1.1s-.1.73-.16,1.09-.12.73-.19,1.1-.14.73-.22,1.1a57.77,57.77,0,0,1-4.34,13.21,57.65,57.65,0,0,1-24.94,26.74A58.57,58.57,0,0,1,.5,170l-.5-.09v8.25l.5.08a67,67,0,0,0,11.26.94,67.77,67.77,0,0,0,33-8.61,66.72,66.72,0,0,0,28.87-30.95,68.05,68.05,0,0,0,5.39-17.23c.06-.37.13-.74.18-1.12s.12-.73.16-1.1.11-.74.14-1.11a1.1,1.1,0,0,0,0-.18l.06-.5a.37.37,0,0,0,0-.11A.31.31,0,0,0,79.63,118.14Z"/><path class="cls-1" d="M59,118.3h-.43l-9.88.11a.09.09,0,0,1,0,.07.08.08,0,0,1,0,.08.1.1,0,0,1,0,.09c0,.16,0,.33-.05.49h0c0,.37-.11.73-.17,1.09s-.12.73-.19,1.09-.14.73-.22,1.09-.16.72-.25,1.07-.18.72-.29,1.08-.2.73-.31,1.09a40.85,40.85,0,0,1-2,5.19,39.45,39.45,0,0,1-17.08,18.32,40.1,40.1,0,0,1-19.55,5.1,39,39,0,0,1-8.09-.83l-.5-.1v8.27c.17,0,.33.07.5.09a48.24,48.24,0,0,0,9.15.86,49.33,49.33,0,0,0,24-6.27,48.52,48.52,0,0,0,21-22.53,50.43,50.43,0,0,0,3.24-9.19c.09-.36.17-.73.25-1.1s.15-.72.22-1.08.15-.72.2-1.09.13-.73.18-1.1.11-.73.16-1.09a.09.09,0,0,1,0-.05c0-.17,0-.33,0-.5a.17.17,0,0,0,0-.1.11.11,0,0,0,0-.08A.14.14,0,0,0,59,118.3Zm-20.62.28a.09.09,0,0,0,0-.07h-1q-13.89.12-24.49.11-6,0-12.92,0v26.46l.5.12a30.1,30.1,0,0,0,7,.82,30.87,30.87,0,0,0,15.06-3.93A30.42,30.42,0,0,0,35.75,128c.19-.4.36-.81.53-1.22s.29-.72.42-1.09.27-.7.38-1.06.23-.71.33-1.07.21-.71.29-1.07.18-.72.26-1.09.15-.71.21-1.07.13-.71.17-1.07a.06.06,0,0,0,0,0l.06-.46a.22.22,0,0,0,0-.08S38.43,118.6,38.42,118.58ZM79.64,118h-.11l-10.19.15a3225414726992.09,3225414726992.09,0,0,0,0,.18.31.31,0,0,1,0,.1,4,4,0,0,1-.06.5.49.49,0,0,1,0,.12c0,.37-.09.74-.15,1.1s-.1.73-.16,1.09-.12.73-.19,1.1-.14.73-.22,1.1a57.77,57.77,0,0,1-4.34,13.21,57.65,57.65,0,0,1-24.94,26.74A58.57,58.57,0,0,1,.5,170l-.5-.09v8.25l.5.08a67,67,0,0,0,11.26.94,67.77,67.77,0,0,0,33-8.61,66.72,66.72,0,0,0,28.87-30.95,68.05,68.05,0,0,0,5.39-17.23c.06-.37.13-.74.18-1.12s.12-.73.16-1.1.11-.74.14-1.11a1.1,1.1,0,0,0,0-.18l.06-.5a.37.37,0,0,0,0-.11.31.31,0,0,0,0-.1A.2.2,0,0,0,79.64,118Z"/><path d="M59.05,118.21h-.26l-10,.12a.14.14,0,0,1,0,.09.09.09,0,0,1,0,.07.08.08,0,0,1,0,.08.1.1,0,0,1,0,.09c0,.16,0,.33-.05.49h0c0,.37-.11.73-.17,1.09s-.12.73-.19,1.09-.14.73-.22,1.09-.16.72-.25,1.07-.18.72-.29,1.08-.2.73-.31,1.09a40.85,40.85,0,0,1-2,5.19,39.45,39.45,0,0,1-17.08,18.32,40.1,40.1,0,0,1-19.55,5.1,39,39,0,0,1-8.09-.83l-.5-.1v8.27c.17,0,.33.07.5.09a48.24,48.24,0,0,0,9.15.86,49.33,49.33,0,0,0,24-6.27,48.52,48.52,0,0,0,21-22.53,50.43,50.43,0,0,0,3.24-9.19c.09-.36.17-.73.25-1.1s.15-.72.22-1.08.15-.72.2-1.09.13-.73.18-1.1.11-.73.16-1.09a.09.09,0,0,1,0-.05c0-.17,0-.33,0-.5a.17.17,0,0,0,0-.1.11.11,0,0,0,0-.08.14.14,0,0,0,0-.09A.14.14,0,0,0,59.05,118.21Zm-20.62.3a.17.17,0,0,0,0-.07H37.7q-14.93.12-25.85.13-5.49,0-11.85,0v26.51l.5.12a30.1,30.1,0,0,0,7,.82,30.87,30.87,0,0,0,15.06-3.93A30.42,30.42,0,0,0,35.75,128c.19-.4.36-.81.53-1.22s.29-.72.42-1.09.27-.7.38-1.06.23-.71.33-1.07.21-.71.29-1.07.18-.72.26-1.09.15-.71.21-1.07.13-.71.17-1.07a.06.06,0,0,0,0,0l.06-.46a.22.22,0,0,0,0-.08s0,0,0-.06A.09.09,0,0,0,38.43,118.51ZM11.57,41.82A69.22,69.22,0,0,0,0,42.78V49A63.75,63.75,0,0,1,11.76,48a61.7,61.7,0,0,1,30.66,8A59.67,59.67,0,0,1,68.07,83.37a64.6,64.6,0,0,1,6.25,27.92,38.53,38.53,0,0,1-.56,6.63.28.28,0,0,1,0,.09l-4.4.07a.16.16,0,0,1,0,.1,3225414726992.09,3225414726992.09,0,0,0,0,.18.31.31,0,0,1,0,.1,4,4,0,0,1-.06.5.49.49,0,0,1,0,.12c0,.37-.09.74-.15,1.1s-.1.73-.16,1.09-.12.73-.19,1.1-.14.73-.22,1.1a57.77,57.77,0,0,1-4.34,13.21,57.65,57.65,0,0,1-24.94,26.74A58.57,58.57,0,0,1,.5,170l-.5-.09v8.25l.5.08a67,67,0,0,0,11.26.94,67.77,67.77,0,0,0,33-8.61,66.72,66.72,0,0,0,28.87-30.95,68.05,68.05,0,0,0,5.39-17.23c.06-.37.13-.74.18-1.12s.12-.73.16-1.1.11-.74.14-1.11a1.1,1.1,0,0,0,0-.18l.06-.5a.37.37,0,0,0,0-.11.31.31,0,0,0,0-.1.2.2,0,0,0,0-.11.55.55,0,0,0,0-.18,70.73,70.73,0,0,0,.43-7.89,67.59,67.59,0,0,0-6.34-28.3A66.33,66.33,0,0,0,44.88,50.43,67.56,67.56,0,0,0,11.57,41.82Z"/><path class="cls-1" d="M59.06,118.12H59l-10.2.13a.11.11,0,0,1,0,.08.14.14,0,0,1,0,.09.09.09,0,0,1,0,.07.08.08,0,0,1,0,.08.1.1,0,0,1,0,.09c0,.16,0,.33-.05.49h0c0,.37-.11.73-.17,1.09s-.12.73-.19,1.09-.14.73-.22,1.09-.16.72-.25,1.07-.18.72-.29,1.08-.2.73-.31,1.09a40.85,40.85,0,0,1-2,5.19,39.45,39.45,0,0,1-17.08,18.32,40.1,40.1,0,0,1-19.55,5.1,39,39,0,0,1-8.09-.83l-.5-.1v8.27c.17,0,.33.07.5.09a48.24,48.24,0,0,0,9.15.86,49.33,49.33,0,0,0,24-6.27,48.52,48.52,0,0,0,21-22.53,50.43,50.43,0,0,0,3.24-9.19c.09-.36.17-.73.25-1.1s.15-.72.22-1.08.15-.72.2-1.09.13-.73.18-1.1.11-.73.16-1.09a.09.09,0,0,1,0-.05c0-.17,0-.33,0-.5a.17.17,0,0,0,0-.1.11.11,0,0,0,0-.08.14.14,0,0,0,0-.09,921547064860.67,921547064860.67,0,0,1,0-.18Zm-20.62.32a.22.22,0,0,0,0-.08H38q-16,.17-27.18.17L0,118.5v26.55l.5.12a30.1,30.1,0,0,0,7,.82,30.87,30.87,0,0,0,15.06-3.93A30.42,30.42,0,0,0,35.75,128c.19-.4.36-.81.53-1.22s.29-.72.42-1.09.27-.7.38-1.06.23-.71.33-1.07.21-.71.29-1.07.18-.72.26-1.09.15-.71.21-1.07.13-.71.17-1.07a.06.06,0,0,0,0,0l.06-.46a.22.22,0,0,0,0-.08s0,0,0-.06a.09.09,0,0,0,0-.07A.17.17,0,0,0,38.44,118.44Z"/><path d="M9.51,62.61A50,50,0,0,0,0,63.5v4.58a46.21,46.21,0,0,1,9.65-1A44.92,44.92,0,0,1,32,72.87a43.44,43.44,0,0,1,18.67,20,47.12,47.12,0,0,1,4.54,20.32,28.51,28.51,0,0,1-.41,4.9l-6,.08h0a.14.14,0,0,1,0,.09.11.11,0,0,1,0,.08.14.14,0,0,1,0,.09.09.09,0,0,1,0,.07.08.08,0,0,1,0,.08.1.1,0,0,1,0,.09c0,.16,0,.33-.05.49h0c0,.37-.11.73-.17,1.09s-.12.73-.19,1.09-.14.73-.22,1.09-.16.72-.25,1.07-.18.72-.29,1.08-.2.73-.31,1.09a40.85,40.85,0,0,1-2,5.19,39.45,39.45,0,0,1-17.08,18.32,40.1,40.1,0,0,1-19.55,5.1,39,39,0,0,1-8.09-.83l-.5-.1v8.27c.17,0,.33.07.5.09a48.24,48.24,0,0,0,9.15.86,49.33,49.33,0,0,0,24-6.27,48.52,48.52,0,0,0,21-22.53,50.43,50.43,0,0,0,3.24-9.19c.09-.36.17-.73.25-1.1s.15-.72.22-1.08.15-.72.2-1.09.13-.73.18-1.1.11-.73.16-1.09a.09.09,0,0,1,0-.05c0-.17,0-.33,0-.5a.17.17,0,0,0,0-.1.11.11,0,0,0,0-.08.14.14,0,0,0,0-.09,921547064860.67,921547064860.67,0,0,1,0-.18.09.09,0,0,0,0-.05,53.81,53.81,0,0,0,.32-5.86,49.18,49.18,0,0,0-4.62-20.6,48.31,48.31,0,0,0-21-22.73A49.19,49.19,0,0,0,9.51,62.61Zm28.94,55.75a.17.17,0,0,0,0-.07h-.29q-17.15.18-28.46.19c-3,0-6.2,0-9.71,0v26.61l.5.12a30.1,30.1,0,0,0,7,.82,30.87,30.87,0,0,0,15.06-3.93A30.42,30.42,0,0,0,35.75,128c.19-.4.36-.81.53-1.22s.29-.72.42-1.09.27-.7.38-1.06.23-.71.33-1.07.21-.71.29-1.07.18-.72.26-1.09.15-.71.21-1.07.13-.71.17-1.07a.06.06,0,0,0,0,0l.06-.46a.22.22,0,0,0,0-.08s0,0,0-.06a.09.09,0,0,0,0-.07.17.17,0,0,0,0-.07A.22.22,0,0,0,38.45,118.36Z"/><path class="cls-1" d="M38.47,118.18h-.12l-6.66.08h-.78q-13.35.17-22.26.16L0,118.4v26.65l.5.12a30.1,30.1,0,0,0,7,.82,30.87,30.87,0,0,0,15.06-3.93A30.42,30.42,0,0,0,35.75,128c.19-.4.36-.81.53-1.22s.29-.72.42-1.09.27-.7.38-1.06.23-.71.33-1.07.21-.71.29-1.07.18-.72.26-1.09.15-.71.21-1.07.13-.71.17-1.07a.06.06,0,0,0,0,0l.06-.46a.22.22,0,0,0,0-.08s0,0,0-.06a.09.09,0,0,0,0-.07.17.17,0,0,0,0-.07.22.22,0,0,0,0-.08,2538684499571.19,2538684499571.19,0,0,0,0-.14S38.48,118.19,38.47,118.18Z"/><path d="M7.45,83.4A30.76,30.76,0,0,0,0,84.29v2.9a28.71,28.71,0,0,1,7.53-1,28.18,28.18,0,0,1,14,3.62A27.26,27.26,0,0,1,33.2,102.33a29.48,29.48,0,0,1,2.85,12.73,18.41,18.41,0,0,1-.26,3.06q-7.84.1-14.23.17h-.25q-8,.09-13.73.09l-7.58,0v26.7l.5.12a30.1,30.1,0,0,0,7,.82,30.87,30.87,0,0,0,15.06-3.93A30.42,30.42,0,0,0,35.75,128c.19-.4.36-.81.53-1.22s.29-.72.42-1.09.27-.7.38-1.06.23-.71.33-1.07.21-.71.29-1.07.18-.72.26-1.09.15-.71.21-1.07.13-.71.17-1.07a.06.06,0,0,0,0,0l.06-.46a.22.22,0,0,0,0-.08s0,0,0-.06a.09.09,0,0,0,0-.07.17.17,0,0,0,0-.07.22.22,0,0,0,0-.08,2538684499571.19,2538684499571.19,0,0,0,0-.14s0,0,0,0a32.78,32.78,0,0,0,.21-3.73,30.86,30.86,0,0,0-2.89-12.89A30.28,30.28,0,0,0,22.63,87.32,30.75,30.75,0,0,0,7.45,83.4Z"/></g></g></svg>