<svg fill="none" height="213" viewBox="0 0 248 213" width="248" xmlns="http://www.w3.org/2000/svg" xmlns:xlink="http://www.w3.org/1999/xlink"><clipPath id="a"><path d="m0 0h247.77v212.55h-247.77z"/></clipPath><g clip-path="url(#a)" fill="#fff"><path d="m147.6 118.59v.37c0 .38.09.76.14 1.13 1.15 8.767 3.636 17.306 7.37 25.32 7.646 16.762 20.538 30.581 36.73 39.37 12.831 7.194 27.29 10.981 42 11 4.476.019 8.947-.315 13.37-1l.5-.08v-8.24l-.5.08c-17.13 2.776-34.696-.326-49.84-8.8-14.46-7.849-25.973-20.19-32.8-35.16-3.146-6.744-5.298-13.909-6.39-21.27-.06-.37-.12-.75-.17-1.12s-.1-.74-.14-1.11v-.27c0-.17 0-.33-.05-.5l-10.07-.14h-.24zm41.21.48c.005.016.005.034 0 .05.05.36.1.73.16 1.09s.11.74.18 1.1.12.73.2 1.09.14.73.22 1.08.16.74.25 1.1c.781 3.161 1.866 6.238 3.24 9.19 4.367 9.591 11.739 17.5 21 22.53 7.335 4.1 15.597 6.258 24 6.27 3.07.005 6.134-.283 9.15-.86.17 0 .33-.06.5-.09v-8.27l-.5.1c-2.66.558-5.372.836-8.09.83-6.845-.004-13.575-1.759-19.55-5.1-7.532-4.089-13.528-10.52-17.08-18.32-.784-1.683-1.452-3.417-2-5.19-.11-.36-.22-.72-.31-1.09s-.2-.72-.29-1.08-.17-.71-.25-1.07-.15-.72-.22-1.09-.13-.72-.19-1.09-.12-.72-.17-1.09c0-.16 0-.33-.05-.49l-9.24-.08h-1.07c.07.15.09.31.11.48zm20.62.15c0 .36.1.71.17 1.07s.13.72.21 1.07.16.73.26 1.09.18.72.29 1.07.21.72.33 1.07.24.71.38 1.06.27.73.42 1.09.34.82.53 1.22c2.741 6.003 7.36 10.952 13.16 14.1 4.601 2.578 9.786 3.935 15.06 3.94 2.357.002 4.707-.274 7-.82l.5-.12v-26.3c-5.747 0-11.133 0-16.16 0-6.113 0-12.82-.02-20.12-.06h-2.13l.06.46c-.001.013.003.026.01.037.007.01.018.019.03.023zm-41.21-.37c-.005.06-.005.12 0 .18 0 .37.08.74.14 1.11s.1.73.16 1.1.12.75.18 1.12c1.023 5.957 2.836 11.752 5.39 17.23 6.02 13.183 16.168 24.047 28.91 30.95 10.086 5.636 21.446 8.6 33 8.61 3.773.004 7.54-.31 11.26-.94l.5-.08v-8.25l-.5.09c-13.282 2.342-26.966.029-38.74-6.55-7.484-4.139-13.979-9.855-19.035-16.754-5.056-6.898-8.552-14.813-10.245-23.196-.08-.37-.15-.73-.22-1.1s-.13-.73-.19-1.1-.12-.72-.16-1.09-.11-.73-.15-1.1c-.005-.04-.005-.08 0-.12-.03-.165-.051-.332-.06-.5l-9.74-.1h-.56zm12.27-105.52c-19.791 10.7788-35.49 27.7638-44.68 48.34-6.398 13.719-9.745 28.6624-9.81 43.8-.092 15.834 3.324 31.492 10 45.85 9.86 20.993 24.753 36.96 44.68 47.9 20.403 11.402 44.029 15.664 67.13 12.11v-8.47l-.5.07c-4.774.739-9.599 1.106-14.43 1.1-16.285-.005-32.297-4.181-46.51-12.13-18.133-9.953-31.687-24.48-40.66-43.58-4.324-9.286-7.133-19.205-8.32-29.38l-.06-.5-.06-.5h-1.42c-.585-3.436-.879-6.915-.88-10.4-.046-14.945 3.258-29.7102 9.67-43.21 8.31-18.0684 22.234-32.9684 39.7-42.48 14.465-8.1643 30.81-12.41424 47.42-12.33 2.91 0 5.79.12 8.64.38.38 0 .76 0 1.15.1 2.09.2 4.16.46 6.22.81v-9.67c-5.205-.763996-10.459-1.14501907-15.72-1.13999809-18.049-.08223411-35.812 4.51010809-51.56 13.32999809z"/><path d="m188.71 118.12v.18c-.01.029-.01.061 0 .09-.01.026-.01.054 0 .08-.01.033-.01.067 0 .1 0 .17 0 .33.05.5h1l9.29.08c0-.16 0-.33-.05-.49-.007-.014-.011-.029-.011-.045s.004-.031.011-.045c-.007-.012-.011-.026-.011-.04s.004-.028.011-.04c-.005-.011-.007-.023-.007-.035s.002-.024.007-.035c-.01-.029-.01-.061 0-.09-.01-.026-.01-.054 0-.08-.01-.029-.01-.061 0-.09l-9.18-.08h-1.12c0 .014.004.028.01.04zm58.56 51.88v8.24l.5-.08v-8.25zm-38-51.68c-.005.023-.005.047 0 .07-.005.026-.005.054 0 .08-.005.023-.005.047 0 .07-.005.011-.007.023-.007.035s.002.024.007.035v.06c-.005.026-.005.054 0 .08l.06.46h2.06c7.333.04 14.04.06 20.12.06h15.66v25.91l.5-.12v-26.7h-7.58c-3.793 0-8.37-.03-13.73-.09h-.25-9.35-.78-4.59-2.19c.033.019.072.026.11.02zm38 43.42c.17 0 .33-.06.5-.09v-8.27l-.5.1zm0 24.75v8.24l.5-.08v-8.24zm-66.78-173.16c-19.791 10.7788-35.49 27.7638-44.68 48.34-6.398 13.719-9.745 28.6624-9.81 43.8-.092 15.834 3.324 31.492 10 45.85 9.86 20.993 24.753 36.96 44.68 47.9 20.403 11.402 44.029 15.664 67.13 12.11v-8.47l-.5.07v8c-22.862 3.421-46.212-.841-66.39-12.12-19.586-10.666-35.189-27.391-44.47-47.67-6.611-14.302-9.995-29.884-9.91-45.64.3-26.4282 10.309-51.8232 28.12-71.35 9.913-10.603 21.895-19.0599 35.207-24.84773 13.311-5.78787 27.668-8.783704 42.183-8.802268 5.092-.002993 10.178.354568 15.22 1.069998v8.65c-1.78-.29-3.64-.52-5.66-.72-.4-.05-.79-.08-1.16-.1-2.79-.25-5.71-.38-8.69-.38-16.703-.07836-33.14 4.1842-47.7 12.37-17.542 9.585-31.535 24.5594-39.91 42.71-6.43 13.5701-9.75 28.4038-9.72 43.42.002 3.512.3 7.018.89 10.48l.07.41h.41 1.49l-.06-.5h-1.42c-.585-3.436-.879-6.915-.88-10.4-.046-14.945 3.258-29.7102 9.67-43.21 8.31-18.0684 22.234-32.9684 39.7-42.48 14.48-8.1606 30.839-12.40036 47.46-12.3 2.91 0 5.79.12 8.64.38.38 0 .76 0 1.15.1 2.09.2 4.16.46 6.22.81v-9.67c-5.205-.763996-10.459-1.14501907-15.72-1.13999809-18.049-.08223411-35.812 4.51010809-51.56 13.32999809zm-12.36 104.67c-.01.036-.01.074 0 .11-.005.033-.005.067 0 .1-.005.036-.005.074 0 .11l.06.5h1.59l8.71.09c-.03-.165-.051-.332-.06-.5-.005-.033-.005-.067 0-.1 0-.09 0-.09 0-.18-.011-.032-.011-.068 0-.1l-4.43-.03c-.005-.03-.005-.06 0-.09h-4.18-1.72c.007.031.017.061.03.09zm-20.61 0v.13l.06.5h1.26l9 .12c0-.17 0-.33-.05-.5-.01-.039-.01-.081 0-.12-.005-.036-.005-.074 0-.11l-2.79-.02c0-.09 0-.17 0-.26l-6.12-.08h-1.39c.01.05.02.17.03.34z"/><path d="m147.6 118.59v.37c0 .38.09.76.14 1.13 1.15 8.767 3.636 17.306 7.37 25.32 7.646 16.762 20.538 30.581 36.73 39.37 12.831 7.194 27.29 10.981 42 11 4.476.019 8.947-.315 13.37-1l.5-.08v-8.24l-.5.08c-17.13 2.776-34.696-.326-49.84-8.8-14.46-7.849-25.973-20.19-32.8-35.16-3.146-6.744-5.298-13.909-6.39-21.27-.06-.37-.12-.75-.17-1.12s-.1-.74-.14-1.11v-.27c0-.17 0-.33-.05-.5l-10.07-.14h-.24zm41.21.48c.005.016.005.034 0 .05.05.36.1.73.16 1.09s.11.74.18 1.1.12.73.2 1.09.14.73.22 1.08.16.74.25 1.1c.781 3.161 1.866 6.238 3.24 9.19 4.367 9.591 11.739 17.5 21 22.53 7.335 4.1 15.597 6.258 24 6.27 3.07.005 6.134-.283 9.15-.86.17 0 .33-.06.5-.09v-8.27l-.5.1c-2.66.558-5.372.836-8.09.83-6.845-.004-13.575-1.759-19.55-5.1-7.532-4.089-13.528-10.52-17.08-18.32-.784-1.683-1.452-3.417-2-5.19-.11-.36-.22-.72-.31-1.09s-.2-.72-.29-1.08-.17-.71-.25-1.07-.15-.72-.22-1.09-.13-.72-.19-1.09-.12-.72-.17-1.09c0-.16 0-.33-.05-.49l-9.24-.08h-1.07c.07.15.09.31.11.48zm20.62.15c0 .36.1.71.17 1.07s.13.72.21 1.07.16.73.26 1.09.18.72.29 1.07.21.72.33 1.07.24.71.38 1.06.27.73.42 1.09.34.82.53 1.22c2.741 6.003 7.36 10.952 13.16 14.1 4.601 2.578 9.786 3.935 15.06 3.94 2.357.002 4.707-.274 7-.82l.5-.12v-26.3c-5.747 0-11.133 0-16.16 0-6.113 0-12.82-.02-20.12-.06h-2.13l.06.46c-.001.013.003.026.01.037.007.01.018.019.03.023zm-41.21-.37c-.005.06-.005.12 0 .18 0 .37.08.74.14 1.11s.1.73.16 1.1.12.75.18 1.12c1.023 5.957 2.836 11.752 5.39 17.23 6.02 13.183 16.168 24.047 28.91 30.95 10.086 5.636 21.446 8.6 33 8.61 3.773.004 7.54-.31 11.26-.94l.5-.08v-8.25l-.5.09c-13.282 2.342-26.966.029-38.74-6.55-7.484-4.139-13.979-9.855-19.035-16.754-5.056-6.898-8.552-14.813-10.245-23.196-.08-.37-.15-.73-.22-1.1s-.13-.73-.19-1.1-.12-.72-.16-1.09-.11-.73-.15-1.1c-.005-.04-.005-.08 0-.12-.03-.165-.051-.332-.06-.5l-9.74-.1h-.56zm12.27-105.52c-19.791 10.7788-35.49 27.7638-44.68 48.34-6.398 13.719-9.745 28.6624-9.81 43.8-.092 15.834 3.324 31.492 10 45.85 9.86 20.993 24.753 36.96 44.68 47.9 20.403 11.402 44.029 15.664 67.13 12.11v-8.47l-.5.07c-4.774.739-9.599 1.106-14.43 1.1-16.285-.005-32.297-4.181-46.51-12.13-18.133-9.953-31.687-24.48-40.66-43.58-4.324-9.286-7.133-19.205-8.32-29.38l-.06-.5-.06-.5h-1.42c-.585-3.436-.879-6.915-.88-10.4-.046-14.945 3.258-29.7102 9.67-43.21 8.31-18.0684 22.234-32.9684 39.7-42.48 14.465-8.1643 30.81-12.41424 47.42-12.33 2.91 0 5.79.12 8.64.38.38 0 .76 0 1.15.1 2.09.2 4.16.46 6.22.81v-9.67c-5.205-.763996-10.459-1.14501907-15.72-1.13999809-18.049-.08223411-35.812 4.51010809-51.56 13.32999809z"/><path d="m147.54 118.09.06.5v.37c0 .38.09.76.14 1.13 1.15 8.767 3.636 17.306 7.37 25.32 7.646 16.762 20.538 30.581 36.73 39.37 12.831 7.194 27.29 10.981 42 11 4.476.019 8.947-.315 13.37-1l.5-.08v-8.24l-.5.08c-17.13 2.776-34.696-.326-49.84-8.8-14.46-7.849-25.973-20.19-32.8-35.16-3.146-6.744-5.298-13.909-6.39-21.27-.06-.37-.12-.75-.17-1.12s-.1-.74-.14-1.11v-.27c0-.17 0-.33-.05-.5-.01-.039-.01-.081 0-.12l-10.18-.19h-.12s.01.05.02.09zm41.22.48c0 .17 0 .33.05.5.005.016.005.034 0 .05.05.36.1.73.16 1.09s.11.74.18 1.1.12.73.2 1.09.14.73.22 1.08.16.74.25 1.1c.781 3.161 1.866 6.238 3.24 9.19 4.367 9.591 11.739 17.5 21 22.53 7.335 4.1 15.597 6.258 24 6.27 3.07.005 6.134-.283 9.15-.86.17 0 .33-.06.5-.09v-8.27l-.5.1c-2.66.558-5.372.836-8.09.83-6.845-.004-13.575-1.759-19.55-5.1-7.532-4.089-13.528-10.52-17.08-18.32-.784-1.683-1.452-3.417-2-5.19-.11-.36-.22-.72-.31-1.09s-.2-.72-.29-1.08-.17-.71-.25-1.07-.15-.72-.22-1.09-.13-.72-.19-1.09-.12-.72-.17-1.09c0-.16 0-.33-.05-.49-.007-.014-.011-.029-.011-.045s.004-.031.011-.045l-9.48-.09h-.83c.012.032.032.06.06.08zm20.66.61c0 .36.1.71.17 1.07s.13.72.21 1.07.16.73.26 1.09.18.72.29 1.07.21.72.33 1.07.24.71.38 1.06.27.73.42 1.09.34.82.53 1.22c2.741 6.003 7.36 10.952 13.16 14.1 4.6 2.594 9.789 3.964 15.07 3.98 2.357.002 4.707-.274 7-.82l.5-.12v-26.37c-5.333 0-10.353 0-15.06 0-6.48 0-13.693-.027-21.64-.08h-1.72c-.005.026-.005.054 0 .08zm-41.26-.83.06.5c-.005.06-.005.12 0 .18 0 .37.08.74.14 1.11s.1.73.16 1.1.12.75.18 1.12c1.023 5.957 2.836 11.752 5.39 17.23 6.02 13.183 16.168 24.047 28.91 30.95 10.086 5.636 21.446 8.6 33 8.61 3.773.004 7.54-.31 11.26-.94l.5-.08v-8.25l-.5.09c-13.282 2.342-26.966.029-38.74-6.55-7.484-4.139-13.979-9.855-19.035-16.754-5.056-6.898-8.552-14.813-10.245-23.196-.08-.37-.15-.73-.22-1.1s-.13-.73-.19-1.1-.12-.72-.16-1.09-.11-.73-.15-1.1c-.005-.04-.005-.08 0-.12-.03-.165-.051-.332-.06-.5-.005-.033-.005-.067 0-.1l-9.91-.12h-.39c-.005.036-.005.074 0 .11z"/><path d="m191.76 32c-16.277 8.8507-29.194 22.8071-36.76 39.72-5.259 11.2757-8.009 23.5583-8.06 36-.002 3.297.168 6.591.51 9.87v.37.13l.06.5v.37c0 .38.09.76.14 1.13 1.15 8.767 3.636 17.306 7.37 25.32 7.646 16.762 20.538 30.581 36.73 39.37 12.831 7.194 27.29 10.981 42 11 4.476.019 8.947-.315 13.37-1l.5-.08v-8.24l-.5.08c-17.13 2.776-34.696-.326-49.84-8.8-14.46-7.849-25.973-20.19-32.8-35.16-3.146-6.744-5.298-13.909-6.39-21.27-.06-.37-.12-.75-.17-1.12s-.1-.74-.14-1.11v-.27c0-.17 0-.33-.05-.5-.01-.039-.01-.081 0-.12-.005-.036-.005-.074 0-.11l-2.73-.08c0-.09 0-.17 0-.26-.453-2.737-.68-5.506-.68-8.28-.037-12.2852 2.68-24.4226 7.95-35.52 6.826-14.8564 18.267-27.1111 32.62-34.94 11.899-6.7064 25.341-10.1944 39-10.12 4.65-.0276 9.294.3472 13.88 1.12v-8c-4.511-.6864-9.068-1.0207-13.63-1-14.839-.051-29.439 3.7384-42.38 11zm-3 86.49c-.01.033-.01.067 0 .1 0 .17 0 .33.05.5.005.016.005.034 0 .05.05.36.1.73.16 1.09s.11.74.18 1.1.12.73.2 1.09.14.73.22 1.08.16.74.25 1.1c.781 3.161 1.866 6.238 3.24 9.19 4.367 9.591 11.739 17.5 21 22.53 7.335 4.1 15.597 6.258 24 6.27 3.07.005 6.134-.283 9.15-.86.17 0 .33-.06.5-.09v-8.27l-.5.1c-2.66.558-5.372.836-8.09.83-6.845-.004-13.575-1.759-19.55-5.1-7.532-4.089-13.528-10.52-17.08-18.32-.784-1.683-1.452-3.417-2-5.19-.11-.36-.22-.72-.31-1.09s-.2-.72-.29-1.08-.17-.71-.25-1.07-.15-.72-.22-1.09-.13-.72-.19-1.09-.12-.72-.17-1.09c0-.16 0-.33-.05-.49-.007-.014-.011-.029-.011-.045s.004-.031.011-.045c-.007-.012-.011-.026-.011-.04s.004-.028.011-.04l-9.69-.09h-.62c.012.018.03.032.05.04zm20.61.25.06.46c0 .36.1.71.17 1.07s.13.72.21 1.07.16.73.26 1.09.18.72.29 1.07.21.72.33 1.07.24.71.38 1.06.27.73.42 1.09.34.82.53 1.22c2.741 6.003 7.36 10.952 13.16 14.1 4.599 2.585 9.784 3.949 15.06 3.96 2.357.002 4.707-.273 7-.82l.5-.12v-26.42c-4.993 0-9.66 0-14 0-6.787 0-14.483-.03-23.09-.09h-1.34v.06c.006.041.023.079.05.11zm-41.21-.48c-.005.036-.005.074 0 .11l.06.5c-.005.06-.005.12 0 .18 0 .37.08.74.14 1.11s.1.73.16 1.1.12.75.18 1.12c1.023 5.957 2.836 11.752 5.39 17.23 6.023 13.175 16.171 24.032 28.91 30.93 10.086 5.636 21.446 8.6 33 8.61 3.773.004 7.54-.31 11.26-.94l.5-.08v-8.25l-.5.09c-13.282 2.342-26.966.029-38.74-6.55-7.484-4.139-13.979-9.855-19.035-16.754-5.056-6.898-8.552-14.813-10.245-23.196-.08-.37-.15-.73-.22-1.1s-.13-.73-.19-1.1-.12-.72-.16-1.09-.11-.73-.15-1.1c-.005-.04-.005-.08 0-.12-.03-.165-.051-.332-.06-.5-.005-.033-.005-.067 0-.1-.01-.029-.01-.061 0-.09l-10.06-.13h-.24c-.009.033-.012.066-.01.1z"/><path d="m188.74 118.39c-.01.026-.01.054 0 .08-.01.033-.01.067 0 .1 0 .17 0 .33.05.5.005.016.005.034 0 .05.05.36.1.73.16 1.09s.11.74.18 1.1.12.73.2 1.09.14.73.22 1.08.16.74.25 1.1c.781 3.161 1.866 6.238 3.24 9.19 4.367 9.591 11.739 17.5 21 22.53 7.335 4.1 15.597 6.258 24 6.27 3.07.005 6.134-.283 9.15-.86.17 0 .33-.06.5-.09v-8.27l-.5.1c-2.66.558-5.372.836-8.09.83-6.845-.004-13.575-1.759-19.55-5.1-7.532-4.089-13.528-10.52-17.08-18.32-.784-1.683-1.452-3.417-2-5.19-.11-.36-.22-.72-.31-1.09s-.2-.72-.29-1.08-.17-.71-.25-1.07-.15-.72-.22-1.09-.13-.72-.19-1.09-.12-.72-.17-1.09c0-.16 0-.33-.05-.49-.007-.014-.011-.029-.011-.045s.004-.031.011-.045c-.007-.012-.011-.026-.011-.04s.004-.028.011-.04c-.005-.011-.007-.023-.007-.035s.002-.024.007-.035l-9.88-.11h-.43c.012.029.033.054.06.07zm20.61.25c-.005.026-.005.054 0 .08l.06.46c0 .36.1.71.17 1.07s.13.72.21 1.07.16.73.26 1.09.18.72.29 1.07.21.72.33 1.07.24.71.38 1.06.27.73.42 1.09.34.82.53 1.22c2.741 6.003 7.36 10.952 13.16 14.1 4.603 2.596 9.796 3.966 15.08 3.98 2.357.002 4.707-.274 7-.82l.5-.12v-26.47c-4.613 0-8.92 0-12.92 0-7.067 0-15.23-.037-24.49-.11h-1c-.005.011-.007.023-.007.035s.002.024.007.035c0 0 .02.07.02.09zm-41.21-.5c-.005.033-.005.067 0 .1-.005.036-.005.074 0 .11l.06.5c-.005.06-.005.12 0 .18 0 .37.08.74.14 1.11s.1.73.16 1.1.12.75.18 1.12c1.023 5.957 2.836 11.752 5.39 17.23 6.025 13.186 16.18 24.05 28.93 30.95 10.086 5.636 21.446 8.6 33 8.61 3.773.004 7.54-.31 11.26-.94l.5-.08v-8.25l-.5.09c-13.282 2.342-26.966.029-38.74-6.55-7.484-4.139-13.979-9.855-19.035-16.754-5.056-6.898-8.552-14.813-10.245-23.196-.08-.37-.15-.73-.22-1.1s-.13-.73-.19-1.1-.12-.72-.16-1.09-.11-.73-.15-1.1c-.005-.04-.005-.08 0-.12-.03-.165-.051-.332-.06-.5-.005-.033-.005-.067 0-.1 0-.09 0-.09 0-.18l-10.22-.18h-.11c-.014.046-.01.096.01.14z"/><path d="m188.73 118.3c-.01.029-.01.061 0 .09-.01.026-.01.054 0 .08-.01.033-.01.067 0 .1 0 .17 0 .33.05.5.005.016.005.034 0 .05.05.36.1.73.16 1.09s.11.74.18 1.1.12.73.2 1.09.14.73.22 1.08.16.74.25 1.1c.781 3.161 1.866 6.238 3.24 9.19 4.367 9.591 11.739 17.5 21 22.53 7.335 4.1 15.597 6.258 24 6.27 3.07.005 6.134-.283 9.15-.86.17 0 .33-.06.5-.09v-8.27l-.5.1c-2.66.558-5.372.836-8.09.83-6.845-.004-13.575-1.759-19.55-5.1-7.532-4.089-13.528-10.52-17.08-18.32-.784-1.683-1.452-3.417-2-5.19-.11-.36-.22-.72-.31-1.09s-.2-.72-.29-1.08-.17-.71-.25-1.07-.15-.72-.22-1.09-.13-.72-.19-1.09-.12-.72-.17-1.09c0-.16 0-.33-.05-.49-.007-.014-.011-.029-.011-.045s.004-.031.011-.045c-.007-.012-.011-.026-.011-.04s.004-.028.011-.04c-.005-.011-.007-.023-.007-.035s.002-.024.007-.035c-.01-.029-.01-.061 0-.09l-9.98-.13h-.26c-.013.028-.017.06-.01.09zm20.62.28v.06c-.005.026-.005.054 0 .08l.06.46c0 .36.1.71.17 1.07s.13.72.21 1.07.16.73.26 1.09.18.72.29 1.07.21.72.33 1.07.24.71.38 1.06.27.73.42 1.09.34.82.53 1.22c2.741 6.003 7.36 10.952 13.16 14.1 4.603 2.596 9.796 3.966 15.08 3.98 2.357.002 4.707-.273 7-.82l.5-.12v-26.52c-4.24 0-8.19 0-11.85 0-7.287 0-15.903-.043-25.85-.13h-.74c-.005.023-.005.047 0 .07-.004.02-.001.041.008.059s.024.032.042.041zm-6.46-68.15c-12.798 6.9556-22.95 17.9303-28.89 31.23-4.136 8.8635-6.299 18.519-6.34 28.3-.004 2.636.14 5.27.43 7.89-.01.06-.01.12 0 .18-.01.036-.01.074 0 .11-.005.033-.005.067 0 .1-.005.036-.005.074 0 .11l.06.5c-.005.06-.005.12 0 .18 0 .37.08.74.14 1.11s.1.73.16 1.1.12.75.18 1.12c1.023 5.957 2.836 11.752 5.39 17.23 6.038 13.193 16.212 24.059 28.98 30.95 10.086 5.636 21.446 8.6 33 8.61 3.773.004 7.54-.31 11.26-.94l.5-.08v-8.25l-.5.09c-13.282 2.342-26.966.029-38.74-6.55-7.484-4.139-13.979-9.855-19.035-16.754-5.056-6.898-8.552-14.813-10.245-23.196-.08-.37-.15-.73-.22-1.1s-.13-.73-.19-1.1-.12-.72-.16-1.09-.11-.73-.15-1.1c-.005-.04-.005-.08 0-.12-.03-.165-.051-.332-.06-.5-.005-.033-.005-.067 0-.1 0-.09 0-.09 0-.18-.011-.032-.011-.068 0-.1l-4.46-.08c-.005-.03-.005-.06 0-.09-.377-2.19-.565-4.408-.56-6.63-.03-9.657 2.106-19.1975 6.25-27.92 5.371-11.6731 14.367-21.3005 25.65-27.45 9.358-5.2588 19.926-7.9853 30.66-7.91 3.946-.0316 7.886.3031 11.77 1v-6.22c-3.822-.6568-7.692-.9913-11.57-1-11.664-.0404-23.14 2.9396-33.31 8.65z"/><path d="m188.72 118.21v.18c-.01.026-.01.054 0 .08-.01.033-.01.067 0 .1 0 .17 0 .33.05.5.005.016.005.034 0 .05.05.36.1.73.16 1.09s.11.74.18 1.1.12.73.2 1.09.14.73.22 1.08.16.74.25 1.1c.781 3.161 1.866 6.238 3.24 9.19 4.367 9.591 11.739 17.5 21 22.53 7.335 4.1 15.597 6.258 24 6.27 3.07.005 6.134-.283 9.15-.86.17 0 .33-.06.5-.09v-8.27l-.5.1c-2.66.558-5.372.836-8.09.83-6.845-.004-13.575-1.759-19.55-5.1-7.532-4.089-13.528-10.52-17.08-18.32-.784-1.683-1.452-3.417-2-5.19-.11-.36-.22-.72-.31-1.09s-.2-.72-.29-1.08-.17-.71-.25-1.07-.15-.72-.22-1.09-.13-.72-.19-1.09-.12-.72-.17-1.09c0-.16 0-.33-.05-.49-.007-.014-.011-.029-.011-.045s.004-.031.011-.045c-.007-.012-.011-.026-.011-.04s.004-.028.011-.04c-.005-.011-.007-.023-.007-.035s.002-.024.007-.035c-.01-.029-.01-.061 0-.09-.01-.026-.01-.054 0-.08l-10.2-.13h-.11c.009.033.031.062.06.08zm20.62.3c-.005.011-.007.023-.007.035s.002.024.007.035v.06c-.005.026-.005.054 0 .08l.06.46c0 .36.1.71.17 1.07s.13.72.21 1.07.16.73.26 1.09.18.72.29 1.07.21.72.33 1.07.24.71.38 1.06.27.73.42 1.09.34.82.53 1.22c2.741 6.003 7.36 10.952 13.16 14.1 4.606 2.597 9.802 3.968 15.09 3.98 2.357.002 4.707-.274 7-.82l.5-.12v-26.56h-10.78c-7.46 0-16.52-.057-27.18-.17h-.49c-.005.026-.005.054 0 .08.005.038.023.073.05.1z"/><path d="m214 68.88c-9.303 5.0691-16.682 13.0556-21 22.73-3.013 6.4513-4.589 13.48-4.62 20.6 0 1.958.107 3.914.32 5.86-.005.016-.005.034 0 .05v.18c-.01.029-.01.061 0 .09-.01.026-.01.054 0 .08-.01.033-.01.067 0 .1 0 .17 0 .33.05.5.005.016.005.034 0 .05.05.36.1.73.16 1.09s.11.74.18 1.1.12.73.2 1.09.14.73.22 1.08.16.74.25 1.1c.781 3.161 1.866 6.238 3.24 9.19 4.367 9.591 11.739 17.5 21 22.53 7.335 4.1 15.597 6.258 24 6.27 3.07.005 6.134-.283 9.15-.86.17 0 .33-.06.5-.09v-8.27l-.5.1c-2.66.558-5.372.836-8.09.83-6.845-.004-13.575-1.759-19.55-5.1-7.532-4.089-13.528-10.52-17.08-18.32-.784-1.683-1.452-3.417-2-5.19-.11-.36-.22-.72-.31-1.09s-.2-.72-.29-1.08-.17-.71-.25-1.07-.15-.72-.22-1.09-.13-.72-.19-1.09-.12-.72-.17-1.09c0-.16 0-.33-.05-.49-.007-.014-.011-.029-.011-.045s.004-.031.011-.045c-.007-.012-.011-.026-.011-.04s.004-.028.011-.04c-.005-.011-.007-.023-.007-.035s.002-.024.007-.035c-.01-.029-.01-.061 0-.09-.01-.026-.01-.054 0-.08-.01-.029-.01-.061 0-.09l-6-.08c-.278-1.618-.415-3.258-.41-4.9-.021-7.027 1.53-13.9699 4.54-20.32 3.907-8.5036 10.455-15.5184 18.67-20 6.809-3.8392 14.503-5.835 22.32-5.79 3.243-.0062 6.477.329 9.65 1v-4.58c-3.134-.5995-6.319-.8975-9.51-.89-8.475-.0306-16.815 2.1292-24.21 6.27zm-4.68 49.56c-.005.023-.005.047 0 .07-.005.011-.007.023-.007.035s.002.024.007.035v.06c-.005.026-.005.054 0 .08l.06.46c0 .36.1.71.17 1.07s.13.72.21 1.07.16.73.26 1.09.18.72.29 1.07.21.72.33 1.07.24.71.38 1.06.27.73.42 1.09.34.82.53 1.22c2.741 6.003 7.36 10.952 13.16 14.1 4.612 2.601 9.815 3.971 15.11 3.98 2.357.002 4.707-.274 7-.82l.5-.12v-26.62c-3.51 0-6.74 0-9.71 0-7.553 0-17.04-.063-28.46-.19h-.29c-.005.023-.005.047 0 .07.004.044.022.086.05.12z"/><path d="m209.3 118.22v.14c-.005.026-.005.054 0 .08-.005.023-.005.047 0 .07-.005.011-.007.023-.007.035s.002.024.007.035v.06c-.005.026-.005.054 0 .08l.06.46c0 .36.1.71.17 1.07s.13.72.21 1.07.16.73.26 1.09.18.72.29 1.07.21.72.33 1.07.24.71.38 1.06.27.73.42 1.09.34.82.53 1.22c2.741 6.003 7.36 10.952 13.16 14.1 4.618 2.604 9.829 3.975 15.13 3.98 2.357.002 4.707-.274 7-.82l.5-.12v-26.66h-8.65c-5.94 0-13.36-.053-22.26-.16h-.78l-6.66-.08h-.12s.03.05.03.06z"/><path d="m225.14 87.32c-5.821 3.1793-10.438 8.1823-13.14 14.24-1.882 4.038-2.868 8.435-2.89 12.89-.001 1.246.069 2.492.21 3.73v.14c-.005.026-.005.054 0 .08-.005.023-.005.047 0 .07-.005.011-.007.023-.007.035s.002.024.007.035v.06c-.005.026-.005.054 0 .08l.06.46c0 .36.1.71.17 1.07s.13.72.21 1.07.16.73.26 1.09.18.72.29 1.07.21.72.33 1.07.24.71.38 1.06.27.73.42 1.09.34.82.53 1.22c2.741 6.003 7.36 10.952 13.16 14.1 4.608 2.614 9.812 3.999 15.11 4.02 2.357.002 4.707-.273 7-.82l.5-.12v-26.7h-7.58c-3.793 0-8.37-.03-13.73-.09h-.25c-4.26-.04-9.003-.097-14.23-.17-.172-1.011-.259-2.035-.26-3.06-.013-4.403.961-8.753 2.85-12.73 2.452-5.3173 6.551-9.7037 11.69-12.51 4.272-2.4038 9.098-3.6516 14-3.62 2.543-.0016 5.075.3346 7.53 1v-2.9c-7.653-1.8706-15.729-.7999-22.63 3z"/><path d="m100.23 118.09h-.23l-10.07.14v.5.27c0 .37-.09.74-.14 1.11s-.11.75-.17 1.12c-1.0919 7.361-3.2443 14.526-6.39 21.27-6.8272 14.97-18.3401 27.311-32.8 35.16-15.1695 8.495-32.7704 11.597-49.930002 8.8l-.50000014-.08v8.24l.50000014.08c4.423422.685 8.893962 1.019 13.370002 1 14.7097-.019 29.1693-3.806 42-11 16.192-8.789 29.0844-22.608 36.73-39.37 3.7368-7.988 6.2322-16.499 7.4-25.24.05-.37.1-.75.14-1.13 0-.12 0-.25 0-.37zm-41.23.48h-1.06l-9.24.08c0 .16 0 .33-.05.49 0 .37-.11.73-.17 1.09s-.12.73-.19 1.09-.14.73-.22 1.09-.16.72-.25 1.07-.18.72-.29 1.08-.2.73-.31 1.09c-.548 1.773-1.2162 3.507-2 5.19-3.5521 7.8-9.5478 14.231-17.08 18.32-5.9746 3.341-12.7049 5.096-19.55 5.1-2.71822.006-5.42963-.272-8.090002-.83l-.50000014-.1v8.27c.17000014 0 .33000014.07.50000014.09 3.015682.577 6.079582.865 9.150002.86 8.4035-.012 16.6646-2.17 24-6.27 9.2611-5.03 16.6326-12.939 21-22.53 1.3741-2.952 2.4592-6.029 3.24-9.19.09-.36.17-.73.25-1.1s.15-.72.22-1.08.15-.72.2-1.09.13-.73.18-1.1.11-.73.16-1.09c-.0047-.016-.0047-.034 0-.05.1-.15.1-.31.1-.48zm-20.66.61.06-.46h-2.13c-7.3333.04-14.04.06-20.12.06-5.0267 0-10.41334 0-16.1600021 0v26.29l.5000001.12c2.293172.547 4.642602.822 7.000002.82 5.2733-.002 10.4581-1.355 15.06-3.93 5.8117-3.136 10.4449-8.078 13.2-14.08.19-.4.36-.81.53-1.22s.29-.72.42-1.09.27-.7.38-1.06.23-.71.33-1.07.21-.71.29-1.07.18-.72.26-1.09.15-.71.21-1.07.13-.71.17-1.07c.0113-.01.0186-.023.0204-.038.0019-.015-.0018-.03-.0104-.042zm41.26-.83h-.56l-9.74.1c-.0095.168-.0295.335-.06.5.0049.04.0049.08 0 .12 0 .37-.09.74-.15 1.1s-.1.73-.16 1.09-.12.73-.19 1.1-.14.73-.22 1.1c-.9095 4.562-2.3668 8.997-4.34 13.21-5.1915 11.383-13.9453 20.769-24.94 26.74-11.7691 6.592-25.4531 8.92-38.740002 6.59l-.50000014-.09v8.25l.50000014.08c3.720172.63 7.486892.944 11.260002.94 11.5541-.01 22.9138-2.974 33-8.61 12.7273-6.91 22.8607-17.774 28.87-30.95 2.5539-5.478 4.3665-11.273 5.39-17.23.06-.37.13-.74.18-1.12s.12-.73.16-1.1.11-.74.14-1.11c.0049-.06.0049-.12 0-.18zm-63.88-118.34999809c-5.2608-.00502098-10.51494.37600209-15.72000214 1.13999809v9.67c2.06000214-.35 4.13000214-.61 6.22000214-.81.39-.05.77-.08 1.15-.1 2.85-.26 5.73-.38 8.64-.38 16.6218-.09731 32.981 4.1459 47.46 12.31 17.4655 9.5116 31.3905 24.4116 39.7 42.48 6.412 13.4998 9.716 28.265 9.67 43.21-.001 3.485-.295 6.964-.88 10.4h-1.42l-.06.5-.06.5c-1.187 10.175-3.996 20.094-8.32 29.38-8.98 19.133-22.5333 33.667-40.66 43.6-14.2158 7.939-30.2278 12.104-46.51 12.1-4.8304.016-9.65482-.342-14.430002-1.07l-.50000014-.07v8.47c23.10090214 3.554 46.72710214-.708 67.13000214-12.11 19.9333-10.94 34.827-26.907 44.68-47.9 6.676-14.358 10.092-30.016 10-45.85-.065-15.1376-3.412-30.081-9.81-43.8-9.201-20.5824-24.9146-37.5681-44.72-48.34-15.7477-8.81989-33.5108-13.4122322-51.56-13.32999809z"/><path d="m59.07 118.07h-1.13l-9.18.08c.0099.029.0099.061 0 .09.01.026.01.054 0 .08.0099.029.0099.061 0 .09.0047.011.0071.023.0071.035s-.0024.024-.0071.035c.007.012.0107.026.0107.04s-.0037.028-.0107.04c.007.014.0107.029.0107.045s-.0037.031-.0107.045c0 .16 0 .33-.05.49l9.29-.08h1c0-.17 0-.33 0-.5.01-.033.01-.067 0-.1.01-.026.01-.054 0-.08.0099-.029.0099-.061 0-.09-.0002-.09-.0002-.09-.0002-.18.0142-.001.0278-.005.0399-.012.0122-.007.0225-.016.0303-.028zm-59.07 51.81v8.25l.5.08v-8.21zm38.47-51.66h-2.19-4.59-.78-9.35-.25c-5.3333.06-9.91.09-13.73.09h-7.58v26.7l.5.12v-25.87h15.66c6.1067 0 12.8133-.02 20.12-.06h2.06l.06-.46c.0049-.026.0049-.054 0-.08 0 0 0 0 0-.06.0047-.011.0071-.023.0071-.035s-.0024-.024-.0071-.035c.0049-.023.0049-.047 0-.07.0049-.026.0049-.054 0-.08-.0001-.07-.0001-.07-.0001-.14zm-37.97 35.23-.5-.1v8.27c.17 0 .33.07.5.09zm-.5 32.93v8.24l.5.08v-8.24zm15.72-186.37999809c-5.2608-.00502098-10.51494.37600209-15.72 1.13999809v9.67c2.06-.35 4.13-.61 6.22-.81.39-.05.77-.08 1.15-.1 2.85-.26 5.73-.38 8.64-.38 16.6218-.09731 32.981 4.1459 47.46 12.31 17.4655 9.5116 31.3905 24.4116 39.7 42.48 6.412 13.4998 9.716 28.265 9.67 43.21-.001 3.485-.295 6.964-.88 10.4h-1.42l-.06.5h1.49.41l.07-.41c.59-3.462.888-6.968.89-10.48.03-15.0162-3.29-29.8499-9.72-43.42-8.3737-18.1543-22.3665-33.1324-39.91-42.72-14.561-8.1944-31.0017-12.46399-47.71-12.39-3 0-5.9.13-8.69.38-.37 0-.76 0-1.16.1-2 .2-3.88.43-5.66.72v-8.63c5.04503-.715901 10.1344-1.073463 15.23-1.069998 17.9495-.05592 35.6107 4.514348 51.28 13.269998 9.7527 5.3354 18.5824 12.2067 26.15 20.35 7.554 8.2205 13.752 17.5911 18.36 27.76 6.348 13.6598 9.677 28.5274 9.76 43.59.085 15.756-3.299 31.338-9.91 45.64-9.281 20.279-24.884 37.004-44.47 47.67-15.5583 8.68-33.074 13.248-50.89 13.27-5.1879-.002-10.3686-.386-15.5-1.15v-8l-.5-.07v8.47c23.1009 3.554 46.7271-.708 67.13-12.11 19.9333-10.94 34.827-26.907 44.68-47.9 6.676-14.358 10.092-30.016 10-45.85-.069-15.1274-3.416-30.0602-9.81-43.77-9.201-20.5824-24.9146-37.5681-44.72-48.34-15.7477-8.81989-33.5108-13.4122322-51.56-13.32999809zm63.94 117.84999809h-1.72-4.18c.0049.03.0049.06 0 .09l-4.4.07c.0107.032.0107.068 0 .1-.0001.09-.0001.09-.0001.18.0055.033.0055.067.0001.1-.0095.168-.0295.335-.06.5l8.71-.09h1.59l.06-.5c.0055-.036.0055-.074 0-.11.0054-.033.0054-.067 0-.1.0103-.036.0103-.074 0-.11.0051-.043.0051-.087 0-.13zm20.63-.26h-1.39l-6.12.08v.26l-2.78.07c.0055.036.0055.074 0 .11.0097.039.0097.081 0 .12v.5l9-.12h1.26l.06-.5s0-.09 0-.13-.05-.27-.03-.39z"/><path d="m100.23 118.09h-.23l-10.07.14v.5.27c0 .37-.09.74-.14 1.11s-.11.75-.17 1.12c-1.0919 7.361-3.2443 14.526-6.39 21.27-6.8272 14.97-18.3401 27.311-32.8 35.16-15.1695 8.495-32.7704 11.597-49.930002 8.8l-.50000014-.08v8.24l.50000014.08c4.423422.685 8.893962 1.019 13.370002 1 14.7097-.019 29.1693-3.806 42-11 16.192-8.789 29.0844-22.608 36.73-39.37 3.7368-7.988 6.2322-16.499 7.4-25.24.05-.37.1-.75.14-1.13 0-.12 0-.25 0-.37zm-41.23.48h-1.06l-9.24.08c0 .16 0 .33-.05.49 0 .37-.11.73-.17 1.09s-.12.73-.19 1.09-.14.73-.22 1.09-.16.72-.25 1.07-.18.72-.29 1.08-.2.73-.31 1.09c-.548 1.773-1.2162 3.507-2 5.19-3.5521 7.8-9.5478 14.231-17.08 18.32-5.9746 3.341-12.7049 5.096-19.55 5.1-2.71822.006-5.42963-.272-8.090002-.83l-.50000014-.1v8.27c.17000014 0 .33000014.07.50000014.09 3.015682.577 6.079582.865 9.150002.86 8.4035-.012 16.6646-2.17 24-6.27 9.2611-5.03 16.6326-12.939 21-22.53 1.3741-2.952 2.4592-6.029 3.24-9.19.09-.36.17-.73.25-1.1s.15-.72.22-1.08.15-.72.2-1.09.13-.73.18-1.1.11-.73.16-1.09c-.0047-.016-.0047-.034 0-.05.1-.15.1-.31.1-.48zm-20.66.61.06-.46h-2.13c-7.3333.04-14.04.06-20.12.06-5.0267 0-10.41334 0-16.1600021 0v26.29l.5000001.12c2.293172.547 4.642602.822 7.000002.82 5.2733-.002 10.4581-1.355 15.06-3.93 5.8117-3.136 10.4449-8.078 13.2-14.08.19-.4.36-.81.53-1.22s.29-.72.42-1.09.27-.7.38-1.06.23-.71.33-1.07.21-.71.29-1.07.18-.72.26-1.09.15-.71.21-1.07.13-.71.17-1.07c.0113-.01.0186-.023.0204-.038.0019-.015-.0018-.03-.0104-.042zm41.26-.83h-.56l-9.74.1c-.0095.168-.0295.335-.06.5.0049.04.0049.08 0 .12 0 .37-.09.74-.15 1.1s-.1.73-.16 1.09-.12.73-.19 1.1-.14.73-.22 1.1c-.9095 4.562-2.3668 8.997-4.34 13.21-5.1915 11.383-13.9453 20.769-24.94 26.74-11.7691 6.592-25.4531 8.92-38.740002 6.59l-.50000014-.09v8.25l.50000014.08c3.720172.63 7.486892.944 11.260002.94 11.5541-.01 22.9138-2.974 33-8.61 12.7273-6.91 22.8607-17.774 28.87-30.95 2.5539-5.478 4.3665-11.273 5.39-17.23.06-.37.13-.74.18-1.12s.12-.73.16-1.1.11-.74.14-1.11c.0049-.06.0049-.12 0-.18zm-63.88-118.34999809c-5.2608-.00502098-10.51494.37600209-15.72000214 1.13999809v9.67c2.06000214-.35 4.13000214-.61 6.22000214-.81.39-.05.77-.08 1.15-.1 2.85-.26 5.73-.38 8.64-.38 16.6218-.09731 32.981 4.1459 47.46 12.31 17.4655 9.5116 31.3905 24.4116 39.7 42.48 6.412 13.4998 9.716 28.265 9.67 43.21-.001 3.485-.295 6.964-.88 10.4h-1.42l-.06.5-.06.5c-1.187 10.175-3.996 20.094-8.32 29.38-8.98 19.133-22.5333 33.667-40.66 43.6-14.2158 7.939-30.2278 12.104-46.51 12.1-4.8304.016-9.65482-.342-14.430002-1.07l-.50000014-.07v8.47c23.10090214 3.554 46.72710214-.708 67.13000214-12.11 19.9333-10.94 34.827-26.907 44.68-47.9 6.676-14.358 10.092-30.016 10-45.85-.065-15.1376-3.412-30.081-9.81-43.8-9.201-20.5824-24.9146-37.5681-44.72-48.34-15.7477-8.81989-33.5108-13.4122322-51.56-13.32999809z"/><path d="m100.25 118h-.12l-10.19.15c.0097.039.0097.081 0 .12v.5.27c0 .37-.09.74-.14 1.11s-.11.75-.17 1.12c-1.0919 7.361-3.2443 14.526-6.39 21.27-6.8272 14.97-18.3401 27.311-32.8 35.16-15.1772 8.483-32.7817 11.571-49.940002 8.76l-.50000014-.08v8.24l.50000014.08c4.423422.685 8.893962 1.019 13.370002 1 14.7097-.019 29.1693-3.806 42-11 16.192-8.789 29.0844-22.608 36.73-39.37 3.7368-7.988 6.2322-16.499 7.4-25.24.05-.37.1-.75.14-1.13 0-.12 0-.25 0-.37l.06-.5s.04-.09.05-.09zm-41.25.47h-.83l-9.48.09c.007.014.0107.029.0107.045s-.0037.031-.0107.045c0 .16 0 .33-.05.49 0 .37-.11.73-.17 1.09s-.12.73-.19 1.09-.14.73-.22 1.09-.16.72-.25 1.07-.18.72-.29 1.08-.2.73-.31 1.09c-.548 1.773-1.2162 3.507-2 5.19-3.5521 7.8-9.5478 14.231-17.08 18.32-5.9746 3.341-12.7049 5.096-19.55 5.1-2.71822.006-5.42963-.272-8.090002-.83l-.5000001-.1v8.27c.1700001 0 .3300001.07.5000001.09 3.015682.577 6.079582.865 9.150002.86 8.4035-.012 16.6646-2.17 24-6.27 9.2611-5.03 16.6326-12.939 21-22.53 1.3741-2.952 2.4592-6.029 3.24-9.19.09-.36.17-.73.25-1.1s.15-.72.22-1.08.15-.72.2-1.09.13-.73.18-1.1.11-.73.16-1.09c-.0047-.016-.0047-.034 0-.05 0-.17 0-.33 0-.5.0229-.005.0444-.015.0633-.029.019-.013.0349-.031.0467-.051zm-20.61.25c.0049-.026.0049-.054 0-.08h-1.69c-7.9533.047-15.1667.073-21.64.08-4.6667 0-9.68667 0-15.06000214 0v26.36l.50000014.12c2.293172.547 4.642602.822 7.000002.82 5.2733-.002 10.4581-1.355 15.06-3.93 5.8095-3.14 10.4393-8.086 13.19-14.09.19-.4.36-.81.53-1.22s.29-.72.42-1.09.27-.7.38-1.06.23-.71.33-1.07.21-.71.29-1.07.18-.72.26-1.09.15-.71.21-1.07.13-.71.17-1.07zm41.21-.48h-.39l-9.91.12c.0054.033.0054.067 0 .1-.0095.168-.0295.335-.06.5.0049.04.0049.08 0 .12 0 .37-.09.74-.15 1.1s-.1.73-.16 1.09-.12.73-.19 1.1-.14.73-.22 1.1c-.9095 4.562-2.3668 8.997-4.34 13.21-5.1915 11.383-13.9453 20.769-24.94 26.74-11.7703 6.589-25.4542 8.913-38.740002 6.58l-.50000014-.09v8.25l.50000014.08c3.720172.63 7.486892.944 11.260002.94 11.5541-.01 22.9138-2.974 33-8.61 12.7273-6.91 22.8607-17.774 28.87-30.95 2.5539-5.478 4.3665-11.273 5.39-17.23.06-.37.13-.74.18-1.12s.12-.73.16-1.1.11-.74.14-1.11c.0049-.06.0049-.12 0-.18l.06-.5c.0295-.042.0499-.09.06-.14z"/><path d="m13.63 21c-4.56448.0057-9.12158.3668-13.63000214 1.08v8c4.58068214-.7924 9.22129214-1.1872 13.87000214-1.18 13.6603-.0823 27.106 3.3989 39.01 10.1 14.3489 7.8142 25.7927 20.0507 32.63 34.89 5.2704 11.0974 7.987 23.2348 7.95 35.52.0005 2.774-.227 5.543-.68 8.28v.26l-2.78.05c.0055.036.0055.074 0 .11.0097.039.0097.081 0 .12v.5.27c0 .37-.09.74-.14 1.11s-.11.75-.17 1.12c-1.0919 7.361-3.2443 14.526-6.39 21.27-6.8272 14.97-18.3401 27.311-32.8 35.16-15.1894 8.51-32.8177 11.613-50.000002 8.8l-.50000014-.08v8.24l.50000014.08c4.423422.685 8.893962 1.019 13.370002 1 14.7097-.019 29.1693-3.806 42-11 16.192-8.789 29.0844-22.608 36.73-39.37 3.7368-7.988 6.2322-16.499 7.4-25.24.05-.37.1-.75.14-1.13 0-.12 0-.25 0-.37l.06-.5s0-.09 0-.13 0-.25 0-.37c.342-3.279.512-6.573.51-9.87-.051-12.4418-2.8009-24.7243-8.06-36-7.5377-16.896-20.4136-30.8504-36.65-39.72-12.9381-7.2599-27.5343-11.0493-42.37-11zm45.37 97.39h-.62l-9.69.09c.007.012.0107.026.0107.04s-.0037.028-.0107.04c.007.014.0107.029.0107.045s-.0037.031-.0107.045c0 .16 0 .33-.05.49 0 .37-.11.73-.17 1.09s-.12.73-.19 1.09-.14.73-.22 1.09-.16.72-.25 1.07-.18.72-.29 1.08-.2.73-.31 1.09c-.548 1.773-1.2162 3.507-2 5.19-3.5521 7.8-9.5478 14.231-17.08 18.32-5.9746 3.341-12.7049 5.096-19.55 5.1-2.71822.006-5.42963-.272-8.090002-.83l-.5000001-.1v8.27c.1700001 0 .3300001.07.5000001.09 3.015682.577 6.079582.865 9.150002.86 8.4035-.012 16.6646-2.17 24-6.27 9.2611-5.03 16.6326-12.939 21-22.53 1.3741-2.952 2.4592-6.029 3.24-9.19.09-.36.17-.73.25-1.1s.15-.72.22-1.08.15-.72.2-1.09.13-.73.18-1.1.11-.73.16-1.09c-.0047-.016-.0047-.034 0-.05 0-.17 0-.33 0-.5.01-.033.01-.067 0-.1.0223.002.0447-.002.0644-.013.0196-.011.0355-.027.0456-.047zm-20.61.25s0 0 0-.06h-1.31c-8.6.06-16.2967.09-23.09.09-4.34 0-9.00667 0-14.0000021 0v26.41l.5000001.12c2.293172.547 4.642602.822 7.000002.82 5.2733-.002 10.4581-1.355 15.06-3.93 5.8133-3.139 10.4467-8.085 13.2-14.09.19-.4.36-.81.53-1.22s.29-.72.42-1.09.27-.7.38-1.06.23-.71.33-1.07.21-.71.29-1.07.18-.72.26-1.09.15-.71.21-1.07.13-.71.17-1.07l.06-.46c.0267-.049.0338-.106.02-.16zm41.21-.5h-.24l-10.06.13c.0099.029.0099.061 0 .09.0054.033.0054.067 0 .1-.0095.168-.0295.335-.06.5.0049.04.0049.08 0 .12 0 .37-.09.74-.15 1.1s-.1.73-.16 1.09-.12.73-.19 1.1-.14.73-.22 1.1c-.9095 4.562-2.3668 8.997-4.34 13.21-5.1915 11.383-13.9453 20.769-24.94 26.74-11.7703 6.589-25.4542 8.913-38.740002 6.58l-.50000014-.09v8.25l.50000014.08c3.720172.63 7.486892.944 11.260002.94 11.5541-.01 22.9138-2.974 33-8.61 12.7273-6.91 22.8607-17.774 28.87-30.95 2.5539-5.478 4.3665-11.273 5.39-17.23.06-.37.13-.74.18-1.12s.12-.73.16-1.1.11-.74.14-1.11c.0049-.06.0049-.12 0-.18l.06-.5c.0055-.036.0055-.074 0-.11.0335-.037.0575-.082.07-.13z"/><path d="m59 118.3h-.43l-9.88.11c.0047.011.0071.023.0071.035s-.0024.024-.0071.035c.007.012.0107.026.0107.04s-.0037.028-.0107.04c.007.014.0107.029.0107.045s-.0037.031-.0107.045c0 .16 0 .33-.05.49 0 .37-.11.73-.17 1.09s-.12.73-.19 1.09-.14.73-.22 1.09-.16.72-.25 1.07-.18.72-.29 1.08-.2.73-.31 1.09c-.548 1.773-1.2162 3.507-2 5.19-3.5521 7.8-9.5478 14.231-17.08 18.32-5.9746 3.341-12.7049 5.096-19.55 5.1-2.71822.006-5.42963-.272-8.089999-.83l-.49999978-.1v8.27c.16999978 0 .32999978.07.49999978.09 3.015679.577 6.079579.865 9.149999.86 8.4035-.012 16.6646-2.17 24-6.27 9.2611-5.03 16.6326-12.939 21-22.53 1.3741-2.952 2.4592-6.029 3.24-9.19.09-.36.17-.73.25-1.1s.15-.72.22-1.08.15-.72.2-1.09.13-.73.18-1.1.11-.73.16-1.09c-.0047-.016-.0047-.034 0-.05 0-.17 0-.33 0-.5.01-.033.01-.067 0-.1.01-.026.01-.054 0-.08.0226-.002.0445-.009.0636-.021.0192-.013.0351-.029.0464-.049zm-20.62.28c.0047-.011.0071-.023.0071-.035s-.0024-.024-.0071-.035h-1c-9.26.08-17.4233.117-24.49.11-4 0-8.30667 0-12.9199988 0v26.46l.4999998.12c2.293169.547 4.642609.822 6.999999.82 5.2733-.002 10.4581-1.355 15.06-3.93 5.8207-3.135 10.4616-8.082 13.22-14.09.19-.4.36-.81.53-1.22s.29-.72.42-1.09.27-.7.38-1.06.23-.71.33-1.07.21-.71.29-1.07.18-.72.26-1.09.15-.71.21-1.07.13-.71.17-1.07l.06-.46c.0049-.026.0049-.054 0-.08 0 0 .03-.12.02-.14zm41.26-.58h-.11l-10.19.15c-.0002.09-.0002.09-.0002.18.0056.033.0056.067.0002.1-.0095.168-.0295.335-.06.5.0049.04.0049.08 0 .12 0 .37-.09.74-.15 1.1s-.1.73-.16 1.09-.12.73-.19 1.1-.14.73-.22 1.1c-.9095 4.562-2.3668 8.997-4.34 13.21-5.1915 11.383-13.9453 20.769-24.94 26.74-11.778 6.608-25.4779 8.944-38.779999 6.61l-.49999978-.09v8.25l.49999978.08c3.720169.63 7.486899.944 11.259999.94 11.5541-.01 22.9138-2.974 33-8.61 12.7273-6.91 22.8607-17.774 28.87-30.95 2.5539-5.478 4.3665-11.273 5.39-17.23.06-.37.13-.74.18-1.12s.12-.73.16-1.1.11-.74.14-1.11c.0049-.06.0049-.12 0-.18l.06-.5c.0055-.036.0055-.074 0-.11.0054-.033.0054-.067 0-.1.0262-.02.0473-.045.0612-.075.014-.03.0204-.062.0188-.095z"/><path d="m59.05 118.21h-.26l-10 .12c.0099.029.0099.061 0 .09.0047.011.0071.023.0071.035s-.0024.024-.0071.035c.007.012.0107.026.0107.04s-.0037.028-.0107.04c.007.014.0107.029.0107.045s-.0037.031-.0107.045c0 .16 0 .33-.05.49 0 .37-.11.73-.17 1.09s-.12.73-.19 1.09-.14.73-.22 1.09-.16.72-.25 1.07-.18.72-.29 1.08-.2.73-.31 1.09c-.548 1.773-1.2162 3.507-2 5.19-3.5521 7.8-9.5478 14.231-17.08 18.32-5.9746 3.341-12.7049 5.096-19.55 5.1-2.71822.006-5.42963-.272-8.09-.83l-.5-.1v8.27c.17 0 .33.07.5.09 3.01568.577 6.07958.865 9.15.86 8.4035-.012 16.6646-2.17 24-6.27 9.2611-5.03 16.6326-12.939 21-22.53 1.3741-2.952 2.4592-6.029 3.24-9.19.09-.36.17-.73.25-1.1s.15-.72.22-1.08.15-.72.2-1.09.13-.73.18-1.1.11-.73.16-1.09c-.0047-.016-.0047-.034 0-.05 0-.17 0-.33 0-.5.01-.033.01-.067 0-.1.01-.026.01-.054 0-.08.0099-.029.0099-.061 0-.09.0292-.018.0505-.047.06-.08zm-20.62.3c.0049-.023.0049-.047 0-.07h-.73c-9.9533.08-18.57.123-25.85.13-3.66 0-7.61 0-11.85 0v26.51l.5.12c2.29317.547 4.64261.822 7 .82 5.2733-.002 10.4581-1.355 15.06-3.93 5.8095-3.14 10.4393-8.086 13.19-14.09.19-.4.36-.81.53-1.22s.29-.72.42-1.09.27-.7.38-1.06.23-.71.33-1.07.21-.71.29-1.07.18-.72.26-1.09.15-.71.21-1.07.13-.71.17-1.07l.06-.46c.0049-.026.0049-.054 0-.08 0 0 0 0 0-.06.0143-.005.0271-.014.037-.026s.0167-.026.0197-.041.0022-.03-.0025-.045c-.0047-.014-.013-.028-.0242-.038zm-26.86-76.69c-3.87675-.0046-7.74702.3166-11.57.96v6.22c3.88064-.6963 7.81751-1.031 11.76-1 10.7422-.0478 21.3107 2.7098 30.66 8 11.2699 6.1289 20.2645 15.7266 25.65 27.37 4.144 8.7225 6.2797 18.263 6.25 27.92.0049 2.222-.1825 4.44-.56 6.63.0049.03.0049.06 0 .09l-4.4.07c.0107.032.0107.068 0 .1-.0001.09-.0001.09-.0001.18.0055.033.0055.067.0001.1-.0095.168-.0295.335-.06.5.0049.04.0049.08 0 .12 0 .37-.09.74-.15 1.1s-.1.73-.16 1.09-.12.73-.19 1.1-.14.73-.22 1.1c-.9095 4.562-2.3668 8.997-4.34 13.21-5.1915 11.383-13.9453 20.769-24.94 26.74-11.7873 6.603-25.4949 8.927-38.8 6.58l-.5-.09v8.25l.5.08c3.72017.63 7.48689.944 11.26.94 11.5541-.01 22.9138-2.974 33-8.61 12.7273-6.91 22.8607-17.774 28.87-30.95 2.5539-5.478 4.3665-11.273 5.39-17.23.06-.37.13-.74.18-1.12s.12-.73.16-1.1.11-.74.14-1.11c.0049-.06.0049-.12 0-.18l.06-.5c.0055-.036.0055-.074 0-.11.0054-.033.0054-.067 0-.1.0103-.036.0103-.074 0-.11.0099-.06.0099-.12 0-.18.2902-2.62.4338-5.254.43-7.89-.0408-9.781-2.2039-19.4365-6.34-28.3-5.9034-13.2924-16.0121-24.276-28.77-31.26-10.1743-5.6964-21.6497-8.6626-33.31-8.61z"/><path d="m59.06 118.12h-.06l-10.2.13c.01.026.01.054 0 .08.0099.029.0099.061 0 .09.0047.011.0071.023.0071.035s-.0024.024-.0071.035c.007.012.0107.026.0107.04s-.0037.028-.0107.04c.007.014.0107.029.0107.045s-.0037.031-.0107.045c0 .16 0 .33-.05.49 0 .37-.11.73-.17 1.09s-.12.73-.19 1.09-.14.73-.22 1.09-.16.72-.25 1.07-.18.72-.29 1.08-.2.73-.31 1.09c-.548 1.773-1.2162 3.507-2 5.19-3.5521 7.8-9.5478 14.231-17.08 18.32-5.9746 3.341-12.7049 5.096-19.55 5.1-2.71822.006-5.42963-.272-8.09-.83l-.5-.1v8.27c.17 0 .33.07.5.09 3.01568.577 6.07958.865 9.15.86 8.4035-.012 16.6646-2.17 24-6.27 9.2611-5.03 16.6326-12.939 21-22.53 1.3741-2.952 2.4592-6.029 3.24-9.19.09-.36.17-.73.25-1.1s.15-.72.22-1.08.15-.72.2-1.09.13-.73.18-1.1.11-.73.16-1.09c-.0047-.016-.0047-.034 0-.05 0-.17 0-.33 0-.5.01-.033.01-.067 0-.1.01-.026.01-.054 0-.08.0099-.029.0099-.061 0-.09-.0002-.09-.0002-.09-.0002-.18zm-20.62.32c.0049-.026.0049-.054 0-.08h-.44c-10.6667.113-19.7267.17-27.18.17l-10.82-.03v26.55l.5.12c2.29317.547 4.64261.822 7 .82 5.2733-.002 10.4581-1.355 15.06-3.93 5.8047-3.133 10.434-8.067 13.19-14.06.19-.4.36-.81.53-1.22s.29-.72.42-1.09.27-.7.38-1.06.23-.71.33-1.07.21-.71.29-1.07.18-.72.26-1.09.15-.71.21-1.07.13-.71.17-1.07l.06-.46c.0049-.026.0049-.054 0-.08 0 0 0 0 0-.06.0047-.011.0071-.023.0071-.035s-.0024-.024-.0071-.035c.0181-.02.0312-.044.0381-.07.007-.026.0076-.054.0019-.08z"/><path d="m9.51 62.61c-3.19114-.0075-6.37567.2905-9.51000214.89v4.58c3.17267214-.671 6.40715214-1.0062 9.65000214-1 7.8272-.0502 15.5317 1.9457 22.35 5.79 8.2151 4.4817 14.7634 11.4964 18.67 20 3.0096 6.3501 4.5608 13.293 4.54 20.32.0047 1.642-.1325 3.282-.41 4.9l-6 .08c.0099.029.0099.061 0 .09.01.026.01.054 0 .08.0099.029.0099.061 0 .09.0047.011.0071.023.0071.035s-.0024.024-.0071.035c.007.012.0107.026.0107.04s-.0037.028-.0107.04c.007.014.0107.029.0107.045s-.0037.031-.0107.045c0 .16 0 .33-.05.49 0 .37-.11.73-.17 1.09s-.12.73-.19 1.09-.14.73-.22 1.09-.16.72-.25 1.07-.18.72-.29 1.08-.2.73-.31 1.09c-.548 1.773-1.2162 3.507-2 5.19-3.5521 7.8-9.5478 14.231-17.08 18.32-5.9746 3.341-12.7049 5.096-19.55 5.1-2.71822.006-5.42963-.272-8.090002-.83l-.5000001-.1v8.27c.1700001 0 .3300001.07.5000001.09 3.015682.577 6.079582.865 9.150002.86 8.4035-.012 16.6646-2.17 24-6.27 9.2611-5.03 16.6326-12.939 21-22.53 1.3741-2.952 2.4592-6.029 3.24-9.19.09-.36.17-.73.25-1.1s.15-.72.22-1.08.15-.72.2-1.09.13-.73.18-1.1.11-.73.16-1.09c-.0047-.016-.0047-.034 0-.05 0-.17 0-.33 0-.5.01-.033.01-.067 0-.1.01-.026.01-.054 0-.08.0099-.029.0099-.061 0-.09-.0002-.09-.0002-.09-.0002-.18.0049-.016.0049-.034.0002-.05.2132-1.946.32-3.902.32-5.86-.0306-7.12-1.6069-14.1487-4.62-20.6-4.3183-9.6743-11.697-17.6609-21-22.73-7.3892-4.1375-15.7214-6.2971-24.19-6.27zm28.94 55.75c.0049-.023.0049-.047 0-.07h-.29c-11.4333.12-20.92.183-28.46.19-3 0-6.2 0-9.7100021 0v26.61l.5000001.12c2.293172.547 4.642602.822 7.000002.82 5.2733-.002 10.4581-1.355 15.06-3.93 5.8149-3.141 10.4485-8.091 13.2-14.1.19-.4.36-.81.53-1.22s.29-.72.42-1.09.27-.7.38-1.06.23-.71.33-1.07.21-.71.29-1.07.18-.72.26-1.09.15-.71.21-1.07.13-.71.17-1.07l.06-.46c.0049-.026.0049-.054 0-.08 0 0 0 0 0-.06.0047-.011.0071-.023.0071-.035s-.0024-.024-.0071-.035c.0049-.023.0049-.047 0-.07.0371-.045.0551-.102.05-.16z"/><path d="m38.47 118.18h-.12l-6.66.08h-.78c-8.9.113-16.32.167-22.26.16l-8.65-.02v26.65l.5.12c2.29317.547 4.64261.822 7 .82 5.2733-.002 10.4581-1.355 15.06-3.93 5.8047-3.133 10.434-8.067 13.19-14.06.19-.4.36-.81.53-1.22s.29-.72.42-1.09.27-.7.38-1.06.23-.71.33-1.07.21-.71.29-1.07.18-.72.26-1.09.15-.71.21-1.07.13-.71.17-1.07l.06-.46c.0049-.026.0049-.054 0-.08 0 0 0 0 0-.06.0047-.011.0071-.023.0071-.035s-.0024-.024-.0071-.035c.0049-.023.0049-.047 0-.07.0049-.026.0049-.054 0-.08-.0001-.07-.0001-.07-.0001-.14.0001 0 .0801-.11.0701-.12z"/><path d="m7.45 83.4c-2.51035-.0085-5.01229.2904-7.45.89v2.9c2.45463-.6654 4.98679-1.0017 7.53-1 4.9021-.0316 9.7276 1.2161 14 3.62 5.1332 2.8122 9.225 7.202 11.67 12.52 1.8887 3.977 2.8626 8.327 2.85 12.73-.0013 1.025-.0883 2.049-.26 3.06-5.2267.067-9.97.123-14.23.17h-.25c-5.3333.06-9.91.09-13.73.09h-7.58v26.7l.5.12c2.29317.546 4.64261.822 7 .82 5.2733-.002 10.4581-1.355 15.06-3.93 5.8095-3.14 10.4393-8.086 13.19-14.09.19-.4.36-.81.53-1.22s.29-.72.42-1.09.27-.7.38-1.06.23-.71.33-1.07.21-.71.29-1.07.18-.72.26-1.09.15-.71.21-1.07.13-.71.17-1.07l.06-.46c.0049-.026.0049-.054 0-.08 0 0 0 0 0-.06.0047-.011.0071-.023.0071-.035s-.0024-.024-.0071-.035c.0049-.023.0049-.047 0-.07.0049-.026.0049-.054 0-.08-.0001-.07-.0001-.07-.0001-.14h.0001c.1409-1.238.211-2.484.21-3.73-.0216-4.455-1.0076-8.852-2.89-12.89-2.6673-6.0947-7.2676-11.1413-13.09-14.36-4.6363-2.5963-9.8663-3.9469-15.18-3.92z"/></g></svg>